<svg width="200" height="40" viewBox="0 0 200 40" fill="none" xmlns="http://www.w3.org/2000/svg">
<g clip-path="url(#clip0_2288_661)">
<path d="M11.0606 8.32117C3.85408 8.32117 0.971436 11.2011 0.971436 18.4009V27.0406C0.971436 34.2403 3.85408 37.1202 11.0606 37.1202H183.879C189.022 37.1202 191.964 35.6534 193.226 32.1963C193.732 30.8094 193.969 29.1021 193.969 27.0406V24.1606" stroke="#FCB1A6" stroke-width="2" stroke-linecap="round" stroke-linejoin="round"/>
<path d="M38.2374 32.6601C36.8091 32.6601 35.5355 32.4698 34.4167 32.0893C33.3217 31.7088 32.4051 31.1618 31.6672 30.4483C30.953 29.7348 30.4412 28.8787 30.1318 27.8798C29.8223 26.8572 29.7271 25.7156 29.8461 24.4551L33.4883 23.7773C33.4169 25.0616 33.5716 26.1199 33.9525 26.9523C34.3572 27.7847 34.9403 28.403 35.7021 28.8073C36.4877 29.2117 37.3804 29.4138 38.3802 29.4138C39.2848 29.4138 40.0585 29.283 40.7012 29.0214C41.3677 28.7597 41.8795 28.3912 42.2366 27.9155C42.5937 27.4398 42.7722 26.8453 42.7722 26.1318C42.7722 25.228 42.5223 24.5146 42.0224 23.9914C41.5225 23.4443 40.8678 23.0044 40.0585 22.6715C39.2491 22.3385 38.3802 22.0293 37.4518 21.7439C36.5472 21.4585 35.6427 21.1494 34.738 20.8164C33.8573 20.4834 33.0478 20.0673 32.3099 19.5678C31.5958 19.0447 31.0245 18.4025 30.596 17.6415C30.1675 16.8804 29.9532 15.9411 29.9532 14.8232C29.9532 13.4914 30.2746 12.338 30.9173 11.3629C31.5601 10.364 32.4647 9.59111 33.6311 9.04411C34.8214 8.47333 36.2258 8.18794 37.8446 8.18794C39.5109 8.18794 40.9511 8.48523 42.1652 9.07979C43.403 9.65056 44.3314 10.5067 44.9504 11.6483C45.5931 12.7899 45.8431 14.193 45.7002 15.8578L42.0938 16.4286C42.1652 15.6913 42.1176 15.0135 41.951 14.3952C41.7844 13.7768 41.5105 13.2417 41.1297 12.7899C40.7488 12.338 40.2727 11.9931 39.7014 11.7553C39.1301 11.5175 38.4636 11.3986 37.7018 11.3986C36.8924 11.3986 36.1901 11.5294 35.595 11.791C34.9999 12.0526 34.5357 12.4212 34.2024 12.8969C33.893 13.3725 33.7382 13.9314 33.7382 14.5735C33.7382 15.3821 33.9762 16.0361 34.4524 16.5356C34.9285 17.0113 35.5593 17.4037 36.3449 17.7128C37.1304 17.9982 37.9755 18.2717 38.8801 18.5333C39.8323 18.8424 40.7607 19.1754 41.6653 19.5322C42.5699 19.8889 43.3912 20.3407 44.1291 20.8878C44.8909 21.4348 45.486 22.1126 45.9145 22.9212C46.3668 23.7297 46.5929 24.7405 46.5929 25.9534C46.5929 27.3566 46.2596 28.5576 45.5931 29.5565C44.9266 30.5553 43.9625 31.3282 42.7008 31.8753C41.463 32.3984 39.9751 32.6601 38.2374 32.6601ZM53.8589 32.5174C52.1687 32.5174 50.8832 32.0536 50.0024 31.1261C49.1217 30.1749 48.6813 28.7717 48.6813 26.9166V16.7496H46.6459V14.0027H47.3244C48.2051 13.9314 48.836 13.6698 49.2169 13.2179C49.5977 12.7661 49.8239 12.0764 49.8953 11.1489L50.0382 9.65056H52.4663V13.6103H56.644V16.821H52.4663V26.4529C52.4663 27.3566 52.6567 28.0106 53.0376 28.4149C53.4184 28.8193 53.9303 29.0214 54.573 29.0214C54.9063 29.0214 55.2514 28.9738 55.6085 28.8787C55.9894 28.7597 56.3346 28.5933 56.644 28.3792V32.0536C56.1441 32.2201 55.6562 32.339 55.18 32.4104C54.7278 32.4817 54.2873 32.5174 53.8589 32.5174ZM63.1973 32.6601C61.2691 32.6601 59.8526 31.9466 58.9481 30.5197C58.0672 29.069 57.6268 26.8453 57.6268 23.8487V13.6103H61.4833V23.6346C61.4833 25.6086 61.7094 27.0236 62.1616 27.8798C62.6378 28.736 63.3876 29.1641 64.4113 29.1641C65.0778 29.1641 65.6611 28.9857 66.161 28.629C66.6847 28.2485 67.1251 27.6895 67.4822 26.9523C67.8392 26.2151 68.101 25.2876 68.2677 24.1697C68.4581 23.0519 68.5534 21.7202 68.5534 20.1743V13.6103H72.4098V22.8855L72.4455 32.1963H68.9819L69.339 24.6335H69.0533C68.8866 26.5599 68.5534 28.1176 68.0535 29.3068C67.5773 30.4721 66.9346 31.3282 66.1252 31.8753C65.3158 32.3984 64.3399 32.6601 63.1973 32.6601ZM80.3103 32.6601C79.0725 32.6601 77.9536 32.3153 76.9538 31.6256C75.9778 30.9121 75.1922 29.8299 74.5971 28.3792C74.0258 26.9286 73.7401 25.0853 73.7401 22.8498C73.7401 20.7094 74.0139 18.9257 74.5614 17.4988C75.109 16.0481 75.8588 14.9659 76.811 14.2525C77.787 13.5152 78.9058 13.1466 80.1675 13.1466C81.2625 13.1466 82.1909 13.4082 82.9527 13.9314C83.7382 14.4308 84.369 15.2157 84.8452 16.2859C85.3451 17.3323 85.7021 18.6523 85.9164 20.2456H86.2378C86.0949 19.223 85.964 18.2836 85.845 17.4274C85.7498 16.5475 85.6784 15.7508 85.6307 15.0373C85.5831 14.3001 85.5593 13.6341 85.5593 13.0396V7.79553H89.4514L89.38 24.1697L89.4514 32.1963H85.9521L86.2378 26.1318H85.9164C85.6545 27.6301 85.2737 28.8667 84.7738 29.8419C84.2738 30.817 83.6549 31.5305 82.917 31.9823C82.179 32.4341 81.3101 32.6601 80.3103 32.6601ZM81.3458 29.4495C82.0362 29.4495 82.6432 29.2592 83.1669 28.8787C83.6906 28.4982 84.1191 27.9988 84.4524 27.3804C84.8095 26.762 85.0714 26.0961 85.2379 25.3827C85.4284 24.6692 85.5236 23.9676 85.5236 23.2779V22.8855C85.5236 22.3861 85.4641 21.851 85.3451 21.2802C85.2499 20.7094 85.0951 20.1505 84.8809 19.6035C84.6666 19.0327 84.3929 18.5214 84.0596 18.0695C83.7502 17.5939 83.3692 17.2253 82.917 16.9637C82.4885 16.6783 81.9886 16.5356 81.4172 16.5356C80.6554 16.5356 79.9889 16.7972 79.4176 17.3204C78.8701 17.8198 78.4416 18.557 78.1322 19.5322C77.8227 20.5073 77.668 21.6845 77.668 23.0639C77.668 24.3481 77.8108 25.4777 78.0964 26.4529C78.3821 27.4041 78.7987 28.1415 79.3462 28.6646C79.8938 29.1878 80.5603 29.4495 81.3458 29.4495ZM97.0521 37.5117C96.2428 37.5117 95.4215 37.4284 94.5883 37.262C93.779 37.0956 93.0172 36.822 92.303 36.4415C91.6126 36.061 91.0056 35.5853 90.4819 35.0146L92.0174 31.6969C92.6363 32.5293 93.3862 33.1119 94.2669 33.4449C95.1477 33.8016 96.0285 33.98 96.9093 33.98C98.2185 33.98 99.254 33.6827 100.016 33.0882C100.778 32.4936 101.325 31.6732 101.658 30.6267C102.015 29.5565 102.206 28.3316 102.23 26.9523L102.48 23.2066H102.123C102.004 25.014 101.682 26.4648 101.158 27.5587C100.635 28.6527 99.9682 29.4495 99.1589 29.9489C98.3495 30.4246 97.433 30.6624 96.4094 30.6624C95.1716 30.6624 94.1479 30.3294 93.3385 29.6635C92.553 28.9976 91.9579 28.0344 91.5532 26.7739C91.1723 25.4897 90.9818 23.9557 90.9818 22.172V13.6103H94.8382V21.4229C94.8382 23.3969 95.0763 24.8595 95.5524 25.8107C96.0285 26.762 96.7784 27.2377 97.802 27.2377C98.4209 27.2377 98.9684 27.0712 99.4445 26.7383C99.9207 26.4053 100.325 25.9178 100.659 25.2756C101.016 24.6098 101.278 23.8011 101.444 22.8498C101.611 21.8986 101.694 20.8045 101.694 19.5678V13.6103H105.551V26.9523C105.551 27.7609 105.479 28.6527 105.336 29.6278C105.217 30.5791 104.979 31.5185 104.622 32.446C104.289 33.3736 103.801 34.2178 103.158 34.9789C102.539 35.7637 101.73 36.3821 100.73 36.8339C99.7302 37.2857 98.5042 37.5117 97.0521 37.5117ZM107.39 32.1963V8.6517H115.102C116.412 8.6517 117.566 8.7825 118.566 9.04411C119.566 9.30572 120.412 9.69813 121.101 10.2213C121.815 10.7208 122.351 11.3391 122.708 12.0764C123.065 12.8136 123.244 13.6698 123.244 14.6449C123.244 15.5961 123.054 16.4642 122.672 17.2491C122.292 18.0101 121.697 18.6284 120.887 19.1041C120.101 19.5798 119.066 19.8652 117.78 19.9603V20.2813C119.899 20.4003 121.483 20.9591 122.529 21.958C123.601 22.9331 124.136 24.2768 124.136 25.9891C124.136 27.321 123.815 28.4506 123.172 29.3781C122.554 30.3056 121.637 31.0072 120.423 31.4829C119.233 31.9585 117.733 32.1963 115.924 32.1963H107.39ZM111.246 28.9857H115.745C117.245 28.9857 118.364 28.7003 119.102 28.1295C119.864 27.5588 120.244 26.6907 120.244 25.5254C120.244 24.2174 119.78 23.2422 118.852 22.6001C117.948 21.958 116.579 21.6369 114.745 21.6369H111.246V28.9857ZM111.246 18.783H114.817C116.341 18.783 117.471 18.4857 118.209 17.8912C118.971 17.2967 119.351 16.4166 119.351 15.2513C119.351 14.1098 118.983 13.2655 118.245 12.7185C117.507 12.1477 116.364 11.8623 114.817 11.8623H111.246V18.783ZM130.746 32.6601C128.817 32.6601 127.401 31.9466 126.496 30.5197C125.616 29.069 125.175 26.8453 125.175 23.8487V13.6103H129.032V23.6346C129.032 25.6086 129.258 27.0236 129.71 27.8798C130.186 28.736 130.936 29.1641 131.96 29.1641C132.627 29.1641 133.209 28.9857 133.709 28.629C134.234 28.2485 134.673 27.6895 135.03 26.9523C135.387 26.2151 135.65 25.2876 135.816 24.1697C136.007 23.0519 136.102 21.7202 136.102 20.1743V13.6103H139.958V22.8855L139.994 32.1963H136.53L136.887 24.6335H136.602C136.435 26.5599 136.102 28.1176 135.602 29.3068C135.126 30.4721 134.484 31.3282 133.674 31.8753C132.865 32.3984 131.888 32.6601 130.746 32.6601ZM147.858 32.6601C146.621 32.6601 145.502 32.3153 144.502 31.6256C143.527 30.9121 142.741 29.8299 142.145 28.3792C141.574 26.9286 141.288 25.0853 141.288 22.8498C141.288 20.7094 141.563 18.9257 142.109 17.4988C142.657 16.0481 143.407 14.9659 144.359 14.2525C145.335 13.5152 146.455 13.1466 147.715 13.1466C148.811 13.1466 149.74 13.4082 150.501 13.9314C151.286 14.4308 151.918 15.2157 152.393 16.2859C152.893 17.3323 153.25 18.6523 153.464 20.2456H153.786C153.643 19.223 153.512 18.2836 153.393 17.4274C153.298 16.5475 153.227 15.7508 153.179 15.0373C153.132 14.3001 153.107 13.6341 153.107 13.0396V7.79553H156.999L156.928 24.1697L156.999 32.1963H153.5L153.786 26.1318H153.464C153.203 27.6301 152.822 28.8667 152.322 29.8419C151.822 30.817 151.204 31.5305 150.465 31.9823C149.727 32.4341 148.858 32.6601 147.858 32.6601ZM148.894 29.4495C149.585 29.4495 150.192 29.2592 150.715 28.8787C151.239 28.4982 151.668 27.9988 152 27.3804C152.357 26.762 152.62 26.0961 152.786 25.3827C152.977 24.6692 153.072 23.9676 153.072 23.2779V22.8855C153.072 22.3861 153.012 21.851 152.893 21.2802C152.798 20.7094 152.643 20.1505 152.429 19.6035C152.215 19.0327 151.941 18.5214 151.608 18.0695C151.299 17.5939 150.918 17.2253 150.465 16.9637C150.036 16.6783 149.537 16.5356 148.965 16.5356C148.204 16.5356 147.537 16.7972 146.966 17.3204C146.419 17.8198 145.99 18.557 145.68 19.5322C145.371 20.5073 145.216 21.6845 145.216 23.0639C145.216 24.3481 145.359 25.4777 145.644 26.4529C145.93 27.4041 146.347 28.1415 146.894 28.6646C147.442 29.1878 148.108 29.4495 148.894 29.4495ZM164.816 32.6601C163.577 32.6601 162.459 32.3153 161.46 31.6256C160.483 30.9121 159.698 29.8299 159.103 28.3792C158.532 26.9286 158.246 25.0853 158.246 22.8498C158.246 20.7094 158.519 18.9257 159.067 17.4988C159.614 16.0481 160.364 14.9659 161.317 14.2525C162.292 13.5152 163.411 13.1466 164.673 13.1466C165.768 13.1466 166.696 13.4082 167.458 13.9314C168.244 14.4308 168.874 15.2157 169.351 16.2859C169.851 17.3323 170.208 18.6523 170.422 20.2456H170.743C170.601 19.223 170.469 18.2836 170.351 17.4274C170.255 16.5475 170.183 15.7508 170.136 15.0373C170.088 14.3001 170.065 13.6341 170.065 13.0396V7.79553H173.957L173.886 24.1697L173.957 32.1963H170.458L170.743 26.1318H170.422C170.16 27.6301 169.779 28.8667 169.279 29.8419C168.78 30.817 168.16 31.5305 167.423 31.9823C166.684 32.4341 165.816 32.6601 164.816 32.6601ZM165.852 29.4495C166.541 29.4495 167.148 29.2592 167.673 28.8787C168.196 28.4982 168.624 27.9988 168.958 27.3804C169.315 26.762 169.576 26.0961 169.744 25.3827C169.933 24.6692 170.029 23.9676 170.029 23.2779V22.8855C170.029 22.3861 169.969 21.851 169.851 21.2802C169.755 20.7094 169.601 20.1505 169.387 19.6035C169.172 19.0327 168.898 18.5214 168.565 18.0695C168.255 17.5939 167.875 17.2253 167.423 16.9637C166.994 16.6783 166.494 16.5356 165.923 16.5356C165.161 16.5356 164.495 16.7972 163.923 17.3204C163.375 17.8198 162.947 18.557 162.638 19.5322C162.328 20.5073 162.174 21.6845 162.174 23.0639C162.174 24.3481 162.317 25.4777 162.602 26.4529C162.888 27.4041 163.304 28.1415 163.852 28.6646C164.399 29.1878 165.066 29.4495 165.852 29.4495ZM181.557 37.5117C180.748 37.5117 179.927 37.4284 179.093 37.262C178.284 37.0956 177.522 36.822 176.808 36.4415C176.119 36.061 175.512 35.5853 174.987 35.0146L176.523 31.6969C177.142 32.5293 177.892 33.1119 178.772 33.4449C179.654 33.8016 180.534 33.98 181.414 33.98C182.724 33.98 183.76 33.6827 184.521 33.0882C185.283 32.4936 185.831 31.6732 186.164 30.6267C186.521 29.5565 186.711 28.3316 186.735 26.9523L186.985 23.2066H186.628C186.509 25.014 186.188 26.4648 185.664 27.5587C185.14 28.6527 184.474 29.4495 183.664 29.9489C182.855 30.4246 181.939 30.6624 180.915 30.6624C179.677 30.6624 178.654 30.3294 177.844 29.6635C177.058 28.9976 176.463 28.0344 176.058 26.7739C175.678 25.4897 175.487 23.9557 175.487 22.172V13.6103H179.343V21.4229C179.343 23.3969 179.582 24.8595 180.058 25.8107C180.534 26.762 181.284 27.2377 182.307 27.2377C182.926 27.2377 183.474 27.0712 183.95 26.7383C184.426 26.4053 184.831 25.9178 185.164 25.2756C185.521 24.6098 185.783 23.8011 185.949 22.8498C186.117 21.8986 186.199 20.8045 186.199 19.5678V13.6103H190.056V26.9523C190.056 27.7609 189.984 28.6527 189.841 29.6278C189.723 30.5791 189.484 31.5185 189.127 32.446C188.795 33.3736 188.306 34.2178 187.663 34.9789C187.045 35.7637 186.235 36.3821 185.235 36.8339C184.235 37.2857 183.01 37.5117 181.557 37.5117Z" fill="white"/>
<mask id="mask0_2288_661" style="mask-type:luminance" maskUnits="userSpaceOnUse" x="26" y="5" width="167" height="35">
<path d="M192.806 5.44116H26.5432V40.0001H192.806V5.44116Z" fill="white"/>
<path d="M38.2374 32.6602C36.8091 32.6602 35.5356 32.4699 34.4167 32.0894C33.3217 31.7089 32.4052 31.1619 31.6673 30.4484C30.9531 29.735 30.4413 28.8788 30.1318 27.8799C29.8224 26.8573 29.7271 25.7158 29.8462 24.4553L33.4883 23.7775C33.4169 25.0617 33.5717 26.12 33.9525 26.9524C34.3573 27.7848 34.9404 28.4031 35.7022 28.8075C36.4878 29.2118 37.3805 29.4139 38.3803 29.4139C39.2849 29.4139 40.0585 29.2831 40.7013 29.0215C41.3678 28.7598 41.8796 28.3913 42.2367 27.9156C42.5938 27.4399 42.7723 26.8454 42.7723 26.1319C42.7723 25.2282 42.5223 24.5147 42.0224 23.9915C41.5225 23.4445 40.8679 23.0046 40.0585 22.6716C39.2492 22.3386 38.3803 22.0294 37.4519 21.7441C36.5472 21.4587 35.6427 21.1495 34.7381 20.8165C33.8574 20.4836 33.0479 20.0674 32.31 19.568C31.5958 19.0448 31.0245 18.4027 30.596 17.6416C30.1675 16.8805 29.9533 15.9412 29.9533 14.8234C29.9533 13.4915 30.2747 12.3381 30.9174 11.363C31.5601 10.3642 32.4648 9.59123 33.6312 9.04423C34.8215 8.47345 36.2259 8.18807 37.8447 8.18807C39.511 8.18807 40.9512 8.48535 42.1653 9.07991C43.4031 9.65069 44.3315 10.5069 44.9505 11.6484C45.5932 12.79 45.8431 14.1932 45.7003 15.8579L42.0939 16.4287C42.1653 15.6915 42.1176 15.0137 41.951 14.3953C41.7844 13.7769 41.5106 13.2418 41.1297 12.79C40.7489 12.3381 40.2728 11.9933 39.7014 11.7554C39.1301 11.5176 38.4636 11.3987 37.7018 11.3987C36.8925 11.3987 36.1902 11.5295 35.5951 11.7911C35 12.0527 34.5358 12.4213 34.2025 12.897C33.8931 13.3727 33.7383 13.9315 33.7383 14.5736C33.7383 15.3822 33.9763 16.0363 34.4524 16.5357C34.9286 17.0114 35.5594 17.4038 36.3449 17.7129C37.1305 17.9983 37.9755 18.2718 38.8802 18.5334C39.8323 18.8426 40.7607 19.1756 41.6654 19.5323C42.57 19.889 43.3913 20.3409 44.1292 20.8879C44.891 21.4349 45.4861 22.1127 45.9146 22.9213C46.3668 23.7299 46.593 24.7407 46.593 25.9536C46.593 27.3568 46.2597 28.5577 45.5932 29.5566C44.9267 30.5555 43.9626 31.3284 42.7009 31.8754C41.4631 32.3986 39.9752 32.6602 38.2374 32.6602ZM53.8589 32.5175C52.1687 32.5175 50.8833 32.0538 50.0025 31.1262C49.1218 30.175 48.6813 28.7718 48.6813 26.9167V16.7497H46.646V14.0029H47.3244C48.2052 13.9315 48.8361 13.6699 49.2169 13.218C49.5978 12.7662 49.824 12.0765 49.8954 11.149L50.0382 9.65069H52.4663V13.6105H56.6441V16.8211H52.4663V26.453C52.4663 27.3568 52.6568 28.0107 53.0376 28.415C53.4185 28.8194 53.9303 29.0215 54.5731 29.0215C54.9064 29.0215 55.2515 28.9739 55.6086 28.8788C55.9894 28.7599 56.3347 28.5934 56.6441 28.3794V32.0538C56.1442 32.2202 55.6562 32.3391 55.1801 32.4105C54.7278 32.4818 54.2874 32.5175 53.8589 32.5175ZM63.1973 32.6602C61.2691 32.6602 59.8526 31.9467 58.9481 30.5198C58.0673 29.0691 57.6268 26.8454 57.6268 23.8488V13.6105H61.4834V23.6348C61.4834 25.6087 61.7094 27.0238 62.1617 27.8799C62.6378 28.7361 63.3877 29.1642 64.4114 29.1642C65.0779 29.1642 65.6611 28.9858 66.161 28.6291C66.6847 28.2486 67.1252 27.6896 67.4822 26.9524C67.8393 26.2152 68.1011 25.2877 68.2678 24.1699C68.4582 23.0521 68.5535 21.7203 68.5535 20.1744V13.6105H72.4099V22.8856L72.4456 32.1965H68.9819L69.339 24.6336H69.0534C68.8866 26.56 68.5534 28.1177 68.0535 29.3069C67.5774 30.4722 66.9347 31.3284 66.1252 31.8754C65.3159 32.3986 64.34 32.6602 63.1973 32.6602ZM80.3104 32.6602C79.0726 32.6602 77.9537 32.3154 76.9539 31.6257C75.9778 30.9122 75.1923 29.8301 74.5972 28.3794C74.0258 26.9287 73.7402 25.0855 73.7402 22.8499C73.7402 20.7095 74.0139 18.9258 74.5615 17.4989C75.109 16.0482 75.8589 14.9661 76.811 14.2526C77.7871 13.5154 78.9058 13.1467 80.1675 13.1467C81.2625 13.1467 82.1909 13.4083 82.9527 13.9315C83.7383 14.431 84.3691 15.2158 84.8452 16.286C85.3451 17.3324 85.7022 18.6524 85.9165 20.2458H86.2378C86.095 19.2232 85.9641 18.2837 85.845 17.4275C85.7499 16.5476 85.6784 15.7509 85.6308 15.0374C85.5831 14.3002 85.5594 13.6342 85.5594 13.0397V7.79565H89.4515L89.3801 24.1699L89.4515 32.1965H85.9522L86.2378 26.1319H85.9165C85.6546 27.6302 85.2737 28.8669 84.7738 29.842C84.2739 30.8171 83.6549 31.5306 82.917 31.9824C82.1791 32.4342 81.3102 32.6602 80.3104 32.6602ZM81.3459 29.4496C82.0363 29.4496 82.6433 29.2593 83.167 28.8788C83.6906 28.4983 84.1191 27.9989 84.4524 27.3805C84.8095 26.7621 85.0714 26.0963 85.238 25.3828C85.4285 24.6693 85.5237 23.9678 85.5237 23.278V22.8856C85.5237 22.3862 85.4642 21.8511 85.3451 21.2803C85.25 20.7095 85.0952 20.1507 84.8809 19.6036C84.6667 19.0329 84.393 18.5215 84.0597 18.0697C83.7502 17.594 83.3693 17.2254 82.917 16.9638C82.4885 16.6784 81.9886 16.5357 81.4173 16.5357C80.6555 16.5357 79.989 16.7973 79.4177 17.3205C78.8701 17.82 78.4416 18.5572 78.1322 19.5323C77.8228 20.5074 77.668 21.6846 77.668 23.064C77.668 24.3482 77.8108 25.4779 78.0965 26.453C78.3822 27.4042 78.7987 28.1416 79.3463 28.6648C79.8938 29.1879 80.5603 29.4496 81.3459 29.4496ZM97.0522 37.5118C96.2428 37.5118 95.4216 37.4286 94.5884 37.2621C93.779 37.0957 93.0172 36.8221 92.3031 36.4416C91.6127 36.0611 91.0057 35.5855 90.482 35.0147L92.0174 31.697C92.6364 32.5294 93.3862 33.112 94.267 33.445C95.1477 33.8018 96.0286 33.9801 96.9093 33.9801C98.2186 33.9801 99.2541 33.6828 100.016 33.0883C100.778 32.4938 101.325 31.6733 101.658 30.6268C102.016 29.5566 102.206 28.3318 102.23 26.9524L102.48 23.2067H102.123C102.004 25.0141 101.682 26.4649 101.159 27.5589C100.635 28.6528 99.9682 29.4496 99.1589 29.949C98.3496 30.4247 97.433 30.6625 96.4094 30.6625C95.1716 30.6625 94.1479 30.3295 93.3386 29.6636C92.553 28.9977 91.9579 28.0346 91.5532 26.7741C91.1724 25.4898 90.9819 23.9558 90.9819 22.1721V13.6105H94.8383V21.423C94.8383 23.397 95.0763 24.8596 95.5525 25.8109C96.0286 26.7621 96.7785 27.2378 97.802 27.2378C98.421 27.2378 98.9684 27.0714 99.4446 26.7384C99.9207 26.4054 100.325 25.9179 100.659 25.2758C101.016 24.6099 101.278 23.8012 101.444 22.8499C101.611 21.8987 101.694 20.8046 101.694 19.568V13.6105H105.551V26.9524C105.551 27.761 105.479 28.6528 105.336 29.6279C105.217 30.5792 104.979 31.5187 104.622 32.4462C104.289 33.3737 103.801 34.2179 103.158 34.979C102.539 35.7638 101.73 36.3822 100.73 36.834C99.7302 37.2859 98.5042 37.5118 97.0522 37.5118ZM107.39 32.1965V8.65182H115.102C116.412 8.65182 117.566 8.78262 118.566 9.04423C119.566 9.30584 120.412 9.69826 121.101 10.2215C121.815 10.7209 122.351 11.3392 122.708 12.0765C123.065 12.8138 123.244 13.6699 123.244 14.645C123.244 15.5963 123.054 16.4644 122.672 17.2492C122.292 18.0102 121.697 18.6285 120.887 19.1042C120.101 19.5799 119.066 19.8653 117.78 19.9604V20.2814C119.899 20.4004 121.483 20.9592 122.529 21.9581C123.601 22.9332 124.136 24.2769 124.136 25.9892C124.136 27.3211 123.815 28.4507 123.172 29.3782C122.554 30.3057 121.637 31.0073 120.423 31.483C119.233 31.9587 117.734 32.1965 115.924 32.1965H107.39ZM111.246 28.9858H115.745C117.245 28.9858 118.364 28.7004 119.102 28.1297C119.864 27.5589 120.244 26.6908 120.244 25.5255C120.244 24.2175 119.78 23.2424 118.852 22.6002C117.948 21.9581 116.579 21.637 114.745 21.637H111.246V28.9858ZM111.246 18.7831H114.817C116.341 18.7831 117.471 18.4858 118.209 17.8913C118.971 17.2968 119.352 16.4167 119.352 15.2514C119.352 14.1099 118.983 13.2656 118.245 12.7186C117.507 12.1478 116.364 11.8625 114.817 11.8625H111.246V18.7831ZM130.746 32.6602C128.817 32.6602 127.401 31.9467 126.496 30.5198C125.616 29.0691 125.175 26.8454 125.175 23.8488V13.6105H129.032V23.6348C129.032 25.6087 129.258 27.0238 129.71 27.8799C130.187 28.7361 130.936 29.1642 131.96 29.1642C132.627 29.1642 133.209 28.9858 133.709 28.6291C134.234 28.2486 134.673 27.6896 135.03 26.9524C135.388 26.2152 135.65 25.2877 135.816 24.1699C136.007 23.0521 136.102 21.7203 136.102 20.1744V13.6105H139.958V22.8856L139.994 32.1965H136.53L136.887 24.6336H136.602C136.435 26.56 136.102 28.1177 135.602 29.3069C135.126 30.4722 134.484 31.3284 133.674 31.8754C132.865 32.3986 131.888 32.6602 130.746 32.6602ZM147.858 32.6602C146.621 32.6602 145.502 32.3154 144.502 31.6257C143.527 30.9122 142.741 29.8301 142.145 28.3794C141.574 26.9287 141.288 25.0855 141.288 22.8499C141.288 20.7095 141.563 18.9258 142.109 17.4989C142.657 16.0482 143.407 14.9661 144.359 14.2526C145.335 13.5154 146.455 13.1467 147.716 13.1467C148.811 13.1467 149.74 13.4083 150.501 13.9315C151.286 14.431 151.918 15.2158 152.393 16.286C152.893 17.3324 153.25 18.6524 153.464 20.2458H153.786C153.643 19.2232 153.512 18.2837 153.393 17.4275C153.298 16.5476 153.227 15.7509 153.179 15.0374C153.132 14.3002 153.107 13.6342 153.107 13.0397V7.79565H157L156.928 24.1699L157 32.1965H153.5L153.786 26.1319H153.464C153.203 27.6302 152.822 28.8669 152.322 29.842C151.822 30.8171 151.204 31.5306 150.465 31.9824C149.727 32.4342 148.858 32.6602 147.858 32.6602ZM148.894 29.4496C149.585 29.4496 150.192 29.2593 150.715 28.8788C151.239 28.4983 151.668 27.9989 152 27.3805C152.358 26.7621 152.62 26.0963 152.786 25.3828C152.977 24.6693 153.072 23.9678 153.072 23.278V22.8856C153.072 22.3862 153.013 21.8511 152.893 21.2803C152.798 20.7095 152.643 20.1507 152.429 19.6036C152.215 19.0329 151.941 18.5215 151.608 18.0697C151.299 17.594 150.918 17.2254 150.465 16.9638C150.037 16.6784 149.537 16.5357 148.965 16.5357C148.204 16.5357 147.537 16.7973 146.966 17.3205C146.419 17.82 145.99 18.5572 145.68 19.5323C145.371 20.5074 145.216 21.6846 145.216 23.064C145.216 24.3482 145.359 25.4779 145.645 26.453C145.93 27.4042 146.348 28.1416 146.894 28.6648C147.442 29.1879 148.108 29.4496 148.894 29.4496ZM164.816 32.6602C163.577 32.6602 162.459 32.3154 161.46 31.6257C160.483 30.9122 159.698 29.8301 159.103 28.3794C158.532 26.9287 158.246 25.0855 158.246 22.8499C158.246 20.7095 158.519 18.9258 159.067 17.4989C159.614 16.0482 160.364 14.9661 161.317 14.2526C162.292 13.5154 163.411 13.1467 164.673 13.1467C165.768 13.1467 166.696 13.4083 167.458 13.9315C168.244 14.431 168.874 15.2158 169.351 16.286C169.851 17.3324 170.208 18.6524 170.422 20.2458H170.744C170.601 19.2232 170.469 18.2837 170.351 17.4275C170.255 16.5476 170.183 15.7509 170.137 15.0374C170.089 14.3002 170.065 13.6342 170.065 13.0397V7.79565H173.957L173.886 24.1699L173.957 32.1965H170.458L170.744 26.1319H170.422C170.16 27.6302 169.779 28.8669 169.28 29.842C168.78 30.8171 168.16 31.5306 167.423 31.9824C166.684 32.4342 165.816 32.6602 164.816 32.6602ZM165.852 29.4496C166.541 29.4496 167.148 29.2593 167.673 28.8788C168.196 28.4983 168.625 27.9989 168.958 27.3805C169.315 26.7621 169.576 26.0963 169.744 25.3828C169.933 24.6693 170.029 23.9678 170.029 23.278V22.8856C170.029 22.3862 169.969 21.8511 169.851 21.2803C169.755 20.7095 169.601 20.1507 169.387 19.6036C169.172 19.0329 168.898 18.5215 168.565 18.0697C168.255 17.594 167.875 17.2254 167.423 16.9638C166.994 16.6784 166.494 16.5357 165.923 16.5357C165.161 16.5357 164.495 16.7973 163.923 17.3205C163.376 17.82 162.947 18.5572 162.638 19.5323C162.328 20.5074 162.174 21.6846 162.174 23.064C162.174 24.3482 162.317 25.4779 162.602 26.453C162.888 27.4042 163.304 28.1416 163.852 28.6648C164.399 29.1879 165.066 29.4496 165.852 29.4496ZM181.557 37.5118C180.748 37.5118 179.927 37.4286 179.094 37.2621C178.285 37.0957 177.522 36.8221 176.808 36.4416C176.119 36.0611 175.512 35.5855 174.987 35.0147L176.523 31.697C177.142 32.5294 177.892 33.112 178.772 33.445C179.654 33.8018 180.534 33.9801 181.415 33.9801C182.725 33.9801 183.76 33.6828 184.521 33.0883C185.283 32.4938 185.831 31.6733 186.164 30.6268C186.521 29.5566 186.712 28.3318 186.735 26.9524L186.985 23.2067H186.628C186.51 25.0141 186.188 26.4649 185.664 27.5589C185.14 28.6528 184.474 29.4496 183.664 29.949C182.855 30.4247 181.939 30.6625 180.915 30.6625C179.677 30.6625 178.654 30.3295 177.844 29.6636C177.058 28.9977 176.463 28.0346 176.058 26.7741C175.678 25.4898 175.487 23.9558 175.487 22.1721V13.6105H179.343V21.423C179.343 23.397 179.582 24.8596 180.058 25.8109C180.534 26.7621 181.284 27.2378 182.307 27.2378C182.927 27.2378 183.474 27.0714 183.95 26.7384C184.426 26.4054 184.831 25.9179 185.164 25.2758C185.521 24.6099 185.783 23.8012 185.949 22.8499C186.117 21.8987 186.199 20.8046 186.199 19.568V13.6105H190.056V26.9524C190.056 27.761 189.984 28.6528 189.841 29.6279C189.723 30.5792 189.484 31.5187 189.127 32.4462C188.795 33.3737 188.306 34.2179 187.663 34.979C187.045 35.7638 186.235 36.3822 185.235 36.834C184.235 37.2859 183.01 37.5118 181.557 37.5118Z" fill="black"/>
</mask>
<g mask="url(#mask0_2288_661)">
<path d="M34.4167 32.0894L33.6835 34.1953L33.6975 34.2001L34.4167 32.0894ZM31.6672 30.4484L30.0892 32.025L30.1021 32.0379L30.1153 32.0506L31.6672 30.4484ZM30.1318 27.8799L27.9955 28.5252L27.9999 28.5392L30.1318 27.8799ZM29.8462 24.4552L29.4375 22.2633L27.7824 22.5713L27.6243 24.2459L29.8462 24.4552ZM33.4883 23.7774L35.7166 23.9012L35.8743 21.0655L33.0797 21.5855L33.4883 23.7774ZM33.9525 26.9524L31.9229 27.8794L31.9337 27.9031L31.9451 27.9265L33.9525 26.9524ZM35.7022 28.8074L34.6552 30.7764L34.6677 30.7831L34.6802 30.7896L35.7022 28.8074ZM40.7012 29.0215L39.8852 26.9463L39.8722 26.9514L39.8592 26.9566L40.7012 29.0215ZM42.0224 23.9915L40.3743 25.4948L40.391 25.5131L40.4081 25.531L42.0224 23.9915ZM37.4519 21.744L36.7798 23.8702L36.7877 23.8727L36.7955 23.8751L37.4519 21.744ZM34.7381 20.8165L33.9483 22.9019L33.9574 22.9053L33.9666 22.9087L34.7381 20.8165ZM32.31 19.568L30.9902 21.3659L31.0238 21.3905L31.0583 21.4138L32.31 19.568ZM30.9174 11.363L32.7812 12.5893L32.788 12.579L32.7947 12.5687L30.9174 11.363ZM33.6312 9.04422L34.5794 11.0625L34.5882 11.0584L34.5969 11.0543L33.6312 9.04422ZM42.1652 9.0799L41.183 11.0819L41.2064 11.0934L41.23 11.1043L42.1652 9.0799ZM44.9504 11.6484L42.9881 12.7103L42.9966 12.726L43.0053 12.7415L44.9504 11.6484ZM45.7003 15.8579L46.0494 18.0601L47.7747 17.7871L47.9239 16.0483L45.7003 15.8579ZM42.0938 16.4287L39.8725 16.214L39.5948 19.0816L42.443 18.6308L42.0938 16.4287ZM34.2025 12.897L32.3741 11.6184L32.3522 11.6498L32.3313 11.6819L34.2025 12.897ZM34.4524 16.5357L32.8363 18.0733L32.8551 18.0931L32.8744 18.1122L34.4524 16.5357ZM36.3449 17.7129L35.527 19.7873L35.5544 19.7982L35.5822 19.8083L36.3449 17.7129ZM38.8802 18.5334L39.57 16.4129L39.5355 16.4018L39.5007 16.3918L38.8802 18.5334ZM44.1292 20.8879L42.7994 22.6785L42.813 22.6885L42.8266 22.6983L44.1292 20.8879ZM45.9145 22.9213L43.9421 23.9645L43.954 23.9868L43.9664 24.009L45.9145 22.9213ZM42.7009 31.8754L43.5704 33.9287L43.5799 33.9248L43.5893 33.9207L42.7009 31.8754ZM38.2374 30.4306C37.0044 30.4306 35.9807 30.266 35.1359 29.9788L33.6975 34.2001C35.0905 34.6739 36.6138 34.8898 38.2374 34.8898V30.4306ZM35.1498 29.9836C34.3215 29.6957 33.6958 29.307 33.2192 28.8462L30.1153 32.0506C31.1147 33.0169 32.3217 33.722 33.6835 34.1953L35.1498 29.9836ZM33.2453 28.8719C32.7972 28.4242 32.47 27.8864 32.2638 27.2206L27.9999 28.5392C28.4126 29.8712 29.109 31.0459 30.0892 32.025L33.2453 28.8719ZM32.268 27.2347C32.0562 26.5349 31.9712 25.6897 32.0681 24.6647L27.6243 24.2459C27.483 25.7418 27.5883 27.1797 27.9955 28.5252L32.268 27.2347ZM30.2548 26.6472L33.8969 25.9694L33.0797 21.5855L29.4375 22.2633L30.2548 26.6472ZM31.2601 23.6538C31.1763 25.1614 31.3429 26.6121 31.9229 27.8794L35.9822 26.0254C35.8004 25.628 35.6576 24.9622 35.7166 23.9012L31.2601 23.6538ZM31.9451 27.9265C32.5402 29.1506 33.4444 30.1338 34.6552 30.7764L36.7492 26.8385C36.4365 26.6725 36.1742 26.419 35.9599 25.9783L31.9451 27.9265ZM34.6802 30.7896C35.8212 31.3768 37.072 31.6435 38.3803 31.6435V27.1843C37.6889 27.1843 37.1543 27.0467 36.7242 26.8254L34.6802 30.7896ZM38.3803 31.6435C39.4902 31.6435 40.5655 31.4843 41.5433 31.0863L39.8592 26.9566C39.5515 27.0819 39.0794 27.1843 38.3803 27.1843V31.6435ZM41.5173 31.0967C42.4903 30.7148 43.3703 30.1217 44.022 29.2534L40.4513 26.5778C40.3889 26.6609 40.2453 26.8049 39.8852 26.9463L41.5173 31.0967ZM44.022 29.2534C44.7232 28.3193 45.004 27.2285 45.004 26.1319H40.5406C40.5406 26.4622 40.4642 26.5607 40.4513 26.5778L44.022 29.2534ZM45.004 26.1319C45.004 24.8049 44.6257 23.4872 43.6367 22.4521L40.4081 25.531C40.4189 25.5423 40.5406 25.6515 40.5406 26.1319H45.004ZM43.6705 22.4882C42.9124 21.6587 41.9673 21.0455 40.9082 20.61L39.2088 24.7333C39.7685 24.9635 40.1326 25.2304 40.3743 25.4948L43.6705 22.4882ZM40.9082 20.61C40.029 20.2482 39.0951 19.9164 38.1082 19.6131L36.7955 23.8751C37.6654 24.1424 38.4692 24.4291 39.2088 24.7333L40.9082 20.61ZM38.1239 19.6179C37.2532 19.3433 36.3819 19.0454 35.5096 18.7244L33.9666 22.9087C34.9036 23.2535 35.8412 23.5741 36.7798 23.8702L38.1239 19.6179ZM35.5279 18.7312C34.8007 18.4564 34.1476 18.1186 33.5616 17.7221L31.0583 21.4138C31.9482 22.0162 32.9139 22.5108 33.9483 22.9019L35.5279 18.7312ZM33.6297 17.77C33.1684 17.432 32.8117 17.029 32.5412 16.5485L28.6508 18.7346C29.2373 19.7762 30.0232 20.6574 30.9902 21.3659L33.6297 17.77ZM32.5412 16.5485C32.346 16.202 32.185 15.6631 32.185 14.8234H27.7216C27.7216 16.2191 27.989 17.5591 28.6508 18.7346L32.5412 16.5485ZM32.185 14.8234C32.185 13.8643 32.4111 13.1509 32.7812 12.5893L29.0536 10.1368C28.1382 11.5253 27.7216 13.1188 27.7216 14.8234H32.185ZM32.7947 12.5687C33.1913 11.9522 33.7598 11.4469 34.5794 11.0625L32.6829 7.02591C31.1697 7.73552 29.929 8.77607 29.0401 10.1573L32.7947 12.5687ZM34.5969 11.0543C35.4255 10.657 36.4861 10.4177 37.8446 10.4177V5.95845C35.9656 5.95845 34.2174 6.28994 32.6654 7.03418L34.5969 11.0543ZM37.8446 10.4177C39.2481 10.4177 40.3375 10.6678 41.183 11.0819L43.1475 7.07789C41.5649 6.30285 39.774 5.95845 37.8446 5.95845V10.4177ZM41.23 11.1043C42.0534 11.484 42.6104 12.0136 42.9881 12.7103L46.9128 10.5865C46.0527 9.00007 44.7527 7.81737 43.1004 7.05551L41.23 11.1043ZM43.0053 12.7415C43.3748 13.3979 43.5918 14.3261 43.4767 15.6675L47.9239 16.0483C48.0945 14.0602 47.8115 12.1821 46.8956 10.5553L43.0053 12.7415ZM45.3511 13.6557L41.7447 14.2265L42.443 18.6308L46.0494 18.0601L45.3511 13.6557ZM44.3152 16.6435C44.4085 15.6807 44.3523 14.7298 44.106 13.8157L39.7961 14.975C39.883 15.2975 39.922 15.7022 39.8725 16.214L44.3152 16.6435ZM44.106 13.8157C43.8618 12.9093 43.445 12.0754 42.8368 11.3538L39.4227 14.2262C39.5761 14.4082 39.707 14.6445 39.7961 14.975L44.106 13.8157ZM42.8368 11.3538C42.2159 10.6172 41.4437 10.0653 40.5597 9.69733L38.8431 13.8136C39.1018 13.9213 39.2818 14.059 39.4227 14.2262L42.8368 11.3538ZM40.5597 9.69733C39.6615 9.32342 38.6922 9.16908 37.7018 9.16908V13.6283C38.235 13.6283 38.5987 13.7118 38.8431 13.8136L40.5597 9.69733ZM37.7018 9.16908C36.6565 9.16908 35.635 9.33766 34.6962 9.75031L36.4939 13.8318C36.7454 13.7214 37.1284 13.6283 37.7018 13.6283V9.16908ZM34.6962 9.75031C33.773 10.1562 32.9687 10.77 32.3741 11.6184L36.0308 14.1755C36.1029 14.0728 36.227 13.9492 36.4939 13.8318L34.6962 9.75031ZM32.3313 11.6819C31.7565 12.5654 31.5066 13.5588 31.5066 14.5736H35.97C35.97 14.3043 36.0296 14.1799 36.0737 14.1121L32.3313 11.6819ZM31.5066 14.5736C31.5066 15.8492 31.8977 17.0887 32.8363 18.0733L36.0685 14.998C36.0549 14.9839 35.97 14.9153 35.97 14.5736H31.5066ZM32.8744 18.1122C33.6145 18.8517 34.5265 19.3936 35.527 19.7873L37.1628 15.6385C36.5922 15.4139 36.2426 15.1711 36.0305 14.9591L32.8744 18.1122ZM35.5822 19.8083C36.42 20.1126 37.313 20.4014 38.2596 20.6751L39.5007 16.3918C38.6381 16.1423 37.841 15.884 37.1076 15.6175L35.5822 19.8083ZM38.1903 20.6539C39.1002 20.9493 39.9853 21.2668 40.846 21.6061L42.4847 17.4584C41.5362 17.0844 40.5645 16.7359 39.57 16.4129L38.1903 20.6539ZM40.846 21.6061C41.5793 21.8954 42.2273 22.2544 42.7994 22.6785L45.4589 19.0973C44.5551 18.4274 43.5605 17.8827 42.4847 17.4584L40.846 21.6061ZM42.8266 22.6983C43.3159 23.0497 43.6788 23.4674 43.9421 23.9645L47.8869 21.878C47.2933 20.758 46.4659 19.8201 45.4317 19.0774L42.8266 22.6983ZM43.9664 24.009C44.184 24.3978 44.3613 25.0072 44.3613 25.9535H48.8247C48.8247 24.4742 48.5497 23.062 47.8627 21.8337L43.9664 24.009ZM44.3613 25.9535C44.3613 26.9925 44.1193 27.7457 43.7363 28.3198L47.4501 30.7933C48.4001 29.3697 48.8247 27.7208 48.8247 25.9535H44.3613ZM43.7363 28.3198C43.341 28.9122 42.7386 29.4285 41.8124 29.83L43.5893 33.9207C45.1864 33.2282 46.5123 32.1988 47.4501 30.7933L43.7363 28.3198ZM41.8313 29.822C40.9363 30.2003 39.7601 30.4306 38.2374 30.4306V34.8898C40.1903 34.8898 41.9896 34.5969 43.5704 33.9287L41.8313 29.822ZM50.0025 31.1262L48.3642 32.6402L48.3738 32.6506L48.3835 32.6608L50.0025 31.1262ZM48.6813 16.7497H50.913V14.5201H48.6813V16.7497ZM46.646 16.7497H44.4143V18.9793H46.646V16.7497ZM46.646 14.0029V11.7733H44.4143V14.0029H46.646ZM47.3244 14.0029V16.2325H47.4147L47.5047 16.2252L47.3244 14.0029ZM49.8954 11.149L47.6737 10.9376L47.6718 10.9578L47.6702 10.978L49.8954 11.149ZM50.0382 9.65068V7.42107H48.0089L47.8165 9.43929L50.0382 9.65068ZM52.4663 9.65068H54.698V7.42107H52.4663V9.65068ZM52.4663 13.6104H50.2346V15.8401H52.4663V13.6104ZM56.6441 13.6104H58.8758V11.3809H56.6441V13.6104ZM56.6441 16.8211V19.0507H58.8758V16.8211H56.6441ZM52.4663 16.8211V14.5915H50.2346V16.8211H52.4663ZM55.6086 28.8788L56.1836 31.0331L56.2292 31.021L56.2743 31.0069L55.6086 28.8788ZM56.6441 28.3794H58.8758V24.124L55.3738 26.5462L56.6441 28.3794ZM56.6441 32.0537L57.3499 34.169L58.8758 33.6607V32.0537H56.6441ZM55.1801 32.4105L54.849 30.2055L54.8405 30.2069L54.832 30.2082L55.1801 32.4105ZM53.8589 30.2879C52.5758 30.2879 51.9579 29.9459 51.6215 29.5917L48.3835 32.6608C49.8087 34.1616 51.7618 34.7471 53.8589 34.7471V30.2879ZM51.6408 29.6122C51.2786 29.221 50.913 28.4514 50.913 26.9167H46.4496C46.4496 29.0922 46.9648 31.1288 48.3642 32.6402L51.6408 29.6122ZM50.913 26.9167V16.7497H46.4496V26.9167H50.913ZM48.6813 14.5201H46.646V18.9793H48.6813V14.5201ZM48.8777 16.7497V14.0029H44.4143V16.7497H48.8777ZM46.646 16.2325H47.3244V11.7733H46.646V16.2325ZM47.5047 16.2252C48.6882 16.1293 50.0055 15.744 50.924 14.6542L47.5099 11.7819C47.5826 11.6956 47.6397 11.6785 47.6025 11.6939C47.5548 11.7137 47.4167 11.7585 47.1441 11.7806L47.5047 16.2252ZM50.924 14.6542C51.7342 13.6931 52.0323 12.4648 52.1205 11.32L47.6702 10.978C47.6446 11.311 47.5958 11.5322 47.5514 11.6678C47.5076 11.8013 47.4792 11.8183 47.5099 11.7819L50.924 14.6542ZM52.117 11.3604L52.2599 9.86207L47.8165 9.43929L47.6737 10.9376L52.117 11.3604ZM50.0382 11.8803H52.4663V7.42107H50.0382V11.8803ZM50.2346 9.65068V13.6104H54.698V9.65068H50.2346ZM52.4663 15.8401H56.6441V11.3809H52.4663V15.8401ZM54.4124 13.6104V16.8211H58.8758V13.6104H54.4124ZM56.6441 14.5915H52.4663V19.0507H56.6441V14.5915ZM50.2346 16.8211V26.453H54.698V16.8211H50.2346ZM50.2346 26.453C50.2346 27.5871 50.4598 28.9317 51.4125 29.9431L54.6628 26.887C54.7629 26.9932 54.7707 27.0627 54.752 26.9986C54.7314 26.9275 54.698 26.7584 54.698 26.453H50.2346ZM51.4125 29.9431C52.2822 30.8664 53.4203 31.2511 54.573 31.2511V26.7919C54.4862 26.7919 54.4824 26.7786 54.5276 26.7964C54.5495 26.805 54.5758 26.8183 54.6027 26.8367C54.6296 26.8549 54.6498 26.8731 54.6628 26.887L51.4125 29.9431ZM54.573 31.2511C55.1203 31.2511 55.6591 31.1728 56.1836 31.0331L55.0336 26.7244C54.8439 26.775 54.6924 26.7919 54.573 26.7919V31.2511ZM56.2743 31.0069C56.8574 30.8248 57.4086 30.5624 57.9144 30.2125L55.3738 26.5462C55.2606 26.6244 55.1215 26.6949 54.943 26.7507L56.2743 31.0069ZM54.4124 28.3794V32.0537H58.8758V28.3794H54.4124ZM55.9383 29.9385C55.5492 30.0682 55.1865 30.155 54.849 30.2055L55.5112 34.6155C56.1258 34.5234 56.7392 34.3723 57.3499 34.169L55.9383 29.9385ZM54.832 30.2082C54.487 30.2626 54.1632 30.2879 53.8589 30.2879V34.7471C54.4116 34.7471 54.9685 34.7011 55.5281 34.6128L54.832 30.2082ZM58.9481 30.5198L57.0399 31.676L57.0512 31.6946L57.0626 31.7127L58.9481 30.5198ZM57.6269 13.6104V11.3809H55.3952V13.6104H57.6269ZM61.4833 13.6104H63.7151V11.3809H61.4833V13.6104ZM62.1617 27.8799L60.1881 28.9206L60.1992 28.9418L60.2108 28.9627L62.1617 27.8799ZM66.1609 28.6291L67.4581 30.4434L67.4659 30.4378L67.4736 30.4323L66.1609 28.6291ZM68.2678 24.1699L66.0676 23.7957L66.0637 23.8186L66.0604 23.8414L68.2678 24.1699ZM68.5534 13.6104V11.3809H66.3217V13.6104H68.5534ZM72.4099 13.6104H74.6416V11.3809H72.4099V13.6104ZM72.4099 22.8856H70.178L70.1781 22.8942L72.4099 22.8856ZM72.4454 32.1964V34.426H74.6858L74.6772 32.1879L72.4454 32.1964ZM68.9818 32.1964L66.7527 32.0914L66.6424 34.426H68.9818V32.1964ZM69.3389 24.6336L71.5682 24.7386L71.6784 22.404H69.3389V24.6336ZM69.0533 24.6336V22.404H67.0061L66.8299 24.4416L69.0533 24.6336ZM68.0534 29.3069L65.9959 28.4435L65.9915 28.4539L65.9873 28.4643L68.0534 29.3069ZM66.1253 31.8754L67.3377 33.7474L67.3568 33.7349L67.3758 33.7222L66.1253 31.8754ZM63.1973 30.4306C61.9072 30.4306 61.2654 30.0082 60.8335 29.3268L57.0626 31.7127C58.4398 33.8853 60.6309 34.8898 63.1973 34.8898V30.4306ZM60.8562 29.3635C60.2936 28.437 59.8587 26.7089 59.8587 23.8488H55.3952C55.3952 26.9819 55.8409 29.7012 57.0399 31.676L60.8562 29.3635ZM59.8587 23.8488V13.6104H55.3952V23.8488H59.8587ZM57.6269 15.8401H61.4833V11.3809H57.6269V15.8401ZM59.2516 13.6104V23.6348H63.7151V13.6104H59.2516ZM59.2516 23.6348C59.2516 25.6688 59.4661 27.5542 60.1881 28.9206L64.1354 26.8393C63.9527 26.4934 63.7151 25.5485 63.7151 23.6348H59.2516ZM60.2108 28.9627C60.6196 29.6976 61.1992 30.3367 61.974 30.779C62.7437 31.2184 63.5834 31.3938 64.4114 31.3938V26.9346C64.2156 26.9346 64.1686 26.8959 64.1884 26.9073C64.1939 26.9104 64.1936 26.9118 64.1852 26.903C64.1756 26.893 64.1489 26.8626 64.1126 26.7971L60.2108 28.9627ZM64.4114 31.3938C65.5013 31.3938 66.5472 31.0935 67.4581 30.4434L64.8638 26.8147C64.7749 26.8782 64.6544 26.9346 64.4114 26.9346V31.3938ZM67.4736 30.4323C68.3631 29.7859 69.0156 28.9052 69.4911 27.9235L65.4732 25.9813C65.2345 26.474 65.0062 26.7112 64.8483 26.8259L67.4736 30.4323ZM69.4911 27.9235C69.9758 26.9226 70.2868 25.7609 70.4751 24.4983L66.0604 23.8414C65.9153 24.8143 65.7026 25.5076 65.4732 25.9813L69.4911 27.9235ZM70.4678 24.544C70.6853 23.2673 70.7852 21.8039 70.7852 20.1744H66.3217C66.3217 21.6367 66.231 22.8369 66.0676 23.7957L70.4678 24.544ZM70.7852 20.1744V13.6104H66.3217V20.1744H70.7852ZM68.5534 15.8401H72.4099V11.3809H68.5534V15.8401ZM70.1781 13.6104L70.178 22.8856H74.6416V13.6104H70.1781ZM70.1781 22.8942L70.2138 32.205L74.6772 32.1879L74.6415 22.877L70.1781 22.8942ZM72.4454 29.9668H68.9818V34.426H72.4454V29.9668ZM71.2111 32.3015L71.5682 24.7386L67.1097 24.5286L66.7527 32.0914L71.2111 32.3015ZM69.3389 22.404H69.0533V26.8632H69.3389V22.404ZM66.8299 24.4416C66.6742 26.2403 66.3729 27.5465 65.9959 28.4435L70.1111 30.1703C70.7338 28.689 71.099 26.8797 71.2767 24.8256L66.8299 24.4416ZM65.9873 28.4643C65.63 29.3388 65.2266 29.7909 64.8748 30.0286L67.3758 33.7222C68.6427 32.8659 69.5248 31.6057 70.1197 30.1494L65.9873 28.4643ZM64.9128 30.0035C64.5271 30.2529 63.9907 30.4306 63.1973 30.4306V34.8898C64.6891 34.8898 66.1047 34.5443 67.3377 33.7474L64.9128 30.0035ZM76.9539 31.6257L75.636 33.4251L75.6607 33.443L75.6858 33.4604L76.9539 31.6257ZM74.5972 28.3794L72.5204 29.1957L72.5261 29.2103L72.5321 29.2249L74.5972 28.3794ZM74.5615 17.4989L76.6453 18.297L76.6497 18.2855L74.5615 17.4989ZM76.811 14.2526L78.1501 16.0363L78.157 16.031L76.811 14.2526ZM82.9527 13.9315L81.6883 15.7688L81.721 15.7912L81.7545 15.8125L82.9527 13.9315ZM84.8452 16.286L82.8059 17.1915L82.8181 17.2191L82.8311 17.2464L84.8452 16.286ZM85.9164 20.2458L83.7046 20.5426L83.9645 22.4754H85.9164V20.2458ZM86.2378 20.2458V22.4754H88.8025L88.4481 19.9376L86.2378 20.2458ZM85.845 17.4275L83.6262 17.6672L83.6298 17.7008L83.6345 17.7342L85.845 17.4275ZM85.6308 15.0374L83.4036 15.181L83.404 15.1857L85.6308 15.0374ZM85.5594 7.79565V5.56604H83.3276V7.79565H85.5594ZM89.4515 7.79565L91.6832 7.80537L91.6929 5.56604H89.4515V7.79565ZM89.3801 24.1699L87.1483 24.1602V24.1749L87.1485 24.1897L89.3801 24.1699ZM89.4515 32.1964V34.426H91.7032L91.6831 32.1766L89.4515 32.1964ZM85.9521 32.1964L83.7229 32.0916L83.613 34.426H85.9521V32.1964ZM86.2378 26.1319L88.4671 26.2367L88.577 23.9023H86.2378V26.1319ZM85.9164 26.1319V23.9023H84.0407L83.718 25.7484L85.9164 26.1319ZM84.4524 27.3805L82.5193 26.2664L82.503 26.2947L82.4875 26.3234L84.4524 27.3805ZM85.238 25.3828L83.0816 24.8083L83.0726 24.8421L83.0646 24.8762L85.238 25.3828ZM85.3451 21.2803L83.1438 21.6468L83.1511 21.6911L83.1603 21.735L85.3451 21.2803ZM84.8809 19.6036L82.7912 20.3866L82.7968 20.4014L82.8026 20.4161L84.8809 19.6036ZM84.0597 18.0697L82.1885 19.2848L82.2242 19.3396L82.263 19.3923L84.0597 18.0697ZM82.917 16.9638L81.6791 18.8189L81.7378 18.858L81.7988 18.8934L82.917 16.9638ZM79.4177 17.3205L80.9224 18.9671L80.9256 18.9641L79.4177 17.3205ZM78.0965 26.453L75.9546 27.0793L75.9588 27.0937L78.0965 26.453ZM80.3104 30.4306C79.5164 30.4306 78.8415 30.2183 78.2219 29.7909L75.6858 33.4604C77.0658 34.4123 78.6287 34.8898 80.3104 34.8898V30.4306ZM78.2717 29.8264C77.7133 29.4181 77.1467 28.715 76.6622 27.5339L72.5321 29.2249C73.2378 30.9452 74.2423 32.4062 75.636 33.4251L78.2717 29.8264ZM76.6739 27.5631C76.2391 26.459 75.9719 24.9174 75.9719 22.8499H71.5085C71.5085 25.2536 71.8125 27.3982 72.5204 29.1957L76.6739 27.5631ZM75.9719 22.8499C75.9719 20.8812 76.2262 19.3892 76.6453 18.297L72.4776 16.7008C71.8017 18.4624 71.5085 20.5378 71.5085 22.8499H75.9719ZM76.6497 18.2855C77.0921 17.113 77.6263 16.4288 78.1501 16.0363L75.472 12.4689C74.0913 13.5034 73.1258 14.9833 72.4732 16.7123L76.6497 18.2855ZM78.157 16.031C78.7326 15.5961 79.3755 15.3763 80.1675 15.3763V10.9171C78.4363 10.9171 76.8414 11.4345 75.4651 12.4741L78.157 16.031ZM80.1675 15.3763C80.8963 15.3763 81.3632 15.5454 81.6883 15.7688L84.2171 12.0942C83.0188 11.2712 81.6289 10.9171 80.1675 10.9171V15.3763ZM81.7545 15.8125C82.0844 16.0222 82.4618 16.4184 82.8059 17.1915L86.8846 15.3804C86.2763 14.0131 85.3922 12.8397 84.1509 12.0505L81.7545 15.8125ZM82.8311 17.2464C83.2005 18.0197 83.5102 19.0973 83.7046 20.5426L88.1283 19.9489C87.8942 18.2074 87.4897 16.6452 86.8593 15.3257L82.8311 17.2464ZM85.9164 22.4754H86.2378V18.0161H85.9164V22.4754ZM88.4481 19.9376C88.3054 18.9153 88.1745 17.9765 88.0555 17.1208L83.6345 17.7342C83.7536 18.5909 83.8846 19.5308 84.0275 20.5539L88.4481 19.9376ZM88.0638 17.1878C87.9712 16.3316 87.9027 15.5659 87.8576 14.8891L83.404 15.1857C83.4541 15.9358 83.5285 16.7637 83.6262 17.6672L88.0638 17.1878ZM87.8578 14.8938C87.8126 14.1935 87.7911 13.5766 87.7911 13.0397H83.3276C83.3276 13.6919 83.3536 14.4069 83.4036 15.181L87.8578 14.8938ZM87.7911 13.0397V7.79565H83.3276V13.0397H87.7911ZM85.5594 10.0253H89.4515V5.56604H85.5594V10.0253ZM87.2198 7.78594L87.1483 24.1602L91.6118 24.1796L91.6832 7.80537L87.2198 7.78594ZM87.1485 24.1897L87.2199 32.2163L91.6831 32.1766L91.6117 24.15L87.1485 24.1897ZM89.4515 29.9668H85.9521V34.426H89.4515V29.9668ZM88.1814 32.3012L88.4671 26.2367L84.0085 26.0271L83.7229 32.0916L88.1814 32.3012ZM86.2378 23.9023H85.9164V28.3615H86.2378V23.9023ZM83.718 25.7484C83.4809 27.1051 83.1542 28.1101 82.7875 28.8256L86.7601 30.8585C87.3932 29.6237 87.8282 28.1553 88.1149 26.5154L83.718 25.7484ZM82.7875 28.8256C82.4251 29.5323 82.0572 29.8938 81.7508 30.0814L84.0832 33.8834C85.2526 33.1673 86.1227 32.1018 86.7601 30.8585L82.7875 28.8256ZM81.7508 30.0814C81.4154 30.2868 80.9636 30.4306 80.3104 30.4306V34.8898C81.6568 34.8898 82.9427 34.5818 84.0832 33.8834L81.7508 30.0814ZM81.3459 31.6792C82.4748 31.6792 83.5486 31.3584 84.4795 30.682L81.8544 27.0756C81.738 27.1602 81.5976 27.22 81.3459 27.22V31.6792ZM84.4795 30.682C85.2966 30.0883 85.9392 29.3247 86.4174 28.4375L82.4875 26.3234C82.299 26.6729 82.0848 26.9083 81.8544 27.0756L84.4795 30.682ZM86.3855 28.4947C86.855 27.6817 87.1962 26.8104 87.4114 25.8894L83.0646 24.8762C82.9465 25.3821 82.764 25.8426 82.5193 26.2664L86.3855 28.4947ZM87.3944 25.9572C87.6313 25.0695 87.7554 24.1749 87.7554 23.278H83.2919C83.2919 23.7606 83.2255 24.2691 83.0816 24.8083L87.3944 25.9572ZM87.7554 23.278V22.8856H83.2919V23.278H87.7554ZM87.7554 22.8856C87.7554 22.2105 87.6752 21.5218 87.53 20.8256L83.1603 21.735C83.2532 22.1804 83.2919 22.5619 83.2919 22.8856H87.7554ZM87.5465 20.9137C87.4254 20.1882 87.229 19.48 86.9592 18.7912L82.8026 20.4161C82.9613 20.8213 83.0743 21.2309 83.1438 21.6468L87.5465 20.9137ZM86.9706 18.8208C86.6902 18.0739 86.3217 17.378 85.8563 16.7471L82.263 19.3923C82.4642 19.6651 82.6432 19.9918 82.7912 20.3866L86.9706 18.8208ZM85.9308 16.8545C85.447 16.1108 84.817 15.4864 84.0352 15.0343L81.7988 18.8934C81.9217 18.9644 82.0534 19.0772 82.1885 19.2848L85.9308 16.8545ZM84.1549 15.1086C83.3203 14.5528 82.3792 14.3061 81.4173 14.3061V18.7653C81.5981 18.7653 81.6568 18.8041 81.6791 18.8189L84.1549 15.1086ZM81.4173 14.3061C80.0865 14.3061 78.8846 14.7841 77.9097 15.677L80.9256 18.9641C81.0934 18.8106 81.2246 18.7653 81.4173 18.7653V14.3061ZM77.9129 15.6739C76.9863 16.5192 76.3897 17.6459 76.0048 18.8584L80.2596 20.2062C80.4937 19.4685 80.754 19.1207 80.9224 18.9671L77.9129 15.6739ZM76.0048 18.8584C75.6069 20.1124 75.4363 21.5301 75.4363 23.064H79.8997C79.8997 21.839 80.0385 20.9024 80.2596 20.2062L76.0048 18.8584ZM75.4363 23.064C75.4363 24.5071 75.5961 25.8554 75.9546 27.0793L80.2384 25.8267C80.0256 25.1004 79.8997 24.1894 79.8997 23.064H75.4363ZM75.9588 27.0937C76.3219 28.3025 76.9032 29.4156 77.8037 30.276L80.8888 27.0535C80.6942 26.8676 80.4424 26.506 80.234 25.8123L75.9588 27.0937ZM77.8037 30.276C78.7831 31.212 80.0091 31.6792 81.3459 31.6792V27.22C81.1115 27.22 81.0044 27.164 80.8888 27.0535L77.8037 30.276ZM94.5883 37.2621L94.1383 39.446L94.1507 39.4485L94.5883 37.2621ZM92.3031 36.4416L91.2249 38.3938L91.2389 38.4014L91.2528 38.4089L92.3031 36.4416ZM90.482 35.0147L88.4564 34.079L87.8326 35.4267L88.8369 36.5213L90.482 35.0147ZM92.0174 31.697L93.8089 30.3675L91.5685 27.3544L89.9918 30.7614L92.0174 31.697ZM94.267 33.445L95.1054 31.3787L95.0812 31.3689L95.0568 31.3597L94.267 33.445ZM101.658 30.6268L99.5412 29.9218L99.5364 29.9363L99.5317 29.9508L101.658 30.6268ZM102.23 26.9524L100.003 26.8041L99.9993 26.859L99.9984 26.9139L102.23 26.9524ZM102.48 23.2067L104.707 23.3549L104.865 20.9771H102.48V23.2067ZM102.123 23.2067V20.9771H100.033L99.8957 23.0603L102.123 23.2067ZM99.1589 29.949L100.29 31.8708L100.311 31.8585L100.332 31.8459L99.1589 29.949ZM93.3386 29.6636L91.8947 31.3637L91.9072 31.3743L91.9199 31.3848L93.3386 29.6636ZM91.5532 26.774L89.4134 27.4075L89.4205 27.4313L89.4282 27.4551L91.5532 26.774ZM90.9819 13.6104V11.3809H88.7502V13.6104H90.9819ZM94.8383 13.6104H97.07V11.3809H94.8383V13.6104ZM100.659 25.2757L98.6914 24.2229L98.6843 24.2361L98.6774 24.2495L100.659 25.2757ZM101.694 13.6104V11.3809H99.4624V13.6104H101.694ZM105.551 13.6104H107.782V11.3809H105.551V13.6104ZM105.336 29.6279L103.128 29.3051L103.125 29.3282L103.122 29.3514L105.336 29.6279ZM104.622 32.4462L102.539 31.6458L102.53 31.6692L102.522 31.6929L104.622 32.4462ZM103.158 34.979L101.452 33.5412L101.428 33.5698L101.405 33.5992L103.158 34.979ZM97.0522 35.2822C96.3968 35.2822 95.7223 35.2149 95.026 35.0758L94.1507 39.4485C95.1208 39.6423 96.0887 39.7414 97.0522 39.7414V35.2822ZM95.0384 35.0783C94.434 34.954 93.8749 34.7522 93.3533 34.4743L91.2528 38.4089C92.1596 38.8921 93.124 39.2374 94.1383 39.446L95.0384 35.0783ZM93.3812 34.4895C92.899 34.2237 92.4844 33.8975 92.1271 33.5081L88.8369 36.5213C89.527 37.2735 90.3264 37.8985 91.2249 38.3938L93.3812 34.4895ZM92.5076 35.9504L94.043 32.6328L89.9918 30.7614L88.4564 34.079L92.5076 35.9504ZM90.2259 33.0266C91.0725 34.1652 92.1567 35.0312 93.4772 35.5304L95.0568 31.3597C94.6157 31.193 94.2001 30.8937 93.8089 30.3675L90.2259 33.0266ZM93.4285 35.5113C94.5544 35.9673 95.719 36.2097 96.9093 36.2097V31.7505C96.338 31.7505 95.7411 31.6363 95.1054 31.3787L93.4285 35.5113ZM96.9093 36.2097C98.5414 36.2097 100.117 35.8387 101.39 34.8453L98.6419 31.3314C98.3913 31.527 97.8959 31.7505 96.9093 31.7505V36.2097ZM101.39 34.8453C102.553 33.9375 103.335 32.7164 103.785 31.3028L99.5317 29.9508C99.3155 30.63 99.0025 31.0499 98.6419 31.3314L101.39 34.8453ZM103.776 31.3319C104.218 30.0049 104.434 28.5484 104.461 26.9909L99.9984 26.9139C99.9776 28.1153 99.8126 29.1083 99.5412 29.9218L103.776 31.3319ZM104.457 27.1007L104.707 23.3549L100.253 23.0584L100.003 26.8041L104.457 27.1007ZM102.48 20.9771H102.123V25.4363H102.48V20.9771ZM99.8957 23.0603C99.787 24.7113 99.5016 25.8524 99.1452 26.5969L103.172 28.5208C103.863 27.0773 104.22 25.317 104.35 23.353L99.8957 23.0603ZM99.1452 26.5969C98.7556 27.4107 98.3432 27.8318 97.9861 28.052L100.332 31.8459C101.593 31.0674 102.514 29.895 103.172 28.5208L99.1452 26.5969ZM98.0274 28.0272C97.5915 28.2834 97.0721 28.4329 96.4094 28.4329V32.8921C97.794 32.8921 99.1076 32.5659 100.29 31.8708L98.0274 28.0272ZM96.4094 28.4329C95.5914 28.4329 95.0976 28.2225 94.7573 27.9426L91.9199 31.3848C93.1983 32.4366 94.7517 32.8921 96.4094 32.8921V28.4329ZM94.7825 27.9635C94.3939 27.6341 93.9916 27.0688 93.6782 26.0931L89.4282 27.4551C89.9243 29.0003 90.7122 30.3613 91.8947 31.3637L94.7825 27.9635ZM93.693 26.1406C93.3895 25.1172 93.2136 23.8078 93.2136 22.1721H88.7502C88.7502 24.104 88.9553 25.8624 89.4134 27.4075L93.693 26.1406ZM93.2136 22.1721V13.6104H88.7502V22.1721H93.2136ZM90.9819 15.8401H94.8383V11.3809H90.9819V15.8401ZM92.6066 13.6104V21.423H97.07V13.6104H92.6066ZM92.6066 21.423C92.6066 23.4953 92.8433 25.3831 93.5563 26.8079L97.5486 24.8138C97.3095 24.336 97.07 23.2986 97.07 21.423H92.6066ZM93.5563 26.8079C93.9395 27.5735 94.4963 28.2689 95.2757 28.7633C96.0602 29.2609 96.9325 29.4674 97.802 29.4674V25.0082C97.7195 25.0082 97.677 24.9987 97.6643 24.9953C97.6536 24.9924 97.6583 24.9926 97.6681 24.9988C97.6977 25.0176 97.6416 24.9995 97.5486 24.8138L93.5563 26.8079ZM97.802 29.4674C98.8474 29.4674 99.8482 29.1777 100.724 28.565L98.1648 24.9118C98.0887 24.9649 97.9945 25.0082 97.802 25.0082V29.4674ZM100.724 28.565C101.559 27.981 102.181 27.1865 102.64 26.302L98.6774 24.2495C98.4699 24.6492 98.2821 24.8297 98.1648 24.9118L100.724 28.565ZM102.626 26.3287C103.121 25.4047 103.446 24.3575 103.643 23.2343L99.2458 22.4655C99.1094 23.2449 98.9101 23.815 98.6914 24.2229L102.626 26.3287ZM103.643 23.2343C103.836 22.1266 103.926 20.8997 103.926 19.568H99.4624C99.4624 20.7096 99.3851 21.6707 99.2458 22.4655L103.643 23.2343ZM103.926 19.568V13.6104H99.4624V19.568H103.926ZM101.694 15.8401H105.551V11.3809H101.694V15.8401ZM103.319 13.6104V26.9524H107.782V13.6104H103.319ZM103.319 26.9524C103.319 27.6327 103.259 28.4147 103.128 29.3051L107.544 29.9508C107.7 28.891 107.782 27.8894 107.782 26.9524H103.319ZM103.122 29.3514C103.026 30.117 102.834 30.8807 102.539 31.6458L106.705 33.2466C107.125 32.1565 107.409 31.0415 107.551 29.9045L103.122 29.3514ZM102.522 31.6929C102.279 32.3679 101.926 32.9808 101.452 33.5412L104.864 36.4169C105.676 35.455 106.299 34.3794 106.723 33.1994L102.522 31.6929ZM101.405 33.5992C101.029 34.0767 100.516 34.4835 99.8102 34.8026L101.65 38.8654C102.943 38.2808 104.05 37.451 104.911 36.3589L101.405 33.5992ZM99.8102 34.8026C99.1769 35.0889 98.2847 35.2822 97.0522 35.2822V39.7414C98.7238 39.7414 100.284 39.4829 101.65 38.8654L99.8102 34.8026ZM107.39 32.1964H105.158V34.426H107.39V32.1964ZM107.39 8.65181V6.42221H105.158V8.65181H107.39ZM121.101 10.2215L119.753 11.9978L119.787 12.0235L119.822 12.048L121.101 10.2215ZM122.672 17.2492L124.669 18.2462L124.675 18.2341L124.681 18.2219L122.672 17.2492ZM120.888 19.1042L119.755 17.1824L119.743 17.1899L119.731 17.1974L120.888 19.1042ZM117.78 19.9604L117.616 17.7369L115.549 17.8898V19.9604H117.78ZM117.78 20.2814H115.549V22.3893L117.655 22.5076L117.78 20.2814ZM122.531 21.9581L120.99 23.5709L121.007 23.5888L121.028 23.6062L122.531 21.9581ZM123.172 29.3782L121.338 28.1091L121.327 28.1252L121.315 28.1415L123.172 29.3782ZM120.423 31.483L119.608 29.4072L119.595 29.4129L120.423 31.483ZM111.247 28.9858H109.015V31.2154H111.247V28.9858ZM119.103 28.1296L117.763 26.346L117.749 26.3562L117.736 26.3667L119.103 28.1296ZM118.852 22.6002L117.559 24.4178L117.571 24.4256L117.582 24.4334L118.852 22.6002ZM111.247 21.637V19.4074H109.015V21.637H111.247ZM111.247 18.7831H109.015V21.0127H111.247V18.7831ZM118.209 17.8913L116.835 16.1344L116.822 16.145L116.808 16.1558L118.209 17.8913ZM118.245 12.7186L116.879 14.4817L116.897 14.4956L116.916 14.5092L118.245 12.7186ZM111.247 11.8624V9.63284H109.015V11.8624H111.247ZM109.621 32.1964V8.65181H105.158V32.1964H109.621ZM107.39 10.8814H115.102V6.42221H107.39V10.8814ZM115.102 10.8814C116.27 10.8814 117.227 10.9986 118.001 11.2011L119.132 6.88737C117.906 6.56663 116.555 6.42221 115.102 6.42221V10.8814ZM118.001 11.2011C118.771 11.4025 119.337 11.6822 119.753 11.9978L122.45 8.44515C121.486 7.71428 120.361 7.20916 119.132 6.88737L118.001 11.2011ZM119.822 12.048C120.244 12.3435 120.519 12.6748 120.699 13.0476L124.718 11.1054C124.184 10.0037 123.388 9.09832 122.381 8.3949L119.822 12.048ZM120.699 13.0476C120.885 13.4297 121.012 13.9429 121.012 14.645H125.475C125.475 13.397 125.247 12.1977 124.718 11.1054L120.699 13.0476ZM121.012 14.645C121.012 15.2903 120.886 15.8215 120.665 16.2765L124.681 18.2219C125.222 17.1071 125.475 15.9023 125.475 14.645H121.012ZM120.677 16.2521C120.509 16.5889 120.233 16.9019 119.755 17.1824L122.02 21.026C123.16 20.3552 124.076 19.4315 124.669 18.2462L120.677 16.2521ZM119.731 17.1974C119.343 17.4324 118.683 17.6578 117.616 17.7369L117.946 22.1838C119.45 22.0726 120.861 21.7272 122.044 21.011L119.731 17.1974ZM115.549 19.9604V20.2814H120.012V19.9604H115.549ZM117.655 22.5076C119.485 22.6103 120.47 23.0757 120.99 23.5709L124.07 20.3453C122.496 18.8429 120.314 18.1905 117.906 18.0554L117.655 22.5076ZM121.028 23.6062C121.549 24.0813 121.905 24.7791 121.905 25.9892H126.368C126.368 23.7747 125.654 21.7851 124.033 20.31L121.028 23.6062ZM121.905 25.9892C121.905 26.9514 121.678 27.6179 121.338 28.1091L125.008 30.6473C125.953 29.2835 126.368 27.6906 126.368 25.9892H121.905ZM121.315 28.1415C120.991 28.6285 120.471 29.0692 119.608 29.4072L121.238 33.5587C122.804 32.9454 124.117 31.983 125.03 30.615L121.315 28.1415ZM119.595 29.4129C118.752 29.7493 117.557 29.9668 115.924 29.9668V34.426C117.91 34.426 119.714 34.1679 121.252 33.5532L119.595 29.4129ZM115.924 29.9668H107.39V34.426H115.924V29.9668ZM111.247 31.2154H115.745V26.7562H111.247V31.2154ZM115.745 31.2154C117.461 31.2154 119.165 30.9008 120.468 29.8927L117.736 26.3667C117.564 26.5001 117.029 26.7562 115.745 26.7562V31.2154ZM120.441 29.9133C121.892 28.8258 122.476 27.2163 122.476 25.5255H118.012C118.012 26.1654 117.835 26.2919 117.763 26.346L120.441 29.9133ZM122.476 25.5255C122.476 23.6204 121.756 21.8968 120.123 20.767L117.582 24.4334C117.805 24.5879 118.012 24.8146 118.012 25.5255H122.476ZM120.145 20.7826C118.688 19.7486 116.768 19.4074 114.745 19.4074V23.8666C116.39 23.8666 117.207 24.1676 117.559 24.4178L120.145 20.7826ZM114.745 19.4074H111.247V23.8666H114.745V19.4074ZM109.015 21.637V28.9858H113.479V21.637H109.015ZM111.247 21.0127H114.817V16.5535H111.247V21.0127ZM114.817 21.0127C116.562 21.0127 118.298 20.6844 119.61 19.6268L116.808 16.1558C116.646 16.2873 116.12 16.5535 114.817 16.5535V21.0127ZM119.584 19.6483C121 18.5426 121.584 16.9452 121.584 15.2514H117.121C117.121 15.8884 116.942 16.0509 116.835 16.1344L119.584 19.6483ZM121.584 15.2514C121.584 13.5954 121.019 11.9979 119.575 10.928L116.916 14.5092C116.948 14.5334 117.121 14.6244 117.121 15.2514H121.584ZM119.612 10.9556C118.298 9.94021 116.561 9.63284 114.817 9.63284V14.092C116.168 14.092 116.716 14.3555 116.879 14.4817L119.612 10.9556ZM114.817 9.63284H111.247V14.092H114.817V9.63284ZM109.015 11.8624V18.7831H113.479V11.8624H109.015ZM126.496 30.5198L124.588 31.676L124.599 31.6946L124.612 31.7127L126.496 30.5198ZM125.175 13.6104V11.3809H122.943V13.6104H125.175ZM129.032 13.6104H131.263V11.3809H129.032V13.6104ZM129.71 27.8799L127.736 28.9206L127.748 28.9418L127.76 28.9627L129.71 27.8799ZM133.709 28.6291L135.007 30.4434L135.015 30.4378L135.023 30.4323L133.709 28.6291ZM135.816 24.1699L133.617 23.7957L133.612 23.8186L133.609 23.8414L135.816 24.1699ZM136.102 13.6104V11.3809H133.87V13.6104H136.102ZM139.958 13.6104H142.19V11.3809H139.958V13.6104ZM139.958 22.8856H137.726V22.8942L139.958 22.8856ZM139.994 32.1964V34.426H142.234L142.226 32.1879L139.994 32.1964ZM136.53 32.1964L134.301 32.0914L134.191 34.426H136.53V32.1964ZM136.887 24.6336L139.117 24.7386L139.227 22.404H136.887V24.6336ZM136.602 24.6336V22.404H134.555L134.379 24.4416L136.602 24.6336ZM135.602 29.3069L133.544 28.4435L133.54 28.4539L133.536 28.4643L135.602 29.3069ZM133.674 31.8754L134.887 33.7474L134.905 33.7349L134.924 33.7222L133.674 31.8754ZM130.746 30.4306C129.456 30.4306 128.814 30.0082 128.382 29.3268L124.612 31.7127C125.989 33.8853 128.179 34.8898 130.746 34.8898V30.4306ZM128.404 29.3635C127.842 28.437 127.407 26.7089 127.407 23.8488H122.943C122.943 26.9819 123.39 29.7012 124.588 31.676L128.404 29.3635ZM127.407 23.8488V13.6104H122.943V23.8488H127.407ZM125.175 15.8401H129.032V11.3809H125.175V15.8401ZM126.8 13.6104V23.6348H131.263V13.6104H126.8ZM126.8 23.6348C126.8 25.6688 127.015 27.5542 127.736 28.9206L131.684 26.8393C131.501 26.4934 131.263 25.5485 131.263 23.6348H126.8ZM127.76 28.9627C128.168 29.6976 128.748 30.3367 129.523 30.779C130.293 31.2184 131.132 31.3938 131.96 31.3938V26.9346C131.764 26.9346 131.717 26.8959 131.738 26.9073C131.742 26.9104 131.742 26.9118 131.734 26.903C131.724 26.893 131.697 26.8626 131.662 26.7971L127.76 28.9627ZM131.96 31.3938C133.05 31.3938 134.095 31.0935 135.007 30.4434L132.413 26.8147C132.323 26.8782 132.203 26.9346 131.96 26.9346V31.3938ZM135.023 30.4323C135.912 29.7859 136.564 28.9052 137.04 27.9235L133.022 25.9813C132.783 26.474 132.554 26.7112 132.397 26.8259L135.023 30.4323ZM137.04 27.9235C137.524 26.9226 137.836 25.7609 138.023 24.4983L133.609 23.8414C133.464 24.8143 133.252 25.5076 133.022 25.9813L137.04 27.9235ZM138.016 24.544C138.234 23.2673 138.333 21.8039 138.333 20.1744H133.87C133.87 21.6367 133.78 22.8369 133.617 23.7957L138.016 24.544ZM138.333 20.1744V13.6104H133.87V20.1744H138.333ZM136.102 15.8401H139.958V11.3809H136.102V15.8401ZM137.726 13.6104V22.8856H142.19V13.6104H137.726ZM137.726 22.8942L137.762 32.205L142.226 32.1879L142.19 22.877L137.726 22.8942ZM139.994 29.9668H136.53V34.426H139.994V29.9668ZM138.76 32.3015L139.117 24.7386L134.658 24.5286L134.301 32.0914L138.76 32.3015ZM136.887 22.404H136.602V26.8632H136.887V22.404ZM134.379 24.4416C134.223 26.2403 133.921 27.5465 133.544 28.4435L137.659 30.1703C138.282 28.689 138.648 26.8797 138.825 24.8256L134.379 24.4416ZM133.536 28.4643C133.178 29.3388 132.775 29.7909 132.424 30.0286L134.924 33.7222C136.191 32.8659 137.074 31.6057 137.668 30.1494L133.536 28.4643ZM132.462 30.0035C132.076 30.2529 131.539 30.4306 130.746 30.4306V34.8898C132.237 34.8898 133.653 34.5443 134.887 33.7474L132.462 30.0035ZM144.503 31.6257L143.184 33.4251L143.21 33.443L143.234 33.4604L144.503 31.6257ZM142.146 28.3794L140.069 29.1957L140.075 29.2103L140.081 29.2249L142.146 28.3794ZM142.109 17.4989L144.194 18.297L144.198 18.2855L142.109 17.4989ZM144.359 14.2526L145.699 16.0363L145.706 16.031L144.359 14.2526ZM150.502 13.9315L149.236 15.7688L149.27 15.7912L149.303 15.8125L150.502 13.9315ZM152.394 16.286L150.355 17.1915L150.367 17.2191L150.38 17.2464L152.394 16.286ZM153.464 20.2458L151.253 20.5426L151.513 22.4754H153.464V20.2458ZM153.787 20.2458V22.4754H156.351L155.996 19.9376L153.787 20.2458ZM153.393 17.4275L151.175 17.6672L151.178 17.7008L151.184 17.7342L153.393 17.4275ZM153.18 15.0374L150.953 15.181V15.1857L153.18 15.0374ZM153.108 7.79565V5.56604H150.877V7.79565H153.108ZM156.999 7.79565L159.231 7.80537L159.241 5.56604H156.999V7.79565ZM156.929 24.1699L154.697 24.1602L154.696 24.1749L154.697 24.1897L156.929 24.1699ZM156.999 32.1964V34.426H159.251L159.231 32.1766L156.999 32.1964ZM153.5 32.1964L151.272 32.0916L151.161 34.426H153.5V32.1964ZM153.787 26.1319L156.015 26.2367L156.126 23.9023H153.787V26.1319ZM153.464 26.1319V23.9023H151.589L151.266 25.7484L153.464 26.1319ZM152.002 27.3805L150.068 26.2664L150.051 26.2947L150.037 26.3234L152.002 27.3805ZM152.786 25.3828L150.63 24.8083L150.621 24.8421L150.613 24.8762L152.786 25.3828ZM152.893 21.2803L150.693 21.6468L150.699 21.6911L150.709 21.735L152.893 21.2803ZM152.429 19.6036L150.34 20.3866L150.346 20.4014L150.351 20.4161L152.429 19.6036ZM151.608 18.0697L149.737 19.2848L149.773 19.3396L149.811 19.3923L151.608 18.0697ZM150.465 16.9638L149.228 18.8189L149.287 18.858L149.347 18.8934L150.465 16.9638ZM146.967 17.3205L148.471 18.9671L148.474 18.9641L146.967 17.3205ZM145.645 26.453L143.503 27.0793L143.508 27.0937L145.645 26.453ZM147.858 30.4306C147.065 30.4306 146.39 30.2183 145.771 29.7909L143.234 33.4604C144.615 34.4123 146.177 34.8898 147.858 34.8898V30.4306ZM145.821 29.8264C145.262 29.4181 144.695 28.715 144.211 27.5339L140.081 29.2249C140.786 30.9452 141.791 32.4062 143.184 33.4251L145.821 29.8264ZM144.223 27.5631C143.788 26.459 143.52 24.9174 143.52 22.8499H139.056C139.056 25.2536 139.361 27.3982 140.069 29.1957L144.223 27.5631ZM143.52 22.8499C143.52 20.8812 143.774 19.3892 144.194 18.297L140.026 16.7008C139.35 18.4624 139.056 20.5378 139.056 22.8499H143.52ZM144.198 18.2855C144.64 17.113 145.175 16.4288 145.699 16.0363L143.02 12.4689C141.64 13.5034 140.674 14.9833 140.022 16.7123L144.198 18.2855ZM145.706 16.031C146.282 15.5961 146.924 15.3763 147.716 15.3763V10.9171C145.985 10.9171 144.39 11.4345 143.013 12.4741L145.706 16.031ZM147.716 15.3763C148.445 15.3763 148.912 15.5454 149.236 15.7688L151.766 12.0942C150.568 11.2712 149.177 10.9171 147.716 10.9171V15.3763ZM149.303 15.8125C149.633 16.0222 150.011 16.4184 150.355 17.1915L154.433 15.3804C153.825 14.0131 152.941 12.8397 151.699 12.0505L149.303 15.8125ZM150.38 17.2464C150.75 18.0197 151.059 19.0973 151.253 20.5426L155.677 19.9489C155.443 18.2074 155.038 16.6452 154.407 15.3257L150.38 17.2464ZM153.464 22.4754H153.787V18.0161H153.464V22.4754ZM155.996 19.9376C155.854 18.9153 155.723 17.9765 155.604 17.1208L151.184 17.7342C151.302 18.5909 151.434 19.5308 151.576 20.5539L155.996 19.9376ZM155.612 17.1878C155.52 16.3316 155.452 15.5659 155.406 14.8891L150.953 15.1857C151.003 15.9358 151.077 16.7637 151.175 17.6672L155.612 17.1878ZM155.406 14.8938C155.361 14.1935 155.34 13.5766 155.34 13.0397H150.877C150.877 13.6919 150.902 14.4069 150.953 15.181L155.406 14.8938ZM155.34 13.0397V7.79565H150.877V13.0397H155.34ZM153.108 10.0253H156.999V5.56604H153.108V10.0253ZM154.769 7.78594L154.697 24.1602L159.16 24.1796L159.231 7.80537L154.769 7.78594ZM154.697 24.1897L154.769 32.2163L159.231 32.1766L159.16 24.15L154.697 24.1897ZM156.999 29.9668H153.5V34.426H156.999V29.9668ZM155.73 32.3012L156.015 26.2367L151.557 26.0271L151.272 32.0916L155.73 32.3012ZM153.787 23.9023H153.464V28.3615H153.787V23.9023ZM151.266 25.7484C151.03 27.1051 150.703 28.1101 150.336 28.8256L154.309 30.8585C154.942 29.6237 155.377 28.1553 155.664 26.5154L151.266 25.7484ZM150.336 28.8256C149.974 29.5323 149.606 29.8938 149.299 30.0814L151.632 33.8834C152.802 33.1673 153.671 32.1018 154.309 30.8585L150.336 28.8256ZM149.299 30.0814C148.964 30.2868 148.512 30.4306 147.858 30.4306V34.8898C149.205 34.8898 150.492 34.5818 151.632 33.8834L149.299 30.0814ZM148.894 31.6792C150.023 31.6792 151.097 31.3584 152.028 30.682L149.403 27.0756C149.287 27.1602 149.146 27.22 148.894 27.22V31.6792ZM152.028 30.682C152.845 30.0883 153.488 29.3247 153.965 28.4375L150.037 26.3234C149.848 26.6729 149.634 26.9083 149.403 27.0756L152.028 30.682ZM153.934 28.4947C154.404 27.6817 154.744 26.8104 154.96 25.8894L150.613 24.8762C150.495 25.3821 150.312 25.8426 150.068 26.2664L153.934 28.4947ZM154.943 25.9572C155.18 25.0695 155.305 24.1749 155.305 23.278H150.841C150.841 23.7606 150.774 24.2691 150.63 24.8083L154.943 25.9572ZM155.305 23.278V22.8856H150.841V23.278H155.305ZM155.305 22.8856C155.305 22.2105 155.224 21.5218 155.078 20.8256L150.709 21.735C150.802 22.1804 150.841 22.5619 150.841 22.8856H155.305ZM155.095 20.9137C154.974 20.1882 154.778 19.48 154.508 18.7912L150.351 20.4161C150.51 20.8213 150.623 21.2309 150.693 21.6468L155.095 20.9137ZM154.519 18.8208C154.239 18.0739 153.871 17.378 153.405 16.7471L149.811 19.3923C150.013 19.6651 150.192 19.9918 150.34 20.3866L154.519 18.8208ZM153.479 16.8545C152.996 16.1108 152.365 15.4864 151.584 15.0343L149.347 18.8934C149.471 18.9644 149.602 19.0772 149.737 19.2848L153.479 16.8545ZM151.704 15.1086C150.869 14.5528 149.927 14.3061 148.966 14.3061V18.7653C149.147 18.7653 149.205 18.8041 149.228 18.8189L151.704 15.1086ZM148.966 14.3061C147.635 14.3061 146.433 14.7841 145.458 15.677L148.474 18.9641C148.642 18.8106 148.773 18.7653 148.966 18.7653V14.3061ZM145.462 15.6739C144.535 16.5192 143.938 17.6459 143.553 18.8584L147.808 20.2062C148.042 19.4685 148.302 19.1207 148.471 18.9671L145.462 15.6739ZM143.553 18.8584C143.155 20.1124 142.985 21.5301 142.985 23.064H147.449C147.449 21.839 147.587 20.9024 147.808 20.2062L143.553 18.8584ZM142.985 23.064C142.985 24.5071 143.145 25.8554 143.503 27.0793L147.787 25.8267C147.574 25.1004 147.449 24.1894 147.449 23.064H142.985ZM143.508 27.0937C143.87 28.3025 144.452 29.4156 145.352 30.276L148.438 27.0535C148.243 26.8676 147.991 26.506 147.783 25.8123L143.508 27.0937ZM145.352 30.276C146.332 31.212 147.557 31.6792 148.894 31.6792V27.22C148.661 27.22 148.552 27.164 148.438 27.0535L145.352 30.276ZM161.46 31.6257L160.142 33.4251L160.166 33.443L160.191 33.4604L161.46 31.6257ZM159.103 28.3794L157.026 29.1957L157.032 29.2103L157.037 29.2249L159.103 28.3794ZM159.067 17.4989L161.15 18.297L161.155 18.2855L159.067 17.4989ZM161.317 14.2526L162.656 16.0363L162.662 16.031L161.317 14.2526ZM167.458 13.9315L166.194 15.7688L166.227 15.7912L166.26 15.8125L167.458 13.9315ZM169.351 16.286L167.311 17.1915L167.323 17.2191L167.337 17.2464L169.351 16.286ZM170.422 20.2458L168.211 20.5426L168.469 22.4754H170.422V20.2458ZM170.744 20.2458V22.4754H173.308L172.954 19.9376L170.744 20.2458ZM170.351 17.4275L168.131 17.6672L168.136 17.7008L168.14 17.7342L170.351 17.4275ZM170.137 15.0374L167.909 15.181V15.1857L170.137 15.0374ZM170.065 7.79565V5.56604H167.833V7.79565H170.065ZM173.957 7.79565L176.189 7.80537L176.198 5.56604H173.957V7.79565ZM173.886 24.1699L171.654 24.1602V24.1749V24.1897L173.886 24.1699ZM173.957 32.1964V34.426H176.209L176.189 32.1766L173.957 32.1964ZM170.458 32.1964L168.228 32.0916L168.118 34.426H170.458V32.1964ZM170.744 26.1319L172.973 26.2367L173.082 23.9023H170.744V26.1319ZM170.422 26.1319V23.9023H168.546L168.224 25.7484L170.422 26.1319ZM168.958 27.3805L167.024 26.2664L167.009 26.2947L166.993 26.3234L168.958 27.3805ZM169.744 25.3828L167.587 24.8083L167.578 24.8421L167.57 24.8762L169.744 25.3828ZM169.851 21.2803L167.649 21.6468L167.657 21.6911L167.666 21.735L169.851 21.2803ZM169.387 19.6036L167.297 20.3866L167.302 20.4014L167.308 20.4161L169.387 19.6036ZM168.565 18.0697L166.694 19.2848L166.73 19.3396L166.769 19.3923L168.565 18.0697ZM167.423 16.9638L166.184 18.8189L166.243 18.858L166.305 18.8934L167.423 16.9638ZM163.923 17.3205L165.428 18.9671L165.431 18.9641L163.923 17.3205ZM162.602 26.453L160.46 27.0793L160.464 27.0937L162.602 26.453ZM164.816 30.4306C164.022 30.4306 163.347 30.2183 162.727 29.7909L160.191 33.4604C161.571 34.4123 163.135 34.8898 164.816 34.8898V30.4306ZM162.777 29.8264C162.218 29.4181 161.653 28.715 161.167 27.5339L157.037 29.2249C157.744 30.9452 158.748 32.4062 160.142 33.4251L162.777 29.8264ZM161.18 27.5631C160.744 26.459 160.478 24.9174 160.478 22.8499H156.014C156.014 25.2536 156.318 27.3982 157.026 29.1957L161.18 27.5631ZM160.478 22.8499C160.478 20.8812 160.732 19.3892 161.15 18.297L156.983 16.7008C156.308 18.4624 156.014 20.5378 156.014 22.8499H160.478ZM161.155 18.2855C161.598 17.113 162.131 16.4288 162.656 16.0363L159.978 12.4689C158.596 13.5034 157.631 14.9833 156.978 16.7123L161.155 18.2855ZM162.662 16.031C163.238 15.5961 163.881 15.3763 164.673 15.3763V10.9171C162.941 10.9171 161.347 11.4345 159.971 12.4741L162.662 16.031ZM164.673 15.3763C165.402 15.3763 165.868 15.5454 166.194 15.7688L168.723 12.0942C167.524 11.2712 166.134 10.9171 164.673 10.9171V15.3763ZM166.26 15.8125C166.59 16.0222 166.967 16.4184 167.311 17.1915L171.39 15.3804C170.781 14.0131 169.898 12.8397 168.656 12.0505L166.26 15.8125ZM167.337 17.2464C167.706 18.0197 168.015 19.0973 168.211 20.5426L172.634 19.9489C172.399 18.2074 171.996 16.6452 171.365 15.3257L167.337 17.2464ZM170.422 22.4754H170.744V18.0161H170.422V22.4754ZM172.954 19.9376C172.811 18.9153 172.68 17.9765 172.561 17.1208L168.14 17.7342C168.26 18.5909 168.39 19.5308 168.533 20.5539L172.954 19.9376ZM172.569 17.1878C172.476 16.3316 172.408 15.5659 172.363 14.8891L167.909 15.1857C167.959 15.9358 168.034 16.7637 168.131 17.6672L172.569 17.1878ZM172.364 14.8938C172.318 14.1935 172.297 13.5766 172.297 13.0397H167.833C167.833 13.6919 167.859 14.4069 167.909 15.181L172.364 14.8938ZM172.297 13.0397V7.79565H167.833V13.0397H172.297ZM170.065 10.0253H173.957V5.56604H170.065V10.0253ZM171.725 7.78594L171.654 24.1602L176.118 24.1796L176.189 7.80537L171.725 7.78594ZM171.654 24.1897L171.725 32.2163L176.189 32.1766L176.118 24.15L171.654 24.1897ZM173.957 29.9668H170.458V34.426H173.957V29.9668ZM172.687 32.3012L172.973 26.2367L168.514 26.0271L168.228 32.0916L172.687 32.3012ZM170.744 23.9023H170.422V28.3615H170.744V23.9023ZM168.224 25.7484C167.986 27.1051 167.659 28.1101 167.293 28.8256L171.266 30.8585C171.898 29.6237 172.334 28.1553 172.62 26.5154L168.224 25.7484ZM167.293 28.8256C166.931 29.5323 166.562 29.8938 166.257 30.0814L168.589 33.8834C169.758 33.1673 170.629 32.1018 171.266 30.8585L167.293 28.8256ZM166.257 30.0814C165.921 30.2868 165.469 30.4306 164.816 30.4306V34.8898C166.162 34.8898 167.448 34.5818 168.589 33.8834L166.257 30.0814ZM165.852 31.6792C166.98 31.6792 168.054 31.3584 168.985 30.682L166.359 27.0756C166.243 27.1602 166.103 27.22 165.852 27.22V31.6792ZM168.985 30.682C169.802 30.0883 170.445 29.3247 170.923 28.4375L166.993 26.3234C166.805 26.6729 166.59 26.9083 166.359 27.0756L168.985 30.682ZM170.891 28.4947C171.361 27.6817 171.702 26.8104 171.916 25.8894L167.57 24.8762C167.452 25.3821 167.27 25.8426 167.024 26.2664L170.891 28.4947ZM171.9 25.9572C172.137 25.0695 172.261 24.1749 172.261 23.278H167.798C167.798 23.7606 167.731 24.2691 167.587 24.8083L171.9 25.9572ZM172.261 23.278V22.8856H167.798V23.278H172.261ZM172.261 22.8856C172.261 22.2105 172.181 21.5218 172.036 20.8256L167.666 21.735C167.759 22.1804 167.798 22.5619 167.798 22.8856H172.261ZM172.052 20.9137C171.931 20.1882 171.734 19.48 171.464 18.7912L167.308 20.4161C167.466 20.8213 167.58 21.2309 167.649 21.6468L172.052 20.9137ZM171.476 18.8208C171.195 18.0739 170.827 17.378 170.362 16.7471L166.769 19.3923C166.97 19.6651 167.148 19.9918 167.297 20.3866L171.476 18.8208ZM170.437 16.8545C169.952 16.1108 169.322 15.4864 168.541 15.0343L166.305 18.8934C166.427 18.9644 166.559 19.0772 166.694 19.2848L170.437 16.8545ZM168.66 15.1086C167.826 14.5528 166.885 14.3061 165.923 14.3061V18.7653C166.104 18.7653 166.162 18.8041 166.184 18.8189L168.66 15.1086ZM165.923 14.3061C164.592 14.3061 163.39 14.7841 162.415 15.677L165.431 18.9641C165.598 18.8106 165.73 18.7653 165.923 18.7653V14.3061ZM162.418 15.6739C161.492 16.5192 160.895 17.6459 160.51 18.8584L164.765 20.2062C164.999 19.4685 165.259 19.1207 165.428 18.9671L162.418 15.6739ZM160.51 18.8584C160.113 20.1124 159.942 21.5301 159.942 23.064H164.405C164.405 21.839 164.544 20.9024 164.765 20.2062L160.51 18.8584ZM159.942 23.064C159.942 24.5071 160.102 25.8554 160.46 27.0793L164.744 25.8267C164.532 25.1004 164.405 24.1894 164.405 23.064H159.942ZM160.464 27.0937C160.827 28.3025 161.408 29.4156 162.309 30.276L165.394 27.0535C165.2 26.8676 164.948 26.506 164.739 25.8123L160.464 27.0937ZM162.309 30.276C163.288 31.212 164.515 31.6792 165.852 31.6792V27.22C165.617 27.22 165.51 27.164 165.394 27.0535L162.309 30.276ZM179.094 37.2621L178.644 39.446L178.656 39.4485L179.094 37.2621ZM176.808 36.4416L175.73 38.3938L175.745 38.4014L175.758 38.4089L176.808 36.4416ZM174.987 35.0147L172.962 34.079L172.338 35.4267L173.342 36.5213L174.987 35.0147ZM176.523 31.697L178.315 30.3675L176.074 27.3544L174.497 30.7614L176.523 31.697ZM178.772 33.445L179.611 31.3787L179.587 31.3689L179.562 31.3597L178.772 33.445ZM186.164 30.6268L184.047 29.9218L184.042 29.9363L184.037 29.9508L186.164 30.6268ZM186.735 26.9524L184.509 26.8041L184.504 26.859V26.9139L186.735 26.9524ZM186.985 23.2067L189.212 23.3549L189.371 20.9771H186.985V23.2067ZM186.628 23.2067V20.9771H184.538L184.402 23.0603L186.628 23.2067ZM183.664 29.949L184.796 31.8708L184.817 31.8585L184.837 31.8459L183.664 29.949ZM177.844 29.6636L176.4 31.3637L176.413 31.3743L176.426 31.3848L177.844 29.6636ZM176.058 26.774L173.919 27.4075L173.926 27.4313L173.934 27.4551L176.058 26.774ZM175.487 13.6104V11.3809H173.255V13.6104H175.487ZM179.343 13.6104H181.575V11.3809H179.343V13.6104ZM185.164 25.2757L183.197 24.2229L183.19 24.2361L183.183 24.2495L185.164 25.2757ZM186.199 13.6104V11.3809H183.968V13.6104H186.199ZM190.056 13.6104H192.287V11.3809H190.056V13.6104ZM189.841 29.6279L187.633 29.3051L187.63 29.3282L187.628 29.3514L189.841 29.6279ZM189.127 32.4462L187.045 31.6458L187.035 31.6692L187.027 31.6929L189.127 32.4462ZM187.663 34.979L185.958 33.5412L185.934 33.5698L185.91 33.5992L187.663 34.979ZM181.557 35.2822C180.902 35.2822 180.227 35.2149 179.531 35.0758L178.656 39.4485C179.626 39.6423 180.594 39.7414 181.557 39.7414V35.2822ZM179.544 35.0783C178.94 34.954 178.38 34.7522 177.858 34.4743L175.758 38.4089C176.665 38.8921 177.63 39.2374 178.644 39.446L179.544 35.0783ZM177.886 34.4895C177.404 34.2237 176.99 33.8975 176.633 33.5081L173.342 36.5213C174.032 37.2735 174.832 37.8985 175.73 38.3938L177.886 34.4895ZM177.014 35.9504L178.549 32.6328L174.497 30.7614L172.962 34.079L177.014 35.9504ZM174.732 33.0266C175.577 34.1652 176.662 35.0312 177.982 35.5304L179.562 31.3597C179.121 31.193 178.705 30.8937 178.315 30.3675L174.732 33.0266ZM177.934 35.5113C179.06 35.9673 180.225 36.2097 181.415 36.2097V31.7505C180.843 31.7505 180.246 31.6363 179.611 31.3787L177.934 35.5113ZM181.415 36.2097C183.047 36.2097 184.623 35.8387 185.896 34.8453L183.147 31.3314C182.896 31.527 182.401 31.7505 181.415 31.7505V36.2097ZM185.896 34.8453C187.059 33.9375 187.841 32.7164 188.29 31.3028L184.037 29.9508C183.821 30.63 183.508 31.0499 183.147 31.3314L185.896 34.8453ZM188.282 31.3319C188.723 30.0049 188.94 28.5484 188.967 26.9909L184.504 26.9139C184.483 28.1153 184.318 29.1083 184.047 29.9218L188.282 31.3319ZM188.962 27.1007L189.212 23.3549L184.759 23.0584L184.509 26.8041L188.962 27.1007ZM186.985 20.9771H186.628V25.4363H186.985V20.9771ZM184.402 23.0603C184.292 24.7113 184.007 25.8524 183.651 26.5969L187.678 28.5208C188.369 27.0773 188.726 25.317 188.855 23.353L184.402 23.0603ZM183.651 26.5969C183.261 27.4107 182.848 27.8318 182.491 28.052L184.837 31.8459C186.099 31.0674 187.019 29.895 187.678 28.5208L183.651 26.5969ZM182.533 28.0272C182.097 28.2834 181.577 28.4329 180.915 28.4329V32.8921C182.299 32.8921 183.613 32.5659 184.796 31.8708L182.533 28.0272ZM180.915 28.4329C180.097 28.4329 179.603 28.2225 179.263 27.9426L176.426 31.3848C177.704 32.4366 179.258 32.8921 180.915 32.8921V28.4329ZM179.288 27.9635C178.899 27.6341 178.497 27.0688 178.184 26.0931L173.934 27.4551C174.429 29.0003 175.218 30.3613 176.4 31.3637L179.288 27.9635ZM178.199 26.1406C177.895 25.1172 177.719 23.8078 177.719 22.1721H173.255C173.255 24.104 173.461 25.8624 173.919 27.4075L178.199 26.1406ZM177.719 22.1721V13.6104H173.255V22.1721H177.719ZM175.487 15.8401H179.343V11.3809H175.487V15.8401ZM177.112 13.6104V21.423H181.575V13.6104H177.112ZM177.112 21.423C177.112 23.4953 177.348 25.3831 178.061 26.8079L182.054 24.8138C181.815 24.336 181.575 23.2986 181.575 21.423H177.112ZM178.061 26.8079C178.445 27.5735 179.002 28.2689 179.781 28.7633C180.565 29.2609 181.438 29.4674 182.307 29.4674V25.0082C182.225 25.0082 182.182 24.9987 182.17 24.9953C182.159 24.9924 182.163 24.9926 182.173 24.9988C182.203 25.0176 182.147 24.9995 182.054 24.8138L178.061 26.8079ZM182.307 29.4674C183.353 29.4674 184.354 29.1777 185.23 28.565L182.67 24.9118C182.594 24.9649 182.5 25.0082 182.307 25.0082V29.4674ZM185.23 28.565C186.064 27.981 186.686 27.1865 187.146 26.302L183.183 24.2495C182.976 24.6492 182.787 24.8297 182.67 24.9118L185.23 28.565ZM187.131 26.3287C187.626 25.4047 187.951 24.3575 188.148 23.2343L183.751 22.4655C183.615 23.2449 183.415 23.815 183.197 24.2229L187.131 26.3287ZM188.148 23.2343C188.342 22.1266 188.431 20.8997 188.431 19.568H183.968C183.968 20.7096 183.891 21.6707 183.751 22.4655L188.148 23.2343ZM188.431 19.568V13.6104H183.968V19.568H188.431ZM186.199 15.8401H190.056V11.3809H186.199V15.8401ZM187.824 13.6104V26.9524H192.287V13.6104H187.824ZM187.824 26.9524C187.824 27.6327 187.764 28.4147 187.633 29.3051L192.05 29.9508C192.205 28.891 192.287 27.8894 192.287 26.9524H187.824ZM187.628 29.3514C187.532 30.117 187.34 30.8807 187.045 31.6458L191.211 33.2466C191.63 32.1565 191.914 31.0415 192.056 29.9045L187.628 29.3514ZM187.027 31.6929C186.785 32.3679 186.431 32.9808 185.958 33.5412L189.369 36.4169C190.182 35.455 190.804 34.3794 191.229 33.1994L187.027 31.6929ZM185.91 33.5992C185.534 34.0767 185.022 34.4835 184.316 34.8026L186.156 38.8654C187.449 38.2808 188.555 37.451 189.416 36.3589L185.91 33.5992ZM184.316 34.8026C183.682 35.0889 182.79 35.2822 181.557 35.2822V39.7414C183.229 39.7414 184.789 39.4829 186.156 38.8654L184.316 34.8026Z" fill="#301E5C"/>
</g>
<path d="M12.9393 29.5597L12.945 29.5589L16.9402 28.9885C17.3783 28.926 17.8326 28.7544 18.2143 28.5627C18.5986 28.3697 19.0003 28.1106 19.3105 27.8106L19.3236 27.7978L29.7829 17.3469C30.7494 16.3812 31.6328 15.1758 31.7768 13.71C31.9266 12.1857 31.2537 10.6883 29.7829 9.21872C28.3122 7.74912 26.8135 7.07673 25.2878 7.22638C23.8206 7.37028 22.6142 8.25305 21.6477 9.21872L11.1884 19.6697C10.8797 19.9782 10.6168 20.3826 10.4229 20.768C10.2296 21.1525 10.0587 21.6096 9.99657 22.0526L9.99624 22.0545L9.42659 26.0388L9.42626 26.041C9.27673 27.0631 9.55615 28.0448 10.2492 28.7345C10.9408 29.4227 11.9225 29.6995 12.9393 29.5597Z" fill="#301E5C" stroke="#301E5C" stroke-width="2.5" stroke-miterlimit="10" stroke-linecap="round" stroke-linejoin="round"/>
<path d="M10.1705 25.924L13.5986 24.3928L13.0366 28.1021L14.5692 31.527L10.8564 30.9655L7.42828 32.4967L7.99032 28.7874L6.4577 25.3625L10.1705 25.924Z" stroke="#FCB1A6" stroke-width="1.5" stroke-linecap="round" stroke-linejoin="round"/>
<path d="M22.4368 10.0069L11.9774 20.4578C11.5793 20.8557 11.1811 21.6383 11.1014 22.2085L10.5306 26.2006C10.3183 27.6462 11.3403 28.6542 12.7871 28.4552L16.7824 27.885C17.3398 27.8054 18.123 27.4075 18.5345 27.0096L28.9939 16.5587C30.799 14.7549 31.6485 12.6594 28.9939 10.0069C26.3392 7.35439 24.242 8.20319 22.4368 10.0069Z" fill="#301E5C" stroke="#FCB1A6" stroke-width="2" stroke-miterlimit="10" stroke-linecap="round" stroke-linejoin="round"/>
<path d="M22.0333 11.201C22.8152 13.9877 24.9976 16.168 27.7985 16.9608" stroke="#FCB1A6" stroke-width="2" stroke-miterlimit="10" stroke-linecap="round" stroke-linejoin="round"/>
<path d="M15.1633 3.79983L17.0416 0.928955L18.4349 4.06562L21.2963 5.95009L18.17 7.3481L16.2918 10.219L14.8985 7.08231L12.037 5.19784L15.1633 3.79983Z" stroke="#FCB1A6" stroke-width="1.5" stroke-linecap="round" stroke-linejoin="round"/>
<path d="M197.748 26.2413C198.015 26.0922 198.179 25.8092 198.177 25.5036C198.174 25.1978 198.004 24.9181 197.734 24.7739L195.752 23.7157L194.656 21.7555C194.507 21.4885 194.224 21.3243 193.918 21.3271C193.612 21.33 193.332 21.4994 193.188 21.7691L192.129 23.7493L190.166 24.8442C189.899 24.9932 189.734 25.2761 189.738 25.5819C189.741 25.8876 189.911 26.1674 190.179 26.3116L192.162 27.3697L193.258 29.3299C193.408 29.5969 193.69 29.7612 193.997 29.7583C194.303 29.7555 194.583 29.586 194.727 29.3163L195.786 27.3361L197.748 26.2413Z" fill="#301E5C" stroke="#301E5C" stroke-width="2.5" stroke-linecap="round" stroke-linejoin="round"/>
<path d="M193.922 24.3927V27.2726C193.922 29.3341 193.686 31.0414 193.179 32.4284" stroke="#FCB1A6" stroke-width="2" stroke-linecap="round" stroke-linejoin="round"/>
<path d="M195.142 24.3374L197.34 25.5113L195.164 26.7256L193.989 28.9221L192.773 26.7478L190.575 25.574L192.751 24.3596L193.926 22.1631L195.142 24.3374Z" fill="#301E5C" stroke="#FCB1A6" stroke-width="1.5" stroke-linecap="round" stroke-linejoin="round"/>
</g>
<defs>
<clipPath id="clip0_2288_661">
<rect width="200" height="40" fill="white"/>
</clipPath>
</defs>
</svg>
