<svg width="428" height="82" viewBox="0 0 428 82" fill="none" xmlns="http://www.w3.org/2000/svg">
<path d="M28.5137 13.583C13.3261 13.583 7.25098 19.6354 7.25098 34.7664V52.9235C7.25098 68.0544 13.3261 74.1067 28.5137 74.1067H392.725C403.564 74.1067 409.763 71.0242 412.423 63.7588C413.49 60.844 413.989 57.256 413.989 52.9235V46.871" stroke="white" stroke-width="4" stroke-linecap="round" stroke-linejoin="round"/>
<path d="M85.7881 64.7337C82.778 64.7337 80.0941 64.3338 77.7361 63.5341C75.4284 62.7345 73.4968 61.5849 71.9416 60.0854C70.4366 58.586 69.3579 56.7867 68.7058 54.6875C68.0537 52.5384 67.8528 50.1393 68.1037 47.4902L75.7795 46.0658C75.629 48.7648 75.9552 50.9888 76.7578 52.7382C77.6108 54.4877 78.8397 55.787 80.4452 56.6368C82.1008 57.4865 83.9821 57.9113 86.0892 57.9113C87.9956 57.9113 89.626 57.6365 90.9806 57.0866C92.3852 56.5367 93.4639 55.7622 94.2165 54.7625C94.969 53.7628 95.3452 52.5133 95.3452 51.0139C95.3452 49.1146 94.8185 47.6151 93.7649 46.5156C92.7114 45.366 91.3317 44.4415 89.626 43.7417C87.9204 43.0419 86.0892 42.3922 84.1326 41.7924C82.2261 41.1926 80.3199 40.543 78.4134 39.8432C76.5572 39.1434 74.8513 38.2688 73.2962 37.2192C71.7911 36.1197 70.5871 34.7702 69.6841 33.1707C68.781 31.5712 68.3295 29.5971 68.3295 27.248C68.3295 24.4489 69.0068 22.0249 70.3613 19.9757C71.7159 17.8765 73.6224 16.2521 76.0805 15.1025C78.589 13.903 81.5488 13.3032 84.9604 13.3032C88.4721 13.3032 91.5074 13.928 94.0659 15.1775C96.6746 16.377 98.6312 18.1763 99.9357 20.5754C101.29 22.9745 101.817 25.9235 101.516 29.4221L93.9154 30.6217C94.066 29.0723 93.9655 27.6479 93.6144 26.3483C93.2633 25.0487 92.6862 23.9241 91.8836 22.9745C91.081 22.0249 90.0776 21.3001 88.8735 20.8003C87.6695 20.3005 86.2648 20.0506 84.6594 20.0506C82.9537 20.0506 81.4736 20.3255 80.2194 20.8753C78.9653 21.4251 77.987 22.1998 77.2846 23.1994C76.6325 24.1992 76.3063 25.3737 76.3063 26.7232C76.3063 28.4224 76.8079 29.797 77.8114 30.8466C78.8148 31.8463 80.1442 32.671 81.7997 33.3206C83.4553 33.9204 85.2362 34.4951 87.1427 35.045C89.1494 35.6947 91.1059 36.3945 93.0124 37.1442C94.9189 37.8939 96.6497 38.8435 98.2048 39.9931C99.8103 41.1427 101.064 42.5672 101.967 44.2665C102.921 45.9657 103.397 48.09 103.397 50.639C103.397 53.588 102.695 56.112 101.29 58.2112C99.8856 60.3104 97.8537 61.9347 95.1947 63.0843C92.5861 64.1838 89.4504 64.7337 85.7881 64.7337ZM118.71 64.4338C115.148 64.4338 112.439 63.4592 110.583 61.5099C108.727 59.5107 107.798 56.5618 107.798 52.6633V31.2964H103.509V25.5236H104.939C106.795 25.3737 108.125 24.8238 108.927 23.8742C109.73 22.9245 110.206 21.4751 110.357 19.5258L110.658 16.377H115.775V24.6989H124.58V31.4464H115.775V51.6886C115.775 53.588 116.177 54.9623 116.979 55.8121C117.782 56.6618 118.861 57.0866 120.215 57.0866C120.918 57.0866 121.645 56.9865 122.397 56.7867C123.2 56.5367 123.928 56.1869 124.58 55.7371V63.4592C123.526 63.809 122.498 64.0589 121.494 64.2089C120.541 64.3588 119.613 64.4338 118.71 64.4338ZM138.391 64.7337C134.327 64.7337 131.342 63.2342 129.435 60.2354C127.579 57.1866 126.651 52.5133 126.651 46.2157V24.6989H134.778V45.7659C134.778 49.9144 135.255 52.8882 136.208 54.6875C137.211 56.4868 138.792 57.3865 140.949 57.3865C142.354 57.3865 143.583 57.0116 144.636 56.2619C145.74 55.4623 146.668 54.2876 147.421 52.7382C148.173 51.1889 148.725 49.2397 149.076 46.8905C149.478 44.5413 149.678 41.7425 149.678 38.4937V24.6989H157.806V44.1915L157.881 63.759H150.581L151.334 47.8651H150.732C150.381 51.9136 149.678 55.1872 148.625 57.6864C147.621 60.1353 146.267 61.9347 144.561 63.0843C142.855 64.1838 140.799 64.7337 138.391 64.7337ZM174.456 64.7337C171.847 64.7337 169.489 64.009 167.382 62.5595C165.325 61.0601 163.67 58.7859 162.415 55.7371C161.211 52.6883 160.609 48.8147 160.609 44.1165C160.609 39.6182 161.186 35.8697 162.34 32.8708C163.494 29.8221 165.074 27.5478 167.081 26.0484C169.138 24.4991 171.496 23.7243 174.155 23.7243C176.463 23.7243 178.419 24.2742 180.025 25.3737C181.68 26.4233 183.01 28.0726 184.013 30.3218C185.067 32.521 185.819 35.295 186.271 38.6436H186.948C186.647 36.4945 186.371 34.5202 186.12 32.7209C185.919 30.8717 185.769 29.1972 185.669 27.6978C185.568 26.1485 185.518 24.7488 185.518 23.4994V12.4785H193.721L193.57 46.8905L193.721 63.759H186.346L186.948 51.0139H186.271C185.719 54.1627 184.916 56.7616 183.862 58.8109C182.809 60.8602 181.504 62.3597 179.949 63.3092C178.394 64.2588 176.563 64.7337 174.456 64.7337ZM176.638 57.9862C178.093 57.9862 179.372 57.5863 180.476 56.7867C181.58 55.9871 182.483 54.9375 183.185 53.6379C183.938 52.3383 184.49 50.9389 184.841 49.4395C185.242 47.9401 185.443 46.4657 185.443 45.0162V44.1915C185.443 43.1419 185.317 42.0173 185.067 40.8178C184.866 39.6182 184.54 38.4438 184.088 37.2941C183.637 36.0946 183.06 35.0199 182.357 34.0704C181.705 33.0707 180.902 32.2961 179.949 31.7462C179.046 31.1465 177.993 30.8466 176.789 30.8466C175.183 30.8466 173.779 31.3965 172.575 32.496C171.421 33.5456 170.518 35.0949 169.865 37.1442C169.213 39.1935 168.887 41.6675 168.887 44.5664C168.887 47.2653 169.188 49.6394 169.79 51.6886C170.392 53.6878 171.27 55.2374 172.424 56.3369C173.578 57.4364 174.983 57.9862 176.638 57.9862ZM209.739 74.9298C208.033 74.9298 206.302 74.7548 204.546 74.405C202.841 74.0552 201.235 73.4803 199.73 72.6806C198.275 71.881 196.996 70.8813 195.892 69.6818L199.128 62.7094C200.433 64.4589 202.013 65.6832 203.869 66.383C205.725 67.1328 207.582 67.5076 209.438 67.5076C212.197 67.5076 214.379 66.8828 215.985 65.6333C217.59 64.3839 218.744 62.6595 219.446 60.4603C220.199 58.2112 220.6 55.6371 220.65 52.7382L221.177 44.8662H220.425C220.174 48.6647 219.497 51.7137 218.393 54.0128C217.289 56.3118 215.884 57.9862 214.179 59.0358C212.473 60.0355 210.541 60.5353 208.384 60.5353C205.776 60.5353 203.618 59.8355 201.913 58.4361C200.257 57.0367 199.003 55.0125 198.15 52.3634C197.347 49.6644 196.946 46.4406 196.946 42.6921V24.6989H205.073V41.1177C205.073 45.2662 205.575 48.34 206.578 50.3392C207.582 52.3383 209.162 53.338 211.319 53.338C212.624 53.338 213.777 52.9882 214.781 52.2884C215.784 51.5886 216.637 50.5641 217.339 49.2146C218.092 47.8152 218.644 46.1157 218.995 44.1165C219.346 42.1174 219.522 39.8181 219.522 37.2192V24.6989H227.649V52.7382C227.649 54.4375 227.498 56.3118 227.197 58.3611C226.947 60.3603 226.445 62.3346 225.692 64.2838C224.99 66.2331 223.962 68.0074 222.607 69.6068C221.303 71.2562 219.597 72.5558 217.49 73.5053C215.383 74.4549 212.799 74.9298 209.739 74.9298ZM231.526 63.759V14.2778H247.779C250.54 14.2778 252.972 14.5527 255.079 15.1025C257.186 15.6523 258.968 16.477 260.422 17.5766C261.927 18.6262 263.055 19.9257 263.808 21.4751C264.56 23.0245 264.937 24.8238 264.937 26.8731C264.937 28.8723 264.537 30.6966 263.733 32.346C262.931 33.9455 261.677 35.2448 259.97 36.2445C258.314 37.2442 256.132 37.844 253.423 38.0438V38.7186C257.889 38.9686 261.226 40.143 263.432 42.2422C265.689 44.2915 266.818 47.1154 266.818 50.714C266.818 53.513 266.141 55.887 264.786 57.8363C263.483 59.7856 261.55 61.2599 258.992 62.2596C256.485 63.2593 253.324 63.759 249.51 63.759H231.526ZM239.652 57.0116H249.134C252.294 57.0116 254.653 56.4118 256.207 55.2123C257.814 54.0128 258.616 52.1884 258.616 49.7394C258.616 46.9905 257.637 44.9412 255.681 43.5917C253.776 42.2422 250.89 41.5675 247.027 41.5675H239.652V57.0116ZM239.652 35.5698H247.177C250.389 35.5698 252.772 34.9449 254.326 33.6955C255.932 32.4461 256.734 30.5966 256.734 28.1476C256.734 25.7485 255.958 23.9743 254.401 22.8246C252.847 21.625 250.439 21.0253 247.177 21.0253H239.652V35.5698ZM280.747 64.7337C276.683 64.7337 273.699 63.2342 271.792 60.2354C269.936 57.1866 269.007 52.5133 269.007 46.2157V24.6989H277.135V45.7659C277.135 49.9144 277.612 52.8882 278.565 54.6875C279.569 56.4868 281.149 57.3865 283.305 57.3865C284.712 57.3865 285.939 57.0116 286.993 56.2619C288.098 55.4623 289.025 54.2876 289.777 52.7382C290.53 51.1889 291.082 49.2397 291.433 46.8905C291.835 44.5413 292.035 41.7425 292.035 38.4937V24.6989H300.162V44.1915L300.237 63.759H292.938L293.69 47.8651H293.088C292.738 51.9136 292.035 55.1872 290.981 57.6864C289.979 60.1353 288.625 61.9347 286.918 63.0843C285.213 64.1838 283.155 64.7337 280.747 64.7337ZM316.812 64.7337C314.204 64.7337 311.845 64.009 309.738 62.5595C307.683 61.0601 306.027 58.7859 304.771 55.7371C303.567 52.6883 302.965 48.8147 302.965 44.1165C302.965 39.6182 303.544 35.8697 304.696 32.8708C305.851 29.8221 307.431 27.5478 309.437 26.0484C311.495 24.4991 313.853 23.7243 316.511 23.7243C318.82 23.7243 320.777 24.2742 322.38 25.3737C324.036 26.4233 325.367 28.0726 326.369 30.3218C327.422 32.521 328.175 35.295 328.626 38.6436H329.304C329.003 36.4945 328.728 34.5202 328.476 32.7209C328.276 30.8717 328.126 29.1972 328.024 27.6978C327.926 26.1485 327.874 24.7488 327.874 23.4994V12.4785H336.076L335.926 46.8905L336.076 63.759H328.702L329.304 51.0139H328.626C328.076 54.1627 327.272 56.7616 326.218 58.8109C325.165 60.8602 323.862 62.3597 322.305 63.3092C320.751 64.2588 318.919 64.7337 316.812 64.7337ZM318.994 57.9862C320.45 57.9862 321.729 57.5863 322.832 56.7867C323.937 55.9871 324.84 54.9375 325.541 53.6379C326.294 52.3383 326.846 50.9389 327.197 49.4395C327.599 47.9401 327.799 46.4657 327.799 45.0162V44.1915C327.799 43.1419 327.674 42.0173 327.422 40.8178C327.223 39.6182 326.896 38.4438 326.444 37.2941C325.993 36.0946 325.416 35.0199 324.713 34.0704C324.062 33.0707 323.26 32.2961 322.305 31.7462C321.402 31.1465 320.349 30.8466 319.145 30.8466C317.541 30.8466 316.134 31.3965 314.93 32.496C313.778 33.5456 312.875 35.0949 312.221 37.1442C311.57 39.1935 311.243 41.6675 311.243 44.5664C311.243 47.2653 311.544 49.6394 312.146 51.6886C312.748 53.6878 313.628 55.2374 314.78 56.3369C315.935 57.4364 317.339 57.9862 318.994 57.9862ZM352.55 64.7337C349.939 64.7337 347.583 64.009 345.476 62.5595C343.418 61.0601 341.763 58.7859 340.509 55.7371C339.305 52.6883 338.703 48.8147 338.703 44.1165C338.703 39.6182 339.279 35.8697 340.434 32.8708C341.586 29.8221 343.167 27.5478 345.175 26.0484C347.23 24.4991 349.589 23.7243 352.249 23.7243C354.556 23.7243 356.512 24.2742 358.118 25.3737C359.774 26.4233 361.103 28.0726 362.107 30.3218C363.16 32.521 363.913 35.295 364.364 38.6436H365.042C364.741 36.4945 364.463 34.5202 364.214 32.7209C364.012 30.8717 363.861 29.1972 363.762 27.6978C363.661 26.1485 363.612 24.7488 363.612 23.4994V12.4785H371.814L371.664 46.8905L371.814 63.759H364.44L365.042 51.0139H364.364C363.812 54.1627 363.01 56.7616 361.956 58.8109C360.903 60.8602 359.598 62.3597 358.043 63.3092C356.486 64.2588 354.657 64.7337 352.55 64.7337ZM354.732 57.9862C356.185 57.9862 357.465 57.5863 358.57 56.7867C359.673 55.9871 360.576 54.9375 361.279 53.6379C362.032 52.3383 362.582 50.9389 362.935 49.4395C363.334 47.9401 363.537 46.4657 363.537 45.0162V44.1915C363.537 43.1419 363.41 42.0173 363.16 40.8178C362.958 39.6182 362.634 38.4438 362.182 37.2941C361.731 36.0946 361.152 35.0199 360.451 34.0704C359.798 33.0707 358.996 32.2961 358.043 31.7462C357.14 31.1465 356.087 30.8466 354.883 30.8466C353.276 30.8466 351.872 31.3965 350.668 32.496C349.514 33.5456 348.611 35.0949 347.959 37.1442C347.306 39.1935 346.981 41.6675 346.981 44.5664C346.981 47.2653 347.282 49.6394 347.884 51.6886C348.486 53.6878 349.363 55.2374 350.518 56.3369C351.67 57.4364 353.077 57.9862 354.732 57.9862ZM387.832 74.9298C386.127 74.9298 384.396 74.7548 382.639 74.405C380.934 74.0552 379.328 73.4803 377.823 72.6806C376.37 71.881 375.09 70.8813 373.985 69.6818L377.221 62.7094C378.526 64.4589 380.106 65.6832 381.962 66.383C383.82 67.1328 385.675 67.5076 387.531 67.5076C390.291 67.5076 392.474 66.8828 394.078 65.6333C395.684 64.3839 396.838 62.6595 397.539 60.4603C398.292 58.2112 398.694 55.6371 398.743 52.7382L399.27 44.8662H398.517C398.268 48.6647 397.591 51.7137 396.486 54.0128C395.383 56.3118 393.979 57.9862 392.271 59.0358C390.567 60.0355 388.636 60.5353 386.477 60.5353C383.869 60.5353 381.713 59.8355 380.005 58.4361C378.35 57.0367 377.096 55.0125 376.243 52.3634C375.441 49.6644 375.039 46.4406 375.039 42.6921V24.6989H383.166V41.1177C383.166 45.2662 383.669 48.34 384.671 50.3392C385.675 52.3383 387.255 53.338 389.412 53.338C390.717 53.338 391.872 52.9882 392.873 52.2884C393.878 51.5886 394.731 50.5641 395.432 49.2146C396.185 47.8152 396.737 46.1157 397.088 44.1165C397.44 42.1174 397.614 39.8181 397.614 37.2192V24.6989H405.742V52.7382C405.742 54.4375 405.591 56.3118 405.29 58.3611C405.041 60.3603 404.538 62.3346 403.785 64.2838C403.084 66.2331 402.054 68.0074 400.7 69.6068C399.397 71.2562 397.69 72.5558 395.583 73.5053C393.475 74.4549 390.893 74.9298 387.832 74.9298Z" fill="white"/>
<mask id="mask0_1955_5776" style="mask-type:luminance" maskUnits="userSpaceOnUse" x="61" y="7" width="351" height="74">
<path d="M411.538 7.53027H61.1429V80.1588H411.538V7.53027Z" fill="white"/>
<path d="M85.7881 64.7337C82.778 64.7337 80.0941 64.3338 77.7361 63.5341C75.4284 62.7345 73.4968 61.5849 71.9416 60.0854C70.4366 58.586 69.3579 56.7867 68.7058 54.6875C68.0537 52.5384 67.8528 50.1393 68.1037 47.4902L75.7795 46.0658C75.629 48.7648 75.9552 50.9888 76.7578 52.7382C77.6108 54.4877 78.8397 55.787 80.4452 56.6368C82.1008 57.4865 83.9821 57.9113 86.0892 57.9113C87.9956 57.9113 89.626 57.6365 90.9806 57.0866C92.3852 56.5367 93.4639 55.7622 94.2165 54.7625C94.969 53.7628 95.3452 52.5133 95.3452 51.0139C95.3452 49.1146 94.8185 47.6151 93.7649 46.5156C92.7114 45.366 91.3317 44.4415 89.626 43.7417C87.9204 43.0419 86.0892 42.3922 84.1326 41.7924C82.2261 41.1926 80.3199 40.543 78.4134 39.8432C76.5572 39.1434 74.8513 38.2688 73.2962 37.2192C71.7911 36.1197 70.5871 34.7702 69.6841 33.1707C68.781 31.5712 68.3295 29.5971 68.3295 27.248C68.3295 24.4489 69.0068 22.0249 70.3613 19.9757C71.7159 17.8765 73.6224 16.2521 76.0805 15.1025C78.589 13.903 81.5488 13.3032 84.9604 13.3032C88.4721 13.3032 91.5074 13.928 94.0659 15.1775C96.6746 16.377 98.6312 18.1763 99.9357 20.5754C101.29 22.9745 101.817 25.9235 101.516 29.4221L93.9154 30.6217C94.066 29.0723 93.9655 27.6479 93.6144 26.3483C93.2633 25.0487 92.6862 23.9241 91.8836 22.9745C91.081 22.0249 90.0776 21.3001 88.8735 20.8003C87.6695 20.3005 86.2648 20.0506 84.6594 20.0506C82.9537 20.0506 81.4736 20.3255 80.2194 20.8753C78.9653 21.4251 77.987 22.1998 77.2846 23.1994C76.6325 24.1992 76.3063 25.3737 76.3063 26.7232C76.3063 28.4224 76.8079 29.797 77.8114 30.8466C78.8148 31.8463 80.1442 32.671 81.7997 33.3206C83.4553 33.9204 85.2362 34.4951 87.1427 35.045C89.1494 35.6947 91.1059 36.3945 93.0124 37.1442C94.9189 37.8939 96.6497 38.8435 98.2048 39.9931C99.8103 41.1427 101.064 42.5672 101.967 44.2665C102.921 45.9657 103.397 48.09 103.397 50.639C103.397 53.588 102.695 56.112 101.29 58.2112C99.8856 60.3104 97.8537 61.9347 95.1947 63.0843C92.5861 64.1838 89.4504 64.7337 85.7881 64.7337ZM118.71 64.4338C115.148 64.4338 112.439 63.4592 110.583 61.5099C108.727 59.5107 107.798 56.5618 107.798 52.6633V31.2964H103.509V25.5236H104.939C106.795 25.3737 108.125 24.8238 108.927 23.8742C109.73 22.9245 110.206 21.4751 110.357 19.5258L110.658 16.377H115.775V24.6989H124.58V31.4464H115.775V51.6886C115.775 53.588 116.177 54.9623 116.979 55.8121C117.782 56.6618 118.861 57.0866 120.215 57.0866C120.918 57.0866 121.645 56.9865 122.397 56.7867C123.2 56.5367 123.928 56.1869 124.58 55.7371V63.4592C123.526 63.809 122.498 64.0589 121.494 64.2089C120.541 64.3588 119.613 64.4338 118.71 64.4338ZM138.391 64.7337C134.327 64.7337 131.342 63.2342 129.435 60.2354C127.579 57.1866 126.651 52.5133 126.651 46.2157V24.6989H134.778V45.7659C134.778 49.9144 135.255 52.8882 136.208 54.6875C137.211 56.4868 138.792 57.3865 140.949 57.3865C142.354 57.3865 143.583 57.0116 144.636 56.2619C145.74 55.4623 146.668 54.2876 147.421 52.7382C148.173 51.1889 148.725 49.2397 149.076 46.8905C149.478 44.5413 149.678 41.7425 149.678 38.4937V24.6989H157.806V44.1915L157.881 63.759H150.581L151.334 47.8651H150.732C150.381 51.9136 149.678 55.1872 148.625 57.6864C147.621 60.1353 146.267 61.9347 144.561 63.0843C142.855 64.1838 140.799 64.7337 138.391 64.7337ZM174.456 64.7337C171.847 64.7337 169.489 64.009 167.382 62.5595C165.325 61.0601 163.67 58.7859 162.415 55.7371C161.211 52.6883 160.609 48.8147 160.609 44.1165C160.609 39.6182 161.186 35.8697 162.34 32.8708C163.494 29.8221 165.074 27.5478 167.081 26.0484C169.138 24.4991 171.496 23.7243 174.155 23.7243C176.463 23.7243 178.419 24.2742 180.025 25.3737C181.68 26.4233 183.01 28.0726 184.013 30.3218C185.067 32.521 185.819 35.295 186.271 38.6436H186.948C186.647 36.4945 186.371 34.5202 186.12 32.7209C185.919 30.8717 185.769 29.1972 185.669 27.6978C185.568 26.1485 185.518 24.7488 185.518 23.4994V12.4785H193.721L193.57 46.8905L193.721 63.759H186.346L186.948 51.0139H186.271C185.719 54.1627 184.916 56.7616 183.862 58.8109C182.809 60.8602 181.504 62.3597 179.949 63.3092C178.394 64.2588 176.563 64.7337 174.456 64.7337ZM176.638 57.9862C178.093 57.9862 179.372 57.5863 180.476 56.7867C181.58 55.9871 182.483 54.9375 183.185 53.6379C183.938 52.3383 184.49 50.9389 184.841 49.4395C185.242 47.9401 185.443 46.4657 185.443 45.0162V44.1915C185.443 43.1419 185.317 42.0173 185.067 40.8178C184.866 39.6182 184.54 38.4438 184.088 37.2941C183.637 36.0946 183.06 35.0199 182.357 34.0704C181.705 33.0707 180.902 32.2961 179.949 31.7462C179.046 31.1465 177.993 30.8466 176.789 30.8466C175.183 30.8466 173.779 31.3965 172.575 32.496C171.421 33.5456 170.518 35.0949 169.865 37.1442C169.213 39.1935 168.887 41.6675 168.887 44.5664C168.887 47.2653 169.188 49.6394 169.79 51.6886C170.392 53.6878 171.27 55.2374 172.424 56.3369C173.578 57.4364 174.983 57.9862 176.638 57.9862ZM209.739 74.9298C208.033 74.9298 206.302 74.7548 204.546 74.405C202.841 74.0552 201.235 73.4803 199.73 72.6806C198.275 71.881 196.996 70.8813 195.892 69.6818L199.128 62.7094C200.433 64.4589 202.013 65.6832 203.869 66.383C205.725 67.1328 207.582 67.5076 209.438 67.5076C212.197 67.5076 214.379 66.8828 215.985 65.6333C217.59 64.3839 218.744 62.6595 219.446 60.4603C220.199 58.2112 220.6 55.6371 220.65 52.7382L221.177 44.8662H220.425C220.174 48.6647 219.497 51.7137 218.393 54.0128C217.289 56.3118 215.884 57.9862 214.179 59.0358C212.473 60.0355 210.541 60.5353 208.384 60.5353C205.776 60.5353 203.618 59.8355 201.913 58.4361C200.257 57.0367 199.003 55.0125 198.15 52.3634C197.347 49.6644 196.946 46.4406 196.946 42.6921V24.6989H205.073V41.1177C205.073 45.2662 205.575 48.34 206.578 50.3392C207.582 52.3383 209.162 53.338 211.319 53.338C212.624 53.338 213.777 52.9882 214.781 52.2884C215.784 51.5886 216.637 50.5641 217.339 49.2146C218.092 47.8152 218.644 46.1157 218.995 44.1165C219.346 42.1174 219.522 39.8181 219.522 37.2192V24.6989H227.649V52.7382C227.649 54.4375 227.498 56.3118 227.197 58.3611C226.947 60.3603 226.445 62.3346 225.692 64.2838C224.99 66.2331 223.962 68.0074 222.607 69.6068C221.303 71.2562 219.597 72.5558 217.49 73.5053C215.383 74.4549 212.799 74.9298 209.739 74.9298ZM231.526 63.759V14.2778H247.779C250.54 14.2778 252.972 14.5527 255.079 15.1025C257.186 15.6523 258.968 16.477 260.422 17.5766C261.927 18.6262 263.055 19.9257 263.808 21.4751C264.56 23.0245 264.937 24.8238 264.937 26.8731C264.937 28.8723 264.537 30.6966 263.733 32.346C262.931 33.9455 261.677 35.2448 259.97 36.2445C258.314 37.2442 256.132 37.844 253.423 38.0438V38.7186C257.889 38.9686 261.226 40.143 263.432 42.2422C265.689 44.2915 266.818 47.1154 266.818 50.714C266.818 53.513 266.141 55.887 264.786 57.8363C263.483 59.7856 261.55 61.2599 258.992 62.2596C256.485 63.2593 253.324 63.759 249.51 63.759H231.526ZM239.652 57.0116H249.134C252.294 57.0116 254.653 56.4118 256.207 55.2123C257.814 54.0128 258.616 52.1884 258.616 49.7394C258.616 46.9905 257.637 44.9412 255.681 43.5917C253.776 42.2422 250.89 41.5675 247.027 41.5675H239.652V57.0116ZM239.652 35.5698H247.177C250.389 35.5698 252.772 34.9449 254.326 33.6955C255.932 32.4461 256.734 30.5966 256.734 28.1476C256.734 25.7485 255.958 23.9743 254.401 22.8246C252.847 21.625 250.439 21.0253 247.177 21.0253H239.652V35.5698ZM280.747 64.7337C276.683 64.7337 273.699 63.2342 271.792 60.2354C269.936 57.1866 269.007 52.5133 269.007 46.2157V24.6989H277.135V45.7659C277.135 49.9144 277.612 52.8882 278.565 54.6875C279.569 56.4868 281.149 57.3865 283.305 57.3865C284.712 57.3865 285.939 57.0116 286.993 56.2619C288.098 55.4623 289.025 54.2876 289.777 52.7382C290.53 51.1889 291.082 49.2397 291.433 46.8905C291.835 44.5413 292.035 41.7425 292.035 38.4937V24.6989H300.162V44.1915L300.237 63.759H292.938L293.69 47.8651H293.088C292.738 51.9136 292.035 55.1872 290.981 57.6864C289.979 60.1353 288.625 61.9347 286.918 63.0843C285.213 64.1838 283.155 64.7337 280.747 64.7337ZM316.812 64.7337C314.204 64.7337 311.845 64.009 309.738 62.5595C307.683 61.0601 306.027 58.7859 304.771 55.7371C303.567 52.6883 302.965 48.8147 302.965 44.1165C302.965 39.6182 303.544 35.8697 304.696 32.8708C305.851 29.8221 307.431 27.5478 309.437 26.0484C311.495 24.4991 313.853 23.7243 316.511 23.7243C318.82 23.7243 320.777 24.2742 322.38 25.3737C324.036 26.4233 325.367 28.0726 326.369 30.3218C327.422 32.521 328.175 35.295 328.626 38.6436H329.304C329.003 36.4945 328.728 34.5202 328.476 32.7209C328.276 30.8717 328.126 29.1972 328.024 27.6978C327.926 26.1485 327.874 24.7488 327.874 23.4994V12.4785H336.076L335.926 46.8905L336.076 63.759H328.702L329.304 51.0139H328.626C328.076 54.1627 327.272 56.7616 326.218 58.8109C325.165 60.8602 323.862 62.3597 322.305 63.3092C320.751 64.2588 318.919 64.7337 316.812 64.7337ZM318.994 57.9862C320.45 57.9862 321.729 57.5863 322.832 56.7867C323.937 55.9871 324.84 54.9375 325.541 53.6379C326.294 52.3383 326.846 50.9389 327.197 49.4395C327.599 47.9401 327.799 46.4657 327.799 45.0162V44.1915C327.799 43.1419 327.674 42.0173 327.422 40.8178C327.223 39.6182 326.896 38.4438 326.444 37.2941C325.993 36.0946 325.416 35.0199 324.713 34.0704C324.062 33.0707 323.26 32.2961 322.305 31.7462C321.402 31.1465 320.349 30.8466 319.145 30.8466C317.541 30.8466 316.134 31.3965 314.93 32.496C313.778 33.5456 312.875 35.0949 312.221 37.1442C311.57 39.1935 311.243 41.6675 311.243 44.5664C311.243 47.2653 311.544 49.6394 312.146 51.6886C312.748 53.6878 313.628 55.2374 314.78 56.3369C315.935 57.4364 317.339 57.9862 318.994 57.9862ZM352.55 64.7337C349.939 64.7337 347.583 64.009 345.476 62.5595C343.418 61.0601 341.763 58.7859 340.509 55.7371C339.305 52.6883 338.703 48.8147 338.703 44.1165C338.703 39.6182 339.279 35.8697 340.434 32.8708C341.586 29.8221 343.167 27.5478 345.175 26.0484C347.23 24.4991 349.589 23.7243 352.249 23.7243C354.556 23.7243 356.512 24.2742 358.118 25.3737C359.774 26.4233 361.103 28.0726 362.107 30.3218C363.16 32.521 363.913 35.295 364.364 38.6436H365.042C364.741 36.4945 364.463 34.5202 364.214 32.7209C364.012 30.8717 363.861 29.1972 363.762 27.6978C363.661 26.1485 363.612 24.7488 363.612 23.4994V12.4785H371.814L371.664 46.8905L371.814 63.759H364.44L365.042 51.0139H364.364C363.812 54.1627 363.01 56.7616 361.956 58.8109C360.903 60.8602 359.598 62.3597 358.043 63.3092C356.486 64.2588 354.657 64.7337 352.55 64.7337ZM354.732 57.9862C356.185 57.9862 357.465 57.5863 358.57 56.7867C359.673 55.9871 360.576 54.9375 361.279 53.6379C362.032 52.3383 362.582 50.9389 362.935 49.4395C363.334 47.9401 363.537 46.4657 363.537 45.0162V44.1915C363.537 43.1419 363.41 42.0173 363.16 40.8178C362.958 39.6182 362.634 38.4438 362.182 37.2941C361.731 36.0946 361.152 35.0199 360.451 34.0704C359.798 33.0707 358.996 32.2961 358.043 31.7462C357.14 31.1465 356.087 30.8466 354.883 30.8466C353.276 30.8466 351.872 31.3965 350.668 32.496C349.514 33.5456 348.611 35.0949 347.959 37.1442C347.306 39.1935 346.981 41.6675 346.981 44.5664C346.981 47.2653 347.282 49.6394 347.884 51.6886C348.486 53.6878 349.363 55.2374 350.518 56.3369C351.67 57.4364 353.077 57.9862 354.732 57.9862ZM387.832 74.9298C386.127 74.9298 384.396 74.7548 382.639 74.405C380.934 74.0552 379.328 73.4803 377.823 72.6806C376.37 71.881 375.09 70.8813 373.985 69.6818L377.221 62.7094C378.526 64.4589 380.106 65.6832 381.962 66.383C383.82 67.1328 385.675 67.5076 387.531 67.5076C390.291 67.5076 392.474 66.8828 394.078 65.6333C395.684 64.3839 396.838 62.6595 397.539 60.4603C398.292 58.2112 398.694 55.6371 398.743 52.7382L399.27 44.8662H398.517C398.268 48.6647 397.591 51.7137 396.486 54.0128C395.383 56.3118 393.979 57.9862 392.271 59.0358C390.567 60.0355 388.636 60.5353 386.477 60.5353C383.869 60.5353 381.713 59.8355 380.005 58.4361C378.35 57.0367 377.096 55.0125 376.243 52.3634C375.441 49.6644 375.039 46.4406 375.039 42.6921V24.6989H383.166V41.1177C383.166 45.2662 383.669 48.34 384.671 50.3392C385.675 52.3383 387.255 53.338 389.412 53.338C390.717 53.338 391.872 52.9882 392.873 52.2884C393.878 51.5886 394.731 50.5641 395.432 49.2146C396.185 47.8152 396.737 46.1157 397.088 44.1165C397.44 42.1174 397.614 39.8181 397.614 37.2192V24.6989H405.742V52.7382C405.742 54.4375 405.591 56.3118 405.29 58.3611C405.041 60.3603 404.538 62.3346 403.785 64.2838C403.084 66.2331 402.054 68.0074 400.7 69.6068C399.397 71.2562 397.69 72.5558 395.583 73.5053C393.475 74.4549 390.893 74.9298 387.832 74.9298Z" fill="black"/>
</mask>
<g mask="url(#mask0_1955_5776)">
<path d="M77.7361 63.5343L76.1908 67.96L76.2205 67.97L77.7361 63.5343ZM71.9416 60.0856L68.6159 63.3989L68.6432 63.4261L68.671 63.4528L71.9416 60.0856ZM68.7058 54.6877L64.2035 56.0437L64.2127 56.0732L68.7058 54.6877ZM68.1037 47.4904L67.2426 42.8839L63.7544 43.5312L63.4211 47.0504L68.1037 47.4904ZM75.7795 46.066L80.4755 46.326L80.8078 40.3665L74.9183 41.4594L75.7795 46.066ZM76.7578 52.7384L72.4804 54.6865L72.5032 54.7364L72.5272 54.7856L76.7578 52.7384ZM80.4452 56.6369L78.2386 60.7749L78.265 60.7889L78.2913 60.8025L80.4452 56.6369ZM90.9806 57.0868L89.2608 52.7255L89.2333 52.7363L89.206 52.7473L90.9806 57.0868ZM93.7649 46.5158L90.2915 49.6751L90.3268 49.7136L90.3628 49.7513L93.7649 46.5158ZM84.1326 41.7926L82.7162 46.2609L82.7329 46.266L82.7493 46.2712L84.1326 41.7926ZM78.4134 39.8433L76.7489 44.2259L76.7682 44.2331L76.7874 44.2402L78.4134 39.8433ZM73.2962 37.2193L70.5149 40.9979L70.5857 41.0497L70.6583 41.0986L73.2962 37.2193ZM70.3613 19.9758L74.2893 22.5529L74.3036 22.5314L74.3177 22.5097L70.3613 19.9758ZM76.0805 15.1027L78.079 19.3444L78.0975 19.3357L78.1159 19.327L76.0805 15.1027ZM94.0659 15.1777L91.9958 19.3851L92.0452 19.4092L92.095 19.4321L94.0659 15.1777ZM99.9356 20.5756L95.8 22.8073L95.8179 22.8402L95.8363 22.8728L99.9356 20.5756ZM101.516 29.4223L102.252 34.0504L105.888 33.4766L106.202 29.8225L101.516 29.4223ZM93.9154 30.6218L89.234 30.1706L88.6487 36.1971L94.6513 35.2499L93.9154 30.6218ZM77.2846 23.1996L73.4314 20.5125L73.3851 20.5785L73.3411 20.6459L77.2846 23.1996ZM77.8113 30.8468L74.4055 34.0783L74.445 34.1197L74.4856 34.16L77.8113 30.8468ZM81.7997 33.3208L80.076 37.6804L80.1338 37.7031L80.1924 37.7244L81.7997 33.3208ZM87.1427 35.0452L88.5965 30.5888L88.5238 30.5654L88.4504 30.5443L87.1427 35.0452ZM98.2048 39.9933L95.4024 43.7564L95.4311 43.7775L95.4598 43.7981L98.2048 39.9933ZM101.967 44.2666L97.8107 46.4591L97.8356 46.5059L97.8617 46.5526L101.967 44.2666ZM95.1947 63.0845L97.0274 67.3998L97.0474 67.3916L97.0671 67.3829L95.1947 63.0845ZM85.7881 60.0481C83.1896 60.0481 81.0322 59.7023 79.2517 59.0986L76.2205 67.97C79.156 68.9657 82.3665 69.4196 85.7881 69.4196V60.0481ZM79.2811 59.1086C77.5355 58.5037 76.2167 57.6868 75.2123 56.7185L68.671 63.4528C70.7771 65.4836 73.3209 66.9654 76.1908 67.96L79.2811 59.1086ZM75.2673 56.7723C74.3229 55.8315 73.6334 54.7013 73.1988 53.3021L64.2127 56.0732C65.0826 58.8725 66.5502 61.3411 68.6159 63.3989L75.2673 56.7723ZM73.2078 53.3316C72.7614 51.861 72.5822 50.0847 72.7863 47.9306L63.4211 47.0504C63.1234 50.1943 63.3454 53.2161 64.2035 56.0437L73.2078 53.3316ZM68.9649 52.0969L76.6407 50.6725L74.9183 41.4594L67.2426 42.8839L68.9649 52.0969ZM71.0835 45.8061C70.9069 48.9744 71.258 52.0231 72.4804 54.6865L81.0352 50.7903C80.6521 49.9551 80.3511 48.5557 80.4755 46.326L71.0835 45.8061ZM72.5272 54.7856C73.7813 57.3581 75.6869 59.4245 78.2386 60.7749L82.6517 52.499C81.9928 52.1501 81.4399 51.6174 80.9884 50.6912L72.5272 54.7856ZM78.2913 60.8025C80.6961 62.0367 83.3321 62.5972 86.0892 62.5972V53.2257C84.6321 53.2257 83.5054 52.9366 82.5991 52.4716L78.2913 60.8025ZM86.0892 62.5972C88.4283 62.5972 90.6946 62.2626 92.7551 61.4262L89.206 52.7473C88.5574 53.0107 87.5627 53.2257 86.0892 53.2257V62.5972ZM92.7003 61.448C94.751 60.6453 96.6055 59.3989 97.9791 57.5741L90.4538 51.9512C90.3224 52.1258 90.0197 52.4285 89.2608 52.7255L92.7003 61.448ZM97.9791 57.5741C99.4569 55.611 100.049 53.3187 100.049 51.0141H90.6419C90.6419 51.7083 90.4811 51.9151 90.4538 51.9512L97.9791 57.5741ZM100.049 51.0141C100.049 48.2251 99.2513 45.4559 97.1671 43.2805L90.3628 49.7513C90.3856 49.7749 90.6419 50.0045 90.6419 51.0141H100.049ZM97.2383 43.3564C95.6406 41.6131 93.6488 40.3245 91.4168 39.4092L87.8352 48.0747C89.0148 48.5585 89.7822 49.1194 90.2915 49.6751L97.2383 43.3564ZM91.4168 39.4092C89.5639 38.6489 87.5956 37.9517 85.5158 37.3142L82.7493 46.2712C84.5827 46.833 86.2766 47.4354 87.8352 48.0747L91.4168 39.4092ZM85.549 37.3243C83.714 36.7472 81.8776 36.1212 80.0393 35.4465L76.7874 44.2402C78.7621 44.9648 80.7382 45.6386 82.7162 46.2609L85.549 37.3243ZM80.0779 35.4608C78.5453 34.8833 77.1689 34.1734 75.934 33.34L70.6583 41.0986C72.5338 42.3645 74.5689 43.404 76.7489 44.2259L80.0779 35.4608ZM76.0775 33.4408C75.1053 32.7304 74.3535 31.8835 73.7834 30.8737L65.5847 35.468C66.8207 37.657 68.4769 39.509 70.5149 40.9979L76.0775 33.4408ZM73.7834 30.8737C73.3721 30.1455 73.0328 29.013 73.0328 27.2481H63.6262C63.6262 30.1814 64.1899 32.9975 65.5847 35.468L73.7834 30.8737ZM73.0328 27.2481C73.0328 25.2326 73.5092 23.7334 74.2893 22.5529L66.4334 17.3987C64.5043 20.3168 63.6262 23.6659 63.6262 27.2481H73.0328ZM74.3177 22.5097C75.1535 21.2141 76.3517 20.1522 78.079 19.3444L74.0821 10.861C70.893 12.3523 68.2782 14.5391 66.4049 17.442L74.3177 22.5097ZM78.1159 19.327C79.862 18.492 82.0972 17.9891 84.9604 17.9891V8.61765C81.0004 8.61765 77.3161 9.3143 74.0452 10.8784L78.1159 19.327ZM84.9604 17.9891C87.918 17.9891 90.2139 18.5148 91.9958 19.3851L96.1361 10.9703C92.8007 9.34143 89.0264 8.61765 84.9604 8.61765V17.9891ZM92.095 19.4321C93.8303 20.2301 95.004 21.3431 95.8 22.8073L104.071 18.3439C102.259 15.0099 99.5189 12.5243 96.0369 10.9232L92.095 19.4321ZM95.8363 22.8728C96.6151 24.2523 97.0723 26.2032 96.8298 29.0221L106.202 29.8225C106.562 25.6442 105.965 21.6972 104.035 18.2784L95.8363 22.8728ZM100.78 24.7942L93.1796 25.9938L94.6513 35.2499L102.252 34.0504L100.78 24.7942ZM98.5969 31.0733C98.7935 29.05 98.6752 27.0516 98.1559 25.1304L89.0729 27.5668C89.2561 28.2445 89.3384 29.095 89.234 30.1706L98.5969 31.0733ZM98.1559 25.1304C97.6414 23.2256 96.763 21.4731 95.4812 19.9565L88.2861 25.9931C88.6094 26.3756 88.8853 26.8723 89.0729 27.5668L98.1559 25.1304ZM95.4812 19.9565C94.1727 18.4084 92.5454 17.2486 90.6824 16.4752L87.0646 25.126C87.6097 25.3523 87.989 25.6419 88.2861 25.9931L95.4812 19.9565ZM90.6824 16.4752C88.7893 15.6894 86.7467 15.3651 84.6593 15.3651V24.7366C85.783 24.7366 86.5496 24.9121 87.0646 25.126L90.6824 16.4752ZM84.6593 15.3651C82.4563 15.3651 80.3036 15.7194 78.3252 16.5866L82.1137 25.1644C82.6437 24.9322 83.4508 24.7366 84.6593 24.7366V15.3651ZM78.3252 16.5866C76.3794 17.4396 74.6844 18.7294 73.4314 20.5125L81.1377 25.8867C81.2897 25.6707 81.5512 25.4111 82.1137 25.1644L78.3252 16.5866ZM73.3411 20.6459C72.1298 22.5027 71.603 24.5906 71.603 26.7233H81.0096C81.0096 26.1573 81.1352 25.8958 81.2281 25.7534L73.3411 20.6459ZM71.603 26.7233C71.603 29.404 72.4272 32.009 74.4055 34.0783L81.2172 27.6152C81.1885 27.5855 81.0096 27.4414 81.0096 26.7233H71.603ZM74.4856 34.16C76.0455 35.714 77.9675 36.8529 80.076 37.6804L83.5235 28.9612C82.3209 28.4891 81.5841 27.9789 81.137 27.5335L74.4856 34.16ZM80.1924 37.7244C81.958 38.364 83.84 38.9708 85.8349 39.546L88.4504 30.5443C86.6326 30.02 84.9526 29.4771 83.4071 28.9172L80.1924 37.7244ZM85.6889 39.5015C87.6064 40.1224 89.4718 40.7896 91.2856 41.5028L94.7392 32.7859C92.7403 31.9999 90.6925 31.2675 88.5965 30.5888L85.6889 39.5015ZM91.2856 41.5028C92.8311 42.1107 94.1967 42.8651 95.4024 43.7564L101.007 36.2302C99.1025 34.8223 97.0064 33.6776 94.7392 32.7859L91.2856 41.5028ZM95.4598 43.7981C96.491 44.5365 97.2557 45.4144 97.8107 46.4591L106.124 42.0742C104.873 39.7203 103.129 37.7493 100.95 36.1885L95.4598 43.7981ZM97.8617 46.5526C98.3203 47.3698 98.694 48.6504 98.694 50.6392H108.101C108.101 47.5302 107.521 44.5623 106.073 41.9809L97.8617 46.5526ZM98.694 50.6392C98.694 52.8228 98.1841 54.4056 97.3768 55.6122L105.204 60.8105C107.206 57.8187 108.101 54.3533 108.101 50.6392H98.694ZM97.3768 55.6122C96.5439 56.8572 95.2742 57.9421 93.3223 58.786L97.0671 67.3829C100.433 65.9275 103.227 63.7641 105.204 60.8105L97.3768 55.6122ZM93.3621 58.7692C91.4761 59.5641 88.9972 60.0481 85.7881 60.0481V69.4196C89.9038 69.4196 93.6958 68.8041 97.0274 67.3998L93.3621 58.7692ZM110.583 61.5101L107.13 64.6919L107.15 64.7137L107.171 64.735L110.583 61.5101ZM107.798 31.2966H112.502V26.6109H107.798V31.2966ZM103.509 31.2966H98.8057V35.9823H103.509V31.2966ZM103.509 25.5238V20.838H98.8057V25.5238H103.509ZM104.939 25.5238V30.2095H105.129L105.319 30.1943L104.939 25.5238ZM110.357 19.526L105.675 19.0817L105.671 19.1242L105.668 19.1666L110.357 19.526ZM110.658 16.3772V11.6915H106.381L105.976 15.9329L110.658 16.3772ZM115.775 16.3772H120.478V11.6915H115.775V16.3772ZM115.775 24.6991H111.072V29.3848H115.775V24.6991ZM124.58 24.6991H129.283V20.0133H124.58V24.6991ZM124.58 31.4465V36.1322H129.283V31.4465H124.58ZM115.775 31.4465V26.7608H111.072V31.4465H115.775ZM122.397 56.7869L123.609 61.3144L123.705 61.2889L123.8 61.2594L122.397 56.7869ZM124.58 55.7373H129.283V46.7943L121.903 51.8847L124.58 55.7373ZM124.58 63.4593L126.067 67.9047L129.283 66.8366V63.4593H124.58ZM121.494 64.209L120.797 59.5751L120.779 59.5779L120.761 59.5807L121.494 64.209ZM118.71 59.7482C116.006 59.7482 114.704 59.0295 113.995 58.2851L107.171 64.735C110.174 67.8892 114.29 69.1197 118.71 69.1197V59.7482ZM114.035 58.3282C113.272 57.5061 112.502 55.8886 112.502 52.6634H103.095C103.095 57.2353 104.181 61.5155 107.13 64.6919L114.035 58.3282ZM112.502 52.6634V31.2966H103.095V52.6634H112.502ZM107.798 26.6109H103.509V35.9823H107.798V26.6109ZM108.212 31.2966V25.5238H98.8057V31.2966H108.212ZM103.509 30.2095H104.939V20.838H103.509V30.2095ZM105.319 30.1943C107.813 29.9928 110.589 29.1829 112.525 26.8927L105.33 20.8561C105.483 20.6747 105.603 20.6389 105.525 20.6712C105.424 20.7128 105.133 20.8069 104.559 20.8533L105.319 30.1943ZM112.525 26.8927C114.232 24.8727 114.861 22.2914 115.046 19.8854L105.668 19.1666C105.613 19.8665 105.511 20.3314 105.417 20.6163C105.325 20.8968 105.265 20.9326 105.33 20.8561L112.525 26.8927ZM115.039 19.9703L115.34 16.8215L105.976 15.9329L105.675 19.0817L115.039 19.9703ZM110.658 21.0629H115.775V11.6915H110.658V21.0629ZM111.072 16.3772V24.6991H120.478V16.3772H111.072ZM115.775 29.3848H124.58V20.0133H115.775V29.3848ZM119.876 24.6991V31.4465H129.283V24.6991H119.876ZM124.58 26.7608H115.775V36.1322H124.58V26.7608ZM111.072 31.4465V51.6888H120.478V31.4465H111.072ZM111.072 51.6888C111.072 54.0722 111.546 56.8982 113.554 59.0236L120.404 52.6009C120.615 52.8242 120.632 52.9701 120.592 52.8354C120.549 52.6862 120.478 52.3308 120.478 51.6888H111.072ZM113.554 59.0236C115.387 60.9639 117.786 61.7725 120.215 61.7725V52.401C120.032 52.401 120.024 52.3732 120.119 52.4106C120.165 52.4287 120.221 52.4566 120.278 52.4952C120.334 52.5334 120.377 52.5718 120.404 52.6009L113.554 59.0236ZM120.215 61.7725C121.368 61.7725 122.504 61.608 123.609 61.3144L121.186 52.2593C120.786 52.3657 120.467 52.401 120.215 52.401V61.7725ZM123.8 61.2594C125.029 60.8766 126.191 60.3251 127.257 59.5899L121.903 51.8847C121.664 52.0491 121.371 52.1972 120.995 52.3146L123.8 61.2594ZM119.876 55.7373V63.4593H129.283V55.7373H119.876ZM123.092 59.014C122.272 59.2865 121.508 59.469 120.797 59.5751L122.192 68.843C123.487 68.6495 124.78 68.332 126.067 67.9047L123.092 59.014ZM120.761 59.5807C120.034 59.6951 119.351 59.7482 118.71 59.7482V69.1197C119.875 69.1197 121.049 69.0229 122.228 68.8374L120.761 59.5807ZM129.435 60.2355L125.414 62.6656L125.438 62.7045L125.462 62.7426L129.435 60.2355ZM126.651 24.6991V20.0133H121.948V24.6991H126.651ZM134.778 24.6991H139.482V20.0133H134.778V24.6991ZM136.208 54.6877L132.049 56.8747L132.072 56.9192L132.097 56.9633L136.208 54.6877ZM144.636 56.2621L147.37 60.0751L147.386 60.0634L147.403 60.0516L144.636 56.2621ZM149.076 46.8906L144.44 46.1044L144.431 46.1524L144.424 46.2004L149.076 46.8906ZM149.678 24.6991V20.0133H144.975V24.6991H149.678ZM157.806 24.6991H162.509V20.0133H157.806V24.6991ZM157.806 44.1917H153.102L153.102 44.2097L157.806 44.1917ZM157.881 63.7592V68.4449H162.602L162.584 63.7412L157.881 63.7592ZM150.581 63.7592L145.883 63.5385L145.651 68.4449H150.581V63.7592ZM151.334 47.8653L156.032 48.086L156.264 43.1796H151.334V47.8653ZM150.732 47.8653V43.1796H146.417L146.046 47.4618L150.732 47.8653ZM148.625 57.6865L144.288 55.872L144.279 55.894L144.27 55.9158L148.625 57.6865ZM144.561 63.0845L147.116 67.0186L147.157 66.9924L147.196 66.9656L144.561 63.0845ZM138.391 60.0481C135.672 60.0481 134.319 59.1604 133.409 57.7285L125.462 62.7426C128.364 67.3084 132.982 69.4196 138.391 69.4196V60.0481ZM133.457 57.8055C132.271 55.8584 131.354 52.2267 131.354 46.2159H121.948C121.948 52.8005 122.887 58.5152 125.414 62.6656L133.457 57.8055ZM131.354 46.2159V24.6991H121.948V46.2159H131.354ZM126.651 29.3848H134.778V20.0133H126.651V29.3848ZM130.075 24.6991V45.7661H139.482V24.6991H130.075ZM130.075 45.7661C130.075 50.0408 130.527 54.0031 132.049 56.8747L140.368 52.5006C139.983 51.7739 139.482 49.7881 139.482 45.7661H130.075ZM132.097 56.9633C132.958 58.5077 134.18 59.8509 135.812 60.7803C137.435 61.7038 139.204 62.0724 140.949 62.0724V52.7009C140.537 52.7009 140.437 52.6196 140.479 52.6435C140.491 52.6501 140.49 52.6531 140.472 52.6346C140.452 52.6135 140.396 52.5496 140.32 52.412L132.097 56.9633ZM140.949 62.0724C143.246 62.0724 145.45 61.4412 147.37 60.0751L141.903 52.4491C141.715 52.5824 141.461 52.7009 140.949 52.7009V62.0724ZM147.403 60.0516C149.277 58.6933 150.652 56.8424 151.655 54.7793L143.187 50.6975C142.684 51.7331 142.203 52.2314 141.87 52.4725L147.403 60.0516ZM151.655 54.7793C152.676 52.6759 153.331 50.2344 153.728 47.5808L144.424 46.2004C144.119 48.245 143.67 49.7021 143.187 50.6975L151.655 54.7793ZM153.713 47.6769C154.171 44.9939 154.382 41.9184 154.382 38.4938H144.975C144.975 41.567 144.784 44.0893 144.44 46.1044L153.713 47.6769ZM154.382 38.4938V24.6991H144.975V38.4938H154.382ZM149.678 29.3848H157.806V20.0133H149.678V29.3848ZM153.102 24.6991L153.102 44.1917H162.509V24.6991H153.102ZM153.102 44.2097L153.178 63.7773L162.584 63.7412L162.509 44.1736L153.102 44.2097ZM157.881 59.0735H150.581V68.4449H157.881V59.0735ZM155.279 63.9799L156.032 48.086L146.636 47.6446L145.883 63.5385L155.279 63.9799ZM151.334 43.1796H150.732V52.551H151.334V43.1796ZM146.046 47.4618C145.718 51.2418 145.083 53.9869 144.288 55.872L152.961 59.5011C154.274 56.3881 155.043 52.5857 155.418 48.2687L146.046 47.4618ZM144.27 55.9158C143.517 57.7535 142.667 58.7038 141.926 59.2033L147.196 66.9656C149.867 65.1661 151.726 62.5177 152.979 59.4573L144.27 55.9158ZM142.006 59.1506C141.193 59.6747 140.063 60.0481 138.391 60.0481V69.4196C141.534 69.4196 144.518 68.6935 147.116 67.0186L142.006 59.1506ZM167.382 62.5597L164.605 66.3413L164.657 66.379L164.71 66.4155L167.382 62.5597ZM162.415 55.7373L158.039 57.4529L158.051 57.4836L158.063 57.5143L162.415 55.7373ZM162.34 32.871L166.732 34.5482L166.741 34.5241L162.34 32.871ZM167.081 26.0486L169.903 29.7972L169.918 29.7861L167.081 26.0486ZM180.025 25.3738L177.36 29.2351L177.429 29.2822L177.499 29.3269L180.025 25.3738ZM184.013 30.322L179.715 32.2251L179.741 32.2829L179.768 32.3403L184.013 30.322ZM186.271 38.6438L181.609 39.2677L182.157 43.3295H186.271V38.6438ZM186.948 38.6438V43.3295H192.353L191.606 37.9962L186.948 38.6438ZM186.12 32.721L181.444 33.2248L181.452 33.2953L181.461 33.3656L186.12 32.721ZM185.669 27.698L180.975 27.9997L180.976 28.0096L185.669 27.698ZM185.518 12.4787V7.79297H180.815V12.4787H185.518ZM193.721 12.4787L198.424 12.4991L198.444 7.79297H193.721V12.4787ZM193.57 46.8906L188.867 46.8703V46.9012L188.867 46.9323L193.57 46.8906ZM193.721 63.7592V68.4449H198.466L198.424 63.7175L193.721 63.7592ZM186.346 63.7592L181.648 63.539L181.416 68.4449H186.346V63.7592ZM186.948 51.0141L191.646 51.2343L191.878 46.3284H186.948V51.0141ZM186.271 51.0141V46.3284H182.317L181.637 50.2081L186.271 51.0141ZM183.185 53.6381L179.111 51.2966L179.077 51.3561L179.044 51.4166L183.185 53.6381ZM184.841 49.4397L180.296 48.2324L180.277 48.3034L180.26 48.3751L184.841 49.4397ZM185.066 40.818L180.427 41.5883L180.443 41.6813L180.462 41.7736L185.066 40.818ZM184.088 37.2943L179.684 38.9397L179.696 38.9708L179.708 39.0018L184.088 37.2943ZM182.357 34.0705L178.414 36.6242L178.489 36.7395L178.571 36.8501L182.357 34.0705ZM179.949 31.7464L177.34 35.6452L177.464 35.7274L177.593 35.8017L179.949 31.7464ZM172.575 32.4961L175.746 35.9565L175.753 35.9502L172.575 32.4961ZM169.79 51.6888L165.276 53.005L165.285 53.0353L169.79 51.6888ZM174.456 60.0481C172.783 60.0481 171.36 59.602 170.055 58.7038L164.71 66.4155C167.618 68.4161 170.912 69.4196 174.456 69.4196V60.0481ZM170.159 58.7783C168.983 57.9203 167.788 56.4427 166.767 53.9604L158.063 57.5143C159.551 61.1296 161.668 64.2001 164.605 66.3413L170.159 58.7783ZM166.792 54.0218C165.876 51.7015 165.313 48.4618 165.313 44.1167H155.906C155.906 49.1681 156.547 53.6753 158.039 57.4529L166.792 54.0218ZM165.313 44.1167C165.313 39.9792 165.849 36.8438 166.732 34.5482L157.948 31.1937C156.524 34.8959 155.906 39.2576 155.906 44.1167H165.313ZM166.741 34.5241C167.673 32.0601 168.799 30.6221 169.903 29.7972L164.259 22.2999C161.349 24.4742 159.315 27.5843 157.939 31.2179L166.741 34.5241ZM169.918 29.7861C171.131 28.8722 172.486 28.4102 174.155 28.4102V19.0387C170.506 19.0387 167.145 20.126 164.245 22.3109L169.918 29.7861ZM174.155 28.4102C175.691 28.4102 176.675 28.7656 177.36 29.2351L182.689 21.5126C180.164 19.7828 177.235 19.0387 174.155 19.0387V28.4102ZM177.499 29.3269C178.195 29.7676 178.99 30.6003 179.715 32.2251L188.311 28.4188C187.029 25.5453 185.166 23.0791 182.55 21.4206L177.499 29.3269ZM179.768 32.3403C180.547 33.9656 181.199 36.2302 181.609 39.2677L190.932 38.0199C190.439 34.3601 189.586 31.0768 188.258 28.3038L179.768 32.3403ZM186.271 43.3295H186.948V33.9581H186.271V43.3295ZM191.606 37.9962C191.305 35.8478 191.029 33.8747 190.779 32.0765L181.461 33.3656C181.712 35.166 181.988 37.1413 182.29 39.2913L191.606 37.9962ZM190.796 32.2173C190.601 30.4178 190.456 28.8087 190.361 27.3864L180.976 28.0096C181.081 29.5861 181.238 31.3259 181.444 33.2248L190.796 32.2173ZM190.362 27.3962C190.267 25.9244 190.221 24.6279 190.221 23.4996H180.815C180.815 24.8704 180.869 26.3728 180.975 27.9997L190.362 27.3962ZM190.221 23.4996V12.4787H180.815V23.4996H190.221ZM185.518 17.1644H193.721V7.79297H185.518V17.1644ZM189.017 12.4583L188.867 46.8703L198.273 46.911L198.424 12.4991L189.017 12.4583ZM188.867 46.9323L189.018 63.8009L198.424 63.7175L198.273 46.8489L188.867 46.9323ZM193.721 59.0735H186.346V68.4449H193.721V59.0735ZM191.044 63.9794L191.646 51.2343L182.25 50.7938L181.648 63.539L191.044 63.9794ZM186.948 46.3284H186.271V55.6998H186.948V46.3284ZM181.637 50.2081C181.138 53.0594 180.449 55.1715 179.676 56.6751L188.049 60.9473C189.383 58.3524 190.3 55.2664 190.904 51.82L181.637 50.2081ZM179.676 56.6751C178.913 58.1603 178.137 58.92 177.492 59.3143L182.407 67.3044C184.872 65.7996 186.705 63.5603 188.049 60.9473L179.676 56.6751ZM177.492 59.3143C176.785 59.7459 175.833 60.0481 174.456 60.0481V69.4196C177.293 69.4196 180.003 68.7722 182.407 67.3044L177.492 59.3143ZM176.638 62.6721C179.017 62.6721 181.28 61.9981 183.242 60.5764L177.71 52.9973C177.465 53.1751 177.169 53.3007 176.638 53.3007V62.6721ZM183.242 60.5764C184.964 59.3289 186.319 57.724 187.326 55.8596L179.044 51.4166C178.647 52.1511 178.195 52.6456 177.71 52.9973L183.242 60.5764ZM187.259 55.9798C188.249 54.2711 188.968 52.4399 189.421 50.5045L180.26 48.3751C180.011 49.4383 179.627 50.4061 179.111 51.2966L187.259 55.9798ZM189.385 50.6469C189.885 48.7813 190.146 46.9012 190.146 45.0163H180.739C180.739 46.0306 180.6 47.0992 180.296 48.2324L189.385 50.6469ZM190.146 45.0163V44.1917H180.739V45.0163H190.146ZM190.146 44.1917C190.146 42.7728 189.977 41.3254 189.671 39.8623L180.462 41.7736C180.658 42.7096 180.739 43.5113 180.739 44.1917H190.146ZM189.706 40.0476C189.451 38.5229 189.037 37.0345 188.468 35.5868L179.708 39.0018C180.043 39.8534 180.281 40.7142 180.427 41.5883L189.706 40.0476ZM188.492 35.6491C187.901 34.0794 187.125 32.617 186.144 31.291L178.571 36.8501C178.995 37.4234 179.372 38.1101 179.684 38.9397L188.492 35.6491ZM186.301 31.5168C185.281 29.9539 183.953 28.6417 182.306 27.6914L177.593 35.8017C177.852 35.9509 178.129 36.188 178.414 36.6242L186.301 31.5168ZM182.558 27.8477C180.799 26.6795 178.816 26.161 176.789 26.161V35.5325C177.17 35.5325 177.293 35.614 177.34 35.6452L182.558 27.8477ZM176.789 26.161C173.984 26.161 171.451 27.1657 169.397 29.042L175.753 35.9502C176.106 35.6276 176.383 35.5325 176.789 35.5325V26.161ZM169.403 29.0357C167.451 30.8121 166.193 33.18 165.382 35.7281L174.349 38.5606C174.842 37.0103 175.391 36.2794 175.746 35.9565L169.403 29.0357ZM165.382 35.7281C164.543 38.3636 164.184 41.343 164.184 44.5665H173.59C173.59 41.9922 173.883 40.0237 174.349 38.5606L165.382 35.7281ZM164.184 44.5665C164.184 47.5994 164.521 50.433 165.276 53.005L174.304 50.3726C173.856 48.8462 173.59 46.9316 173.59 44.5665H164.184ZM165.285 53.0353C166.05 55.5758 167.275 57.915 169.173 59.7232L175.675 52.9509C175.265 52.5601 174.734 51.8003 174.295 50.3424L165.285 53.0353ZM169.173 59.7232C171.237 61.6902 173.821 62.6721 176.638 62.6721V53.3007C176.144 53.3007 175.919 53.1831 175.675 52.9509L169.173 59.7232ZM204.546 74.4052L203.598 78.9948L203.624 79L204.546 74.4052ZM199.73 72.6808L197.458 76.7836L197.487 76.7996L197.517 76.8152L199.73 72.6808ZM195.892 69.682L191.623 67.7156L190.309 70.5479L192.425 72.8483L195.892 69.682ZM199.128 62.7096L202.904 59.9155L198.182 53.5832L194.859 60.7433L199.128 62.7096ZM203.869 66.3832L205.636 62.0407L205.585 62.0201L205.534 62.0007L203.869 66.3832ZM219.446 60.4605L214.984 58.9788L214.974 59.0093L214.964 59.0398L219.446 60.4605ZM220.65 52.7384L215.958 52.4268L215.95 52.5421L215.948 52.6576L220.65 52.7384ZM221.177 44.8664L225.87 45.178L226.205 40.1807H221.177V44.8664ZM220.425 44.8664V40.1807H216.021L215.732 44.5588L220.425 44.8664ZM214.179 59.036L216.563 63.0749L216.607 63.0491L216.65 63.0226L214.179 59.036ZM201.913 58.4362L198.869 62.0091L198.896 62.0314L198.923 62.0534L201.913 58.4362ZM198.15 52.3636L193.64 53.6948L193.655 53.7449L193.671 53.7948L198.15 52.3636ZM196.946 24.6991V20.0133H192.243V24.6991H196.946ZM205.073 24.6991H209.776V20.0133H205.073V24.6991ZM217.339 49.2148L213.193 47.0022L213.179 47.0298L213.164 47.0579L217.339 49.2148ZM219.522 24.6991V20.0133H214.818V24.6991H219.522ZM227.649 24.6991H232.352V20.0133H227.649V24.6991ZM227.197 58.3613L222.544 57.6828L222.536 57.7313L222.53 57.78L227.197 58.3613ZM225.692 64.284L221.303 62.6021L221.284 62.6513L221.266 62.7009L225.692 64.284ZM222.607 69.607L219.012 66.5854L218.962 66.6454L218.913 66.7072L222.607 69.607ZM209.739 70.2442C208.358 70.2442 206.936 70.1027 205.469 69.8103L203.624 79C205.669 79.4074 207.708 79.6157 209.739 79.6157V70.2442ZM205.495 69.8157C204.221 69.5545 203.043 69.1304 201.944 68.5464L197.517 76.8152C199.428 77.8306 201.46 78.5565 203.598 78.9948L205.495 69.8157ZM202.002 68.5782C200.986 68.0197 200.112 67.3342 199.359 66.5158L192.425 72.8483C193.88 74.4291 195.564 75.7427 197.458 76.7836L202.002 68.5782ZM200.161 71.6485L203.397 64.6762L194.859 60.7433L191.623 67.7156L200.161 71.6485ZM195.353 65.5039C197.137 67.8967 199.422 69.7166 202.205 70.7658L205.534 62.0007C204.604 61.6504 203.728 61.0213 202.904 59.9155L195.353 65.5039ZM202.102 70.7257C204.475 71.6839 206.929 72.1935 209.438 72.1935V62.8221C208.234 62.8221 206.976 62.5819 205.636 62.0407L202.102 70.7257ZM209.438 72.1935C212.877 72.1935 216.198 71.4138 218.88 69.3261L213.089 61.9412C212.561 62.3523 211.517 62.8221 209.438 62.8221V72.1935ZM218.88 69.3261C221.331 67.4183 222.98 64.8519 223.928 61.8812L214.964 59.0398C214.509 60.4673 213.849 61.3496 213.089 61.9412L218.88 69.3261ZM223.908 61.9423C224.842 59.1534 225.296 56.0924 225.353 52.8192L215.948 52.6576C215.904 55.1822 215.556 57.2693 214.984 58.9788L223.908 61.9423ZM225.343 53.05L225.87 45.178L216.484 44.5548L215.958 52.4268L225.343 53.05ZM221.177 40.1807H220.425V49.5521H221.177V40.1807ZM215.732 44.5588C215.502 48.0286 214.901 50.4267 214.15 51.9913L222.636 56.0346C224.092 53.0008 224.845 49.3014 225.118 45.174L215.732 44.5588ZM214.15 51.9913C213.329 53.7016 212.46 54.5865 211.707 55.0494L216.65 63.0226C219.309 61.3864 221.249 58.9226 222.636 56.0346L214.15 51.9913ZM211.794 54.9972C210.875 55.5355 209.781 55.8497 208.384 55.8497V65.2212C211.302 65.2212 214.071 64.5356 216.563 63.0749L211.794 54.9972ZM208.384 55.8497C206.66 55.8497 205.62 55.4076 204.902 54.8193L198.923 62.0534C201.617 64.2639 204.891 65.2212 208.384 65.2212V55.8497ZM204.956 54.8634C204.136 54.1711 203.289 52.983 202.628 50.9325L193.671 53.7948C194.717 57.0422 196.377 59.9024 198.869 62.0091L204.956 54.8634ZM202.659 51.0323C202.02 48.8816 201.649 46.1297 201.649 42.6922H192.243C192.243 46.7522 192.675 50.4476 193.64 53.6948L202.659 51.0323ZM201.649 42.6922V24.6991H192.243V42.6922H201.649ZM196.946 29.3848H205.073V20.0133H196.946V29.3848ZM200.37 24.6991V41.1178H209.776V24.6991H200.37ZM200.37 41.1178C200.37 45.473 200.869 49.4404 202.371 52.4348L210.785 48.2439C210.281 47.2397 209.776 45.0597 209.776 41.1178H200.37ZM202.371 52.4348C203.179 54.0436 204.352 55.5051 205.995 56.5441C207.648 57.59 209.487 58.0239 211.319 58.0239V48.6525C211.145 48.6525 211.056 48.6326 211.029 48.6253C211.006 48.6192 211.016 48.6197 211.037 48.6328C211.099 48.6721 210.981 48.6342 210.785 48.2439L202.371 52.4348ZM211.319 58.0239C213.522 58.0239 215.631 57.415 217.478 56.1273L212.084 48.4498C211.923 48.5616 211.725 48.6525 211.319 48.6525V58.0239ZM217.478 56.1273C219.237 54.9002 220.547 53.2304 221.515 51.3716L213.164 47.0579C212.727 47.8981 212.331 48.2774 212.084 48.4498L217.478 56.1273ZM221.485 51.4276C222.529 49.4858 223.213 47.2849 223.628 44.9245L214.362 43.3089C214.074 44.9468 213.654 46.1449 213.193 47.0022L221.485 51.4276ZM223.628 44.9245C224.037 42.5966 224.225 40.0181 224.225 37.2193H214.818C214.818 39.6186 214.655 41.6384 214.362 43.3089L223.628 44.9245ZM224.225 37.2193V24.6991H214.818V37.2193H224.225ZM219.522 29.3848H227.649V20.0133H219.522V29.3848ZM222.946 24.6991V52.7384H232.352V24.6991H222.946ZM222.946 52.7384C222.946 54.168 222.819 55.8115 222.544 57.6828L231.851 59.0398C232.178 56.8126 232.352 54.7076 232.352 52.7384H222.946ZM222.53 57.78C222.329 59.3891 221.923 60.9942 221.303 62.6021L230.082 65.9662C230.966 63.6753 231.565 61.332 231.865 58.9425L222.53 57.78ZM221.266 62.7009C220.754 64.1195 220.01 65.4076 219.012 66.5854L226.202 72.6288C227.914 70.6074 229.226 68.347 230.119 65.8671L221.266 62.7009ZM218.913 66.7072C218.119 67.7107 217.04 68.5656 215.551 69.2363L219.428 77.7747C222.154 76.5461 224.486 74.802 226.301 72.507L218.913 66.7072ZM215.551 69.2363C214.217 69.838 212.336 70.2442 209.739 70.2442V79.6157C213.262 79.6157 216.549 79.0724 219.428 77.7747L215.551 69.2363ZM231.526 63.7592H226.822V68.4449H231.526V63.7592ZM231.526 14.278V9.59228H226.822V14.278H231.526ZM260.422 17.5767L257.581 21.3098L257.651 21.364L257.727 21.4154L260.422 17.5767ZM263.733 32.3462L267.94 34.4416L267.954 34.4161L267.966 34.3906L263.733 32.3462ZM259.972 36.2447L257.585 32.2058L257.56 32.2215L257.534 32.2375L259.972 36.2447ZM253.423 38.044L253.077 33.3712L248.72 33.6926V38.044H253.423ZM253.423 38.7188H248.72V43.1486L253.16 43.3972L253.423 38.7188ZM263.434 42.2424L260.186 45.6318L260.224 45.6695L260.266 45.7061L263.434 42.2424ZM264.786 57.8365L260.92 55.1694L260.897 55.2031L260.873 55.2373L264.786 57.8365ZM258.992 62.2598L257.275 57.8974L257.247 57.9093L258.992 62.2598ZM239.654 57.0118H234.95V61.6975H239.654V57.0118ZM256.21 55.2125L253.385 51.4639L253.357 51.4855L253.329 51.5075L256.21 55.2125ZM255.681 43.5919L252.957 47.4117L252.981 47.4281L253.004 47.4445L255.681 43.5919ZM239.654 41.5677V36.882H234.95V41.5677H239.654ZM239.654 35.57H234.95V40.2557H239.654V35.57ZM254.326 33.6957L251.431 30.0033L251.403 30.0256L251.375 30.0483L254.326 33.6957ZM254.401 22.8247L251.523 26.53L251.561 26.5593L251.6 26.5879L254.401 22.8247ZM239.654 21.0254V16.3397H234.95V21.0254H239.654ZM236.228 63.7592V14.278H226.822V63.7592H236.228ZM231.526 18.9637H247.779V9.59228H231.526V18.9637ZM247.779 18.9637C250.239 18.9637 252.257 19.21 253.889 19.6355L256.271 10.5699C253.689 9.8958 250.841 9.59228 247.779 9.59228V18.9637ZM253.889 19.6355C255.511 20.0588 256.704 20.6466 257.581 21.3098L263.265 13.8437C261.233 12.3077 258.862 11.2461 256.271 10.5699L253.889 19.6355ZM257.727 21.4154C258.615 22.0363 259.194 22.7326 259.575 23.5162L268.043 19.4343C266.919 17.1191 265.24 15.2164 263.119 13.7381L257.727 21.4154ZM259.575 23.5162C259.965 24.3193 260.233 25.3977 260.233 26.8733H269.64C269.64 24.2504 269.158 21.7301 268.043 19.4343L259.575 23.5162ZM260.233 26.8733C260.233 28.2295 259.968 29.3459 259.502 30.302L267.966 34.3906C269.106 32.0477 269.64 29.5155 269.64 26.8733H260.233ZM259.528 30.2507C259.173 30.9585 258.592 31.6164 257.585 32.2058L262.357 40.2835C264.76 38.8738 266.691 36.9326 267.94 34.4416L259.528 30.2507ZM257.534 32.2375C256.715 32.7313 255.326 33.2051 253.077 33.3712L253.771 42.7168C256.941 42.483 259.916 41.7572 262.409 40.2519L257.534 32.2375ZM248.72 38.044V38.7188H258.126V38.044H248.72ZM253.16 43.3972C257.016 43.613 259.09 44.5911 260.186 45.6318L266.679 38.853C263.361 35.6955 258.764 34.3245 253.689 34.0405L253.16 43.3972ZM260.266 45.7061C261.365 46.7046 262.115 48.171 262.115 50.7142H271.521C271.521 46.0601 270.016 41.8788 266.599 38.7787L260.266 45.7061ZM262.115 50.7142C262.115 52.7363 261.637 54.1371 260.92 55.1694L268.655 60.5036C270.646 57.6373 271.521 54.2899 271.521 50.7142H262.115ZM260.873 55.2373C260.189 56.2609 259.093 57.187 257.275 57.8974L260.711 66.6222C264.01 65.3331 266.778 63.3106 268.702 60.4356L260.873 55.2373ZM257.247 57.9093C255.471 58.6164 252.953 59.0735 249.51 59.0735V68.4449C253.696 68.4449 257.498 67.9023 260.739 66.6105L257.247 57.9093ZM249.51 59.0735H231.526V68.4449H249.51V59.0735ZM239.654 61.6975H249.134V52.3261H239.654V61.6975ZM249.134 61.6975C252.75 61.6975 256.341 61.0363 259.088 58.9177L253.329 51.5075C252.967 51.7879 251.84 52.3261 249.134 52.3261V61.6975ZM259.029 58.961C262.089 56.6756 263.319 53.293 263.319 49.7396H253.912C253.912 51.0844 253.538 51.3503 253.385 51.4639L259.029 58.961ZM263.319 49.7396C263.319 45.7358 261.802 42.1136 258.359 39.7393L253.004 47.4445C253.475 47.7692 253.912 48.2455 253.912 49.7396H263.319ZM258.406 39.7721C255.335 37.5989 251.29 36.882 247.027 36.882V46.2534C250.493 46.2534 252.214 46.886 252.957 47.4117L258.406 39.7721ZM247.027 36.882H239.654V46.2534H247.027V36.882ZM234.95 41.5677V57.0118H244.357V41.5677H234.95ZM239.654 40.2557H247.177V30.8842H239.654V40.2557ZM247.177 40.2557C250.855 40.2557 254.514 39.5657 257.28 37.343L251.375 30.0483C251.031 30.3248 249.924 30.8842 247.177 30.8842V40.2557ZM257.223 37.3882C260.208 35.0644 261.44 31.7073 261.44 28.1478H252.033C252.033 29.4865 251.657 29.8278 251.431 30.0033L257.223 37.3882ZM261.44 28.1478C261.44 24.6675 260.248 21.3101 257.204 19.0616L251.6 26.5879C251.669 26.6387 252.033 26.8299 252.033 28.1478H261.44ZM257.282 19.1197C254.514 16.9857 250.853 16.3397 247.177 16.3397V25.7112C250.025 25.7112 251.18 26.2648 251.523 26.53L257.282 19.1197ZM247.177 16.3397H239.654V25.7112H247.177V16.3397ZM234.95 21.0254V35.57H244.357V21.0254H234.95ZM271.792 60.2355L267.77 62.6656L267.794 62.7045L267.82 62.7426L271.792 60.2355ZM269.007 24.6991V20.0133H264.304V24.6991H269.007ZM277.135 24.6991H281.838V20.0133H277.135V24.6991ZM278.565 54.6877L274.404 56.8747L274.43 56.9192L274.454 56.9633L278.565 54.6877ZM286.993 56.2621L289.728 60.0751L289.744 60.0634L289.761 60.0516L286.993 56.2621ZM291.433 46.8906L286.798 46.1044L286.788 46.1524L286.781 46.2004L291.433 46.8906ZM292.035 24.6991V20.0133H287.331V24.6991H292.035ZM300.162 24.6991H304.865V20.0133H300.162V24.6991ZM300.162 44.1917H295.459V44.2097L300.162 44.1917ZM300.237 63.7592V68.4449H304.959L304.941 63.7412L300.237 63.7592ZM292.938 63.7592L288.239 63.5385L288.009 68.4449H292.938V63.7592ZM293.69 47.8653L298.389 48.086L298.622 43.1796H293.69V47.8653ZM293.088 47.8653V43.1796H288.775L288.404 47.4618L293.088 47.8653ZM290.981 57.6865L286.645 55.872L286.635 55.894L286.628 55.9158L290.981 57.6865ZM286.918 63.0845L289.474 67.0186L289.514 66.9924L289.554 66.9656L286.918 63.0845ZM280.747 60.0481C278.028 60.0481 276.676 59.1604 275.766 57.7285L267.82 62.7426C270.722 67.3084 275.338 69.4196 280.747 69.4196V60.0481ZM275.813 57.8055C274.628 55.8584 273.711 52.2267 273.711 46.2159H264.304C264.304 52.8005 265.245 58.5152 267.77 62.6656L275.813 57.8055ZM273.711 46.2159V24.6991H264.304V46.2159H273.711ZM269.007 29.3848H277.135V20.0133H269.007V29.3848ZM272.431 24.6991V45.7661H281.838V24.6991H272.431ZM272.431 45.7661C272.431 50.0408 272.885 54.0031 274.404 56.8747L282.725 52.5006C282.339 51.7739 281.838 49.7881 281.838 45.7661H272.431ZM274.454 56.9633C275.315 58.5077 276.537 59.8509 278.169 60.7803C279.792 61.7038 281.561 62.0724 283.305 62.0724V52.7009C282.894 52.7009 282.795 52.6196 282.837 52.6435C282.847 52.6501 282.847 52.6531 282.83 52.6346C282.809 52.6135 282.753 52.5496 282.678 52.412L274.454 56.9633ZM283.305 62.0724C285.603 62.0724 287.806 61.4412 289.728 60.0751L284.26 52.4491C284.072 52.5824 283.818 52.7009 283.305 52.7009V62.0724ZM289.761 60.0516C291.635 58.6933 293.008 56.8424 294.012 54.7793L285.544 50.6975C285.041 51.7331 284.559 52.2314 284.227 52.4725L289.761 60.0516ZM294.012 54.7793C295.033 52.6759 295.689 50.2344 296.084 47.5808L286.781 46.2004C286.475 48.245 286.029 49.7021 285.544 50.6975L294.012 54.7793ZM296.07 47.6769C296.529 44.9939 296.738 41.9184 296.738 38.4938H287.331C287.331 41.567 287.141 44.0893 286.798 46.1044L296.07 47.6769ZM296.738 38.4938V24.6991H287.331V38.4938H296.738ZM292.035 29.3848H300.162V20.0133H292.035V29.3848ZM295.459 24.6991V44.1917H304.865V24.6991H295.459ZM295.459 44.2097L295.534 63.7773L304.941 63.7412L304.865 44.1736L295.459 44.2097ZM300.237 59.0735H292.938V68.4449H300.237V59.0735ZM297.636 63.9799L298.389 48.086L288.992 47.6446L288.239 63.5385L297.636 63.9799ZM293.69 43.1796H293.088V52.551H293.69V43.1796ZM288.404 47.4618C288.075 51.2418 287.44 53.9869 286.645 55.872L295.318 59.5011C296.63 56.3881 297.401 52.5857 297.775 48.2687L288.404 47.4618ZM286.628 55.9158C285.873 57.7535 285.024 58.7038 284.284 59.2033L289.554 66.9656C292.223 65.1661 294.083 62.5177 295.336 59.4573L286.628 55.9158ZM284.364 59.1506C283.55 59.6747 282.419 60.0481 280.747 60.0481V69.4196C283.891 69.4196 286.875 68.6935 289.474 67.0186L284.364 59.1506ZM309.74 62.5597L306.961 66.3413L307.015 66.379L307.066 66.4155L309.74 62.5597ZM304.774 55.7373L300.395 57.4529L300.409 57.4836L300.421 57.5143L304.774 55.7373ZM304.696 32.871L309.089 34.5482L309.098 34.5241L304.696 32.871ZM309.437 26.0486L312.261 29.7972L312.275 29.7861L309.437 26.0486ZM322.383 25.3738L319.716 29.2351L319.787 29.2822L319.857 29.3269L322.383 25.3738ZM326.371 30.322L322.072 32.2251L322.098 32.2829L322.126 32.3403L326.371 30.322ZM328.626 38.6438L323.965 39.2677L324.513 43.3295H328.626V38.6438ZM329.306 38.6438V43.3295H334.71L333.962 37.9962L329.306 38.6438ZM328.476 32.721L323.801 33.2248L323.808 33.2953L323.82 33.3656L328.476 32.721ZM328.027 27.698L323.333 27.9997V28.0096L328.027 27.698ZM327.876 12.4787V7.79297H323.173V12.4787H327.876ZM336.076 12.4787L340.78 12.4991L340.801 7.79297H336.076V12.4787ZM335.928 46.8906L331.225 46.8703L331.223 46.9012L331.225 46.9323L335.928 46.8906ZM336.076 63.7592V68.4449H340.822L340.78 63.7175L336.076 63.7592ZM328.702 63.7592L324.005 63.539L323.773 68.4449H328.702V63.7592ZM329.306 51.0141L334.002 51.2343L334.235 46.3284H329.306V51.0141ZM328.626 51.0141V46.3284H324.673L323.994 50.2081L328.626 51.0141ZM325.543 53.6381L321.468 51.2966L321.433 51.3561L321.402 51.4166L325.543 53.6381ZM327.197 49.4397L322.653 48.2324L322.634 48.3034L322.618 48.3751L327.197 49.4397ZM327.422 40.818L322.785 41.5883L322.799 41.6813L322.82 41.7736L327.422 40.818ZM326.444 37.2943L322.042 38.9397L322.054 38.9708L322.065 39.0018L326.444 37.2943ZM324.713 34.0705L320.772 36.6242L320.847 36.7395L320.927 36.8501L324.713 34.0705ZM322.305 31.7464L319.697 35.6452L319.822 35.7274L319.949 35.8017L322.305 31.7464ZM314.933 32.4961L318.103 35.9565L318.11 35.9502L314.933 32.4961ZM312.146 51.6888L307.633 53.005L307.643 53.0353L312.146 51.6888ZM316.812 60.0481C315.14 60.0481 313.717 59.602 312.412 58.7038L307.066 66.4155C309.975 68.4161 313.268 69.4196 316.812 69.4196V60.0481ZM312.518 58.7783C311.339 57.9203 310.145 56.4427 309.124 53.9604L300.421 57.5143C301.907 61.1296 304.026 64.2001 306.961 66.3413L312.518 58.7783ZM309.15 54.0218C308.233 51.7015 307.668 48.4618 307.668 44.1167H298.262C298.262 49.1681 298.904 53.6753 300.395 57.4529L309.15 54.0218ZM307.668 44.1167C307.668 39.9792 308.205 36.8438 309.089 34.5482L300.305 31.1937C298.88 34.8959 298.262 39.2576 298.262 44.1167H307.668ZM309.098 34.5241C310.03 32.0601 311.156 30.6221 312.261 29.7972L306.615 22.2999C303.706 24.4742 301.672 27.5843 300.296 31.2179L309.098 34.5241ZM312.275 29.7861C313.489 28.8722 314.843 28.4102 316.511 28.4102V19.0387C312.863 19.0387 309.503 20.126 306.601 22.3109L312.275 29.7861ZM316.511 28.4102C318.049 28.4102 319.032 28.7656 319.716 29.2351L325.047 21.5126C322.522 19.7828 319.591 19.0387 316.511 19.0387V28.4102ZM319.857 29.3269C320.551 29.7676 321.348 30.6003 322.072 32.2251L330.668 28.4188C329.386 25.5453 327.523 23.0791 324.906 21.4206L319.857 29.3269ZM322.126 32.3403C322.905 33.9656 323.556 36.2302 323.965 39.2677L333.29 38.0199C332.796 34.3601 331.942 31.0768 330.614 28.3038L322.126 32.3403ZM328.626 43.3295H329.306V33.9581H328.626V43.3295ZM333.962 37.9962C333.661 35.8478 333.386 33.8747 333.135 32.0765L323.82 33.3656C324.069 35.166 324.346 37.1413 324.647 39.2913L333.962 37.9962ZM333.153 32.2173C332.958 30.4178 332.815 28.8087 332.718 27.3864L323.333 28.0096C323.439 29.5861 323.594 31.3259 323.801 33.2248L333.153 32.2173ZM332.718 27.3962C332.624 25.9244 332.579 24.6279 332.579 23.4996H323.173C323.173 24.8704 323.227 26.3728 323.333 27.9997L332.718 27.3962ZM332.579 23.4996V12.4787H323.173V23.4996H332.579ZM327.876 17.1644H336.076V7.79297H327.876V17.1644ZM331.375 12.4583L331.225 46.8703L340.629 46.911L340.78 12.4991L331.375 12.4583ZM331.225 46.9323L331.375 63.8009L340.78 63.7175L340.629 46.8489L331.225 46.9323ZM336.076 59.0735H328.702V68.4449H336.076V59.0735ZM333.4 63.9794L334.002 51.2343L324.607 50.7938L324.005 63.539L333.4 63.9794ZM329.306 46.3284H328.626V55.6998H329.306V46.3284ZM323.994 50.2081C323.495 53.0594 322.806 55.1715 322.032 56.6751L330.407 60.9473C331.74 58.3524 332.657 55.2664 333.262 51.82L323.994 50.2081ZM322.032 56.6751C321.27 58.1603 320.494 58.92 319.848 59.3143L324.765 67.3044C327.23 65.7996 329.061 63.5603 330.407 60.9473L322.032 56.6751ZM319.848 59.3143C319.142 59.7459 318.19 60.0481 316.812 60.0481V69.4196C319.65 69.4196 322.362 68.7722 324.765 67.3044L319.848 59.3143ZM318.994 62.6721C321.374 62.6721 323.636 61.9981 325.6 60.5764L320.066 52.9973C319.822 53.1751 319.526 53.3007 318.994 53.3007V62.6721ZM325.6 60.5764C327.321 59.3289 328.676 57.724 329.682 55.8596L321.402 51.4166C321.005 52.1511 320.553 52.6456 320.066 52.9973L325.6 60.5764ZM329.616 55.9798C330.607 54.2711 331.324 52.4399 331.778 50.5045L322.618 48.3751C322.369 49.4383 321.983 50.4061 321.468 51.2966L329.616 55.9798ZM331.742 50.6469C332.241 48.7813 332.504 46.9012 332.504 45.0163H323.098C323.098 46.0306 322.957 47.0992 322.653 48.2324L331.742 50.6469ZM332.504 45.0163V44.1917H323.098V45.0163H332.504ZM332.504 44.1917C332.504 42.7728 332.335 41.3254 332.027 39.8623L322.82 41.7736C323.015 42.7096 323.098 43.5113 323.098 44.1917H332.504ZM332.062 40.0476C331.808 38.5229 331.394 37.0345 330.825 35.5868L322.065 39.0018C322.399 39.8534 322.639 40.7142 322.785 41.5883L332.062 40.0476ZM330.849 35.6491C330.258 34.0794 329.482 32.617 328.502 31.291L320.927 36.8501C321.353 37.4234 321.729 38.1101 322.042 38.9397L330.849 35.6491ZM328.657 31.5168C327.639 29.9539 326.31 28.6417 324.664 27.6914L319.949 35.8017C320.21 35.9509 320.487 36.188 320.772 36.6242L328.657 31.5168ZM324.915 27.8477C323.156 26.6795 321.172 26.161 319.147 26.161V35.5325C319.528 35.5325 319.65 35.614 319.697 35.6452L324.915 27.8477ZM319.147 26.161C316.341 26.161 313.809 27.1657 311.753 29.042L318.11 35.9502C318.463 35.6276 318.74 35.5325 319.147 35.5325V26.161ZM311.76 29.0357C309.809 30.8121 308.55 33.18 307.739 35.7281L316.706 38.5606C317.2 37.0103 317.748 36.2794 318.103 35.9565L311.76 29.0357ZM307.739 35.7281C306.899 38.3636 306.542 41.343 306.542 44.5665H315.949C315.949 41.9922 316.24 40.0237 316.706 38.5606L307.739 35.7281ZM306.542 44.5665C306.542 47.5994 306.878 50.433 307.633 53.005L316.661 50.3726C316.212 48.8462 315.949 46.9316 315.949 44.5665H306.542ZM307.643 53.0353C308.407 55.5758 309.632 57.915 311.53 59.7232L318.032 52.9509C317.623 52.5601 317.092 51.8003 316.652 50.3424L307.643 53.0353ZM311.53 59.7232C313.595 61.6902 316.177 62.6721 318.994 62.6721V53.3007C318.503 53.3007 318.274 53.1831 318.032 52.9509L311.53 59.7232ZM345.476 62.5597L342.699 66.3413L342.75 66.379L342.802 66.4155L345.476 62.5597ZM340.509 55.7373L336.133 57.4529L336.145 57.4836L336.156 57.5143L340.509 55.7373ZM340.434 32.871L344.825 34.5482L344.834 34.5241L340.434 32.871ZM345.175 26.0486L347.997 29.7972L348.011 29.7861L345.175 26.0486ZM358.118 25.3738L355.454 29.2351L355.522 29.2822L355.593 29.3269L358.118 25.3738ZM362.107 30.322L357.808 32.2251L357.834 32.2829L357.862 32.3403L362.107 30.322ZM364.364 38.6438L359.703 39.2677L360.249 43.3295H364.364V38.6438ZM365.042 38.6438V43.3295H370.446L369.7 37.9962L365.042 38.6438ZM364.214 32.721L359.536 33.2248L359.546 33.2953L359.555 33.3656L364.214 32.721ZM363.762 27.698L359.068 27.9997V28.0096L363.762 27.698ZM363.612 12.4787V7.79297H358.909V12.4787H363.612ZM371.814 12.4787L376.518 12.4991L376.537 7.79297H371.814V12.4787ZM371.664 46.8906L366.961 46.8703V46.9012V46.9323L371.664 46.8906ZM371.814 63.7592V68.4449H376.56L376.518 63.7175L371.814 63.7592ZM364.44 63.7592L359.741 63.539L359.508 68.4449H364.44V63.7592ZM365.042 51.0141L369.74 51.2343L369.971 46.3284H365.042V51.0141ZM364.364 51.0141V46.3284H360.411L359.732 50.2081L364.364 51.0141ZM361.279 53.6381L357.204 51.2966L357.171 51.3561L357.138 51.4166L361.279 53.6381ZM362.935 49.4397L358.389 48.2324L358.37 48.3034L358.354 48.3751L362.935 49.4397ZM363.16 40.818L358.521 41.5883L358.537 41.6813L358.556 41.7736L363.16 40.818ZM362.182 37.2943L357.777 38.9397L357.789 38.9708L357.801 39.0018L362.182 37.2943ZM360.451 34.0705L356.508 36.6242L356.583 36.7395L356.665 36.8501L360.451 34.0705ZM358.043 31.7464L355.433 35.6452L355.557 35.7274L355.687 35.8017L358.043 31.7464ZM350.668 32.4961L353.838 35.9565L353.845 35.9502L350.668 32.4961ZM347.884 51.6888L343.369 53.005L343.378 53.0353L347.884 51.6888ZM352.55 60.0481C350.875 60.0481 349.453 59.602 348.147 58.7038L342.802 66.4155C345.711 68.4161 349.006 69.4196 352.55 69.4196V60.0481ZM348.253 58.7783C347.075 57.9203 345.883 56.4427 344.86 53.9604L336.156 57.5143C337.645 61.1296 339.761 64.2001 342.699 66.3413L348.253 58.7783ZM344.886 54.0218C343.969 51.7015 343.406 48.4618 343.406 44.1167H334C334 49.1681 334.64 53.6753 336.133 57.4529L344.886 54.0218ZM343.406 44.1167C343.406 39.9792 343.943 36.8438 344.825 34.5482L336.041 31.1937C334.618 34.8959 334 39.2576 334 44.1167H343.406ZM344.834 34.5241C345.768 32.0601 346.892 30.6221 347.997 29.7972L342.353 22.2999C339.442 24.4742 337.407 27.5843 336.032 31.2179L344.834 34.5241ZM348.011 29.7861C349.224 28.8722 350.579 28.4102 352.249 28.4102V19.0387C348.599 19.0387 345.238 20.126 342.339 22.3109L348.011 29.7861ZM352.249 28.4102C353.784 28.4102 354.767 28.7656 355.454 29.2351L360.783 21.5126C358.257 19.7828 355.327 19.0387 352.249 19.0387V28.4102ZM355.593 29.3269C356.289 29.7676 357.084 30.6003 357.808 32.2251L366.403 28.4188C365.122 25.5453 363.259 23.0791 360.642 21.4206L355.593 29.3269ZM357.862 32.3403C358.64 33.9656 359.292 36.2302 359.703 39.2677L369.025 38.0199C368.532 34.3601 367.68 31.0768 366.352 28.3038L357.862 32.3403ZM364.364 43.3295H365.042V33.9581H364.364V43.3295ZM369.7 37.9962C369.399 35.8478 369.122 33.8747 368.872 32.0765L359.555 33.3656C359.807 35.166 360.082 37.1413 360.383 39.2913L369.7 37.9962ZM368.889 32.2173C368.694 30.4178 368.55 28.8087 368.454 27.3864L359.068 28.0096C359.174 29.5861 359.332 31.3259 359.536 33.2248L368.889 32.2173ZM368.456 27.3962C368.36 25.9244 368.315 24.6279 368.315 23.4996H358.909C358.909 24.8704 358.963 26.3728 359.068 27.9997L368.456 27.3962ZM368.315 23.4996V12.4787H358.909V23.4996H368.315ZM363.612 17.1644H371.814V7.79297H363.612V17.1644ZM367.111 12.4583L366.961 46.8703L376.367 46.911L376.518 12.4991L367.111 12.4583ZM366.961 46.9323L367.111 63.8009L376.518 63.7175L376.367 46.8489L366.961 46.9323ZM371.814 59.0735H364.44V68.4449H371.814V59.0735ZM369.138 63.9794L369.74 51.2343L360.343 50.7938L359.741 63.539L369.138 63.9794ZM365.042 46.3284H364.364V55.6998H365.042V46.3284ZM359.732 50.2081C359.231 53.0594 358.542 55.1715 357.77 56.6751L366.142 60.9473C367.476 58.3524 368.393 55.2664 368.997 51.82L359.732 50.2081ZM357.77 56.6751C357.006 58.1603 356.23 58.92 355.586 59.3143L360.501 67.3044C362.965 65.7996 364.799 63.5603 366.142 60.9473L357.77 56.6751ZM355.586 59.3143C354.878 59.7459 353.925 60.0481 352.55 60.0481V69.4196C355.386 69.4196 358.097 68.7722 360.501 67.3044L355.586 59.3143ZM354.732 62.6721C357.11 62.6721 359.374 61.9981 361.335 60.5764L355.802 52.9973C355.557 53.1751 355.261 53.3007 354.732 53.3007V62.6721ZM361.335 60.5764C363.057 59.3289 364.411 57.724 365.42 55.8596L357.138 51.4166C356.74 52.1511 356.289 52.6456 355.802 52.9973L361.335 60.5764ZM365.352 55.9798C366.342 54.2711 367.062 52.4399 367.513 50.5045L358.354 48.3751C358.104 49.4383 357.721 50.4061 357.204 51.2966L365.352 55.9798ZM367.478 50.6469C367.979 48.7813 368.24 46.9012 368.24 45.0163H358.833C358.833 46.0306 358.692 47.0992 358.389 48.2324L367.478 50.6469ZM368.24 45.0163V44.1917H358.833V45.0163H368.24ZM368.24 44.1917C368.24 42.7728 368.071 41.3254 367.765 39.8623L358.556 41.7736C358.751 42.7096 358.833 43.5113 358.833 44.1917H368.24ZM367.8 40.0476C367.544 38.5229 367.13 37.0345 366.561 35.5868L357.801 39.0018C358.135 39.8534 358.375 40.7142 358.521 41.5883L367.8 40.0476ZM366.584 35.6491C365.994 34.0794 365.218 32.617 364.237 31.291L356.665 36.8501C357.088 37.4234 357.465 38.1101 357.777 38.9397L366.584 35.6491ZM364.395 31.5168C363.374 29.9539 362.046 28.6417 360.4 27.6914L355.687 35.8017C355.945 35.9509 356.223 36.188 356.508 36.6242L364.395 31.5168ZM360.651 27.8477C358.892 26.6795 356.91 26.161 354.883 26.161V35.5325C355.264 35.5325 355.386 35.614 355.433 35.6452L360.651 27.8477ZM354.883 26.161C352.077 26.161 349.544 27.1657 347.489 29.042L353.845 35.9502C354.198 35.6276 354.476 35.5325 354.883 35.5325V26.161ZM347.496 29.0357C345.544 30.8121 344.286 33.18 343.475 35.7281L352.442 38.5606C352.935 37.0103 353.483 36.2794 353.838 35.9565L347.496 29.0357ZM343.475 35.7281C342.638 38.3636 342.278 41.343 342.278 44.5665H351.684C351.684 41.9922 351.976 40.0237 352.442 38.5606L343.475 35.7281ZM342.278 44.5665C342.278 47.5994 342.614 50.433 343.369 53.005L352.397 50.3726C351.95 48.8462 351.684 46.9316 351.684 44.5665H342.278ZM343.378 53.0353C344.143 55.5758 345.368 57.915 347.266 59.7232L353.768 52.9509C353.359 52.5601 352.827 51.8003 352.387 50.3424L343.378 53.0353ZM347.266 59.7232C349.33 61.6902 351.915 62.6721 354.732 62.6721V53.3007C354.238 53.3007 354.012 53.1831 353.768 52.9509L347.266 59.7232ZM382.639 74.4052L381.691 78.9948L381.717 79L382.639 74.4052ZM377.823 72.6808L375.551 76.7836L375.582 76.7996L375.61 76.8152L377.823 72.6808ZM373.985 69.682L369.717 67.7156L368.402 70.5479L370.519 72.8483L373.985 69.682ZM377.221 62.7096L380.998 59.9155L376.276 53.5832L372.953 60.7433L377.221 62.7096ZM381.962 66.3832L383.73 62.0407L383.678 62.0201L383.627 62.0007L381.962 66.3832ZM397.539 60.4605L393.078 58.9788L393.069 59.0093L393.057 59.0398L397.539 60.4605ZM398.743 52.7384L394.052 52.4268L394.042 52.5421V52.6576L398.743 52.7384ZM399.27 44.8664L403.964 45.178L404.298 40.1807H399.27V44.8664ZM398.517 44.8664V40.1807H394.113L393.826 44.5588L398.517 44.8664ZM392.271 59.036L394.656 63.0749L394.701 63.0491L394.743 63.0226L392.271 59.036ZM380.005 58.4362L376.962 62.0091L376.99 62.0314L377.016 62.0534L380.005 58.4362ZM376.243 52.3636L371.734 53.6948L371.749 53.7449L371.765 53.7948L376.243 52.3636ZM375.039 24.6991V20.0133H370.335V24.6991H375.039ZM383.166 24.6991H387.869V20.0133H383.166V24.6991ZM395.432 49.2148L391.286 47.0022L391.272 47.0298L391.258 47.0579L395.432 49.2148ZM397.614 24.6991V20.0133H392.911V24.6991H397.614ZM405.742 24.6991H410.445V20.0133H405.742V24.6991ZM405.29 58.3613L400.636 57.6828L400.629 57.7313L400.624 57.78L405.29 58.3613ZM403.785 64.284L399.397 62.6021L399.376 62.6513L399.359 62.7009L403.785 64.284ZM400.7 69.607L397.106 66.5854L397.055 66.6454L397.005 66.7072L400.7 69.607ZM387.832 70.2442C386.451 70.2442 385.028 70.1027 383.561 69.8103L381.717 79C383.761 79.4074 385.802 79.6157 387.832 79.6157V70.2442ZM383.589 69.8157C382.315 69.5545 381.136 69.1304 380.036 68.5464L375.61 76.8152C377.522 77.8306 379.554 78.5565 381.691 78.9948L383.589 69.8157ZM380.095 68.5782C379.079 68.0197 378.206 67.3342 377.454 66.5158L370.519 72.8483C371.972 74.4291 373.658 75.7427 375.551 76.7836L380.095 68.5782ZM378.256 71.6485L381.491 64.6762L372.953 60.7433L369.717 67.7156L378.256 71.6485ZM373.446 65.5039C375.229 67.8967 377.515 69.7166 380.297 70.7658L383.627 62.0007C382.698 61.6504 381.821 61.0213 380.998 59.9155L373.446 65.5039ZM380.196 70.7257C382.569 71.6839 385.024 72.1935 387.53 72.1935V62.8221C386.326 62.8221 385.068 62.5819 383.73 62.0407L380.196 70.7257ZM387.53 72.1935C390.971 72.1935 394.292 71.4138 396.975 69.3261L391.183 61.9412C390.653 62.3523 389.609 62.8221 387.53 62.8221V72.1935ZM396.975 69.3261C399.425 67.4183 401.074 64.8519 402.021 61.8812L393.057 59.0398C392.603 60.4673 391.942 61.3496 391.183 61.9412L396.975 69.3261ZM402.003 61.9423C402.934 59.1534 403.39 56.0924 403.446 52.8192L394.042 52.6576C393.998 55.1822 393.649 57.2693 393.078 58.9788L402.003 61.9423ZM403.437 53.05L403.964 45.178L394.578 44.5548L394.052 52.4268L403.437 53.05ZM399.27 40.1807H398.517V49.5521H399.27V40.1807ZM393.826 44.5588C393.595 48.0286 392.993 50.4267 392.243 51.9913L400.73 56.0346C402.186 53.0008 402.939 49.3014 403.211 45.174L393.826 44.5588ZM392.243 51.9913C391.422 53.7016 390.552 54.5865 389.8 55.0494L394.743 63.0226C397.403 61.3864 399.343 58.9226 400.73 56.0346L392.243 51.9913ZM389.887 54.9972C388.97 55.5355 387.874 55.8497 386.477 55.8497V65.2212C389.395 65.2212 392.163 64.5356 394.656 63.0749L389.887 54.9972ZM386.477 55.8497C384.753 55.8497 383.714 55.4076 382.997 54.8193L377.016 62.0534C379.711 64.2639 382.985 65.2212 386.477 65.2212V55.8497ZM383.048 54.8634C382.23 54.1711 381.381 52.983 380.722 50.9325L371.765 53.7948C372.809 57.0422 374.472 59.9024 376.962 62.0091L383.048 54.8634ZM380.753 51.0323C380.113 48.8816 379.742 46.1297 379.742 42.6922H370.335C370.335 46.7522 370.768 50.4476 371.734 53.6948L380.753 51.0323ZM379.742 42.6922V24.6991H370.335V42.6922H379.742ZM375.039 29.3848H383.166V20.0133H375.039V29.3848ZM378.463 24.6991V41.1178H387.869V24.6991H378.463ZM378.463 41.1178C378.463 45.473 378.961 49.4404 380.464 52.4348L388.878 48.2439C388.375 47.2397 387.869 45.0597 387.869 41.1178H378.463ZM380.464 52.4348C381.273 54.0436 382.446 55.5051 384.088 56.5441C385.741 57.59 387.58 58.0239 389.412 58.0239V48.6525C389.238 48.6525 389.148 48.6326 389.123 48.6253C389.099 48.6192 389.108 48.6197 389.13 48.6328C389.193 48.6721 389.073 48.6342 388.878 48.2439L380.464 52.4348ZM389.412 58.0239C391.615 58.0239 393.725 57.415 395.571 56.1273L390.176 48.4498C390.016 48.5616 389.819 48.6525 389.412 48.6525V58.0239ZM395.571 56.1273C397.33 54.9002 398.64 53.2304 399.609 51.3716L391.258 47.0579C390.82 47.8981 390.423 48.2774 390.176 48.4498L395.571 56.1273ZM399.578 51.4276C400.622 49.4858 401.306 47.2849 401.72 44.9245L392.455 43.3089C392.168 44.9468 391.747 46.1449 391.286 47.0022L399.578 51.4276ZM401.72 44.9245C402.13 42.5966 402.318 40.0181 402.318 37.2193H392.911C392.911 39.6186 392.749 41.6384 392.455 43.3089L401.72 44.9245ZM402.318 37.2193V24.6991H392.911V37.2193H402.318ZM397.614 29.3848H405.742V20.0133H397.614V29.3848ZM401.038 24.6991V52.7384H410.445V24.6991H401.038ZM401.038 52.7384C401.038 54.168 400.911 55.8115 400.636 57.6828L409.944 59.0398C410.271 56.8126 410.445 54.7076 410.445 52.7384H401.038ZM400.624 57.78C400.422 59.3891 400.018 60.9942 399.397 62.6021L408.176 65.9662C409.06 63.6753 409.657 61.332 409.958 58.9425L400.624 57.78ZM399.359 62.7009C398.849 64.1195 398.104 65.4076 397.106 66.5854L404.295 72.6288C406.007 70.6074 407.32 68.347 408.213 65.8671L399.359 62.7009ZM397.005 66.7072C396.213 67.7107 395.133 68.5656 393.645 69.2363L397.523 77.7747C400.248 76.5461 402.579 74.802 404.394 72.507L397.005 66.7072ZM393.645 69.2363C392.309 69.838 390.43 70.2442 387.832 70.2442V79.6157C391.354 79.6157 394.642 79.0724 397.523 77.7747L393.645 69.2363Z" fill="#FC5033"/>
</g>
<path d="M32.6963 59.7011L32.6882 59.7023L32.6767 59.7038L32.6963 59.7011ZM32.6963 59.7011L41.1162 58.5025C42.2527 58.3407 43.3697 57.9105 44.2615 57.4638M32.6963 59.7011L46.9414 55.6218M46.9414 55.6218L46.9414 55.6217C46.147 56.3878 45.1618 57.0129 44.2615 57.4638M46.9414 55.6218L46.9496 55.6138M46.9414 55.6218L46.9496 55.6138M44.2615 57.4638L43.5899 56.1225L44.2617 57.4637C44.2616 57.4637 44.2616 57.4637 44.2615 57.4638ZM46.9496 55.6138L46.9771 55.5868L46.9772 55.5869M46.9496 55.6138L46.9772 55.5869M46.9772 55.5869L46.9864 55.5776M46.9772 55.5869L46.9864 55.5776M46.9864 55.5776L69.029 33.6141C71.1516 31.4995 73.3105 28.6556 73.6653 25.0553L73.6653 25.0552M46.9864 55.5776L73.6653 25.0552M73.6653 25.0552C74.0401 21.251 72.32 17.6858 69.0291 14.4068C65.7378 11.1271 62.1624 9.41656 58.351 9.78936C54.7425 10.1423 51.89 12.2914 49.7669 14.4068L50.8257 15.4693L49.7669 14.4068L27.7243 36.3704C27.7243 36.3705 27.7242 36.3705 27.7242 36.3705C26.9259 37.1659 26.2858 38.163 25.8304 39.0658C25.3789 39.9611 24.9514 41.0756 24.7884 42.2138M73.6653 25.0552L24.7884 42.2138M24.7884 42.2138C24.7874 42.2199 24.7865 42.2259 24.7857 42.232L23.5866 50.5953L23.5859 50.6L23.5851 50.6052C23.2108 53.1568 23.9027 55.718 25.747 57.5482L25.7471 57.5483C27.5849 59.3719 30.1434 60.051 32.6762 59.7039L24.7884 42.2138Z" fill="#FC5033" stroke="#FC5033" stroke-width="3" stroke-miterlimit="10" stroke-linecap="round" stroke-linejoin="round"/>
<path d="M26.6378 50.5763L33.8625 47.3584L32.678 55.1538L35.908 62.3515L28.0834 61.1714L20.8586 64.3893L22.0431 56.5939L18.8132 49.3962L26.6378 50.5763Z" stroke="white" stroke-width="2.5" stroke-linecap="round" stroke-linejoin="round"/>
<path d="M52.4888 17.1253L30.4459 39.0888C29.6068 39.925 28.7675 41.5697 28.5996 42.768L27.3967 51.1578C26.9492 54.1958 29.1031 56.3142 32.1522 55.896L40.5723 54.6976C41.7469 54.5303 43.3976 53.6942 44.2646 52.858L66.3075 30.8944C70.1118 27.1037 71.9021 22.6998 66.3075 17.1253C60.713 11.5508 56.2931 13.3346 52.4888 17.1253Z" fill="#FC5033" stroke="white" stroke-width="3" stroke-miterlimit="10" stroke-linecap="round" stroke-linejoin="round"/>
<path d="M51.6384 19.6348C53.2862 25.4911 57.8856 30.0732 63.7885 31.7395" stroke="white" stroke-width="3" stroke-miterlimit="10" stroke-linecap="round" stroke-linejoin="round"/>
<path d="M39.1226 6.99774L42.2653 1.92969L44.5967 7.46695L49.3846 10.7937L44.1535 13.2616L41.0107 18.3297L38.6793 12.7924L33.8914 9.46571L39.1226 6.99774Z" stroke="white" stroke-width="2.5" stroke-linecap="round" stroke-linejoin="round"/>
<path d="M422.563 52.3356L422.561 52.3363L418.746 54.4586L416.688 58.2961L422.563 52.3356ZM422.563 52.3356C423.524 51.7996 424.115 50.7828 424.107 49.6842L424.107 49.6797M422.563 52.3356L424.107 49.6797M424.107 49.6797C424.095 48.5792 423.483 47.574 422.511 47.0566C422.511 47.0566 422.511 47.0566 422.511 47.0566L418.658 45.0051L416.528 41.2052L416.527 41.2044M424.107 49.6797L416.527 41.2044M416.527 41.2044C415.989 40.2452 414.971 39.6562 413.869 39.6661L413.869 39.6661L416.527 41.2044ZM405.366 47.2157L405.367 47.2152L409.183 45.0926L411.241 41.2551C411.241 41.255 411.241 41.2549 411.241 41.2549L411.241 41.2543L412.343 41.845L405.366 47.2157ZM405.366 47.2157C404.408 47.7498 403.809 48.7664 403.822 49.8718C403.834 50.9713 404.445 51.9762 405.413 52.4939L405.415 52.495M405.366 47.2157L405.415 52.495M405.415 52.495L409.271 54.5465L411.401 58.346L411.401 58.3468M405.415 52.495L411.401 58.3468M411.401 58.3468C411.939 59.3056 412.957 59.8953 414.059 59.8851L411.401 58.3468ZM414.059 59.8851C415.158 59.8749 416.167 59.2674 416.687 58.2969L414.059 59.8851Z" fill="#FC5033" stroke="#FC5033" stroke-width="2.5" stroke-linecap="round" stroke-linejoin="round"/>
<path d="M413.89 47.3584V53.4107C413.89 57.7431 413.392 61.3312 412.324 64.2462" stroke="white" stroke-width="4" stroke-linecap="round" stroke-linejoin="round"/>
<path d="M416.46 47.2424L421.093 49.7094L416.508 52.2615L414.031 56.8776L411.468 52.3081L406.835 49.8413L411.421 47.289L413.897 42.6729L416.46 47.2424Z" fill="#FC5033" stroke="white" stroke-width="3" stroke-linecap="round" stroke-linejoin="round"/>
</svg>
