<svg width="182" height="35" viewBox="0 0 182 35" fill="none" xmlns="http://www.w3.org/2000/svg">
<path d="M13.7856 5.79761H12.1249C5.66659 5.79761 3.08325 8.38094 3.08325 14.8393V22.5893C3.08325 29.0476 5.66659 31.6309 12.1249 31.6309H167C171.609 31.6309 174.245 30.3152 175.376 27.2141C175.83 25.97 176.042 24.4385 176.042 22.5893V20.0059" stroke="#F56A56" stroke-width="1.5" stroke-linecap="round" stroke-linejoin="round"/>
<path d="M36.48 27.6301C35.2 27.6301 34.0587 27.4594 33.056 27.1181C32.0747 26.7768 31.2533 26.2861 30.592 25.6461C29.952 25.0061 29.4933 24.2381 29.216 23.3421C28.9387 22.4248 28.8533 21.4008 28.96 20.2701L32.224 19.6621C32.16 20.8141 32.2987 21.7634 32.64 22.5101C33.0027 23.2568 33.5253 23.8114 34.208 24.1741C34.912 24.5368 35.712 24.7181 36.608 24.7181C37.4187 24.7181 38.112 24.6008 38.688 24.3661C39.2853 24.1314 39.744 23.8008 40.064 23.3741C40.384 22.9474 40.544 22.4141 40.544 21.7741C40.544 20.9634 40.32 20.3234 39.872 19.8541C39.424 19.3634 38.8373 18.9688 38.112 18.6701C37.3867 18.3714 36.608 18.0941 35.776 17.8381C34.9653 17.5821 34.1547 17.3048 33.344 17.0061C32.5547 16.7074 31.8293 16.3341 31.168 15.8861C30.528 15.4168 30.016 14.8408 29.632 14.1581C29.248 13.4754 29.056 12.6328 29.056 11.6301C29.056 10.4354 29.344 9.40078 29.92 8.52611C30.496 7.63011 31.3067 6.93678 32.352 6.44611C33.4187 5.93411 34.6773 5.67811 36.128 5.67811C37.6213 5.67811 38.912 5.94478 40 6.47811C41.1093 6.99011 41.9413 7.75811 42.496 8.78211C43.072 9.80611 43.296 11.0648 43.168 12.5581L39.936 13.0701C40 12.4088 39.9573 11.8008 39.808 11.2461C39.6587 10.6914 39.4133 10.2114 39.072 9.80611C38.7307 9.40078 38.304 9.09144 37.792 8.87811C37.28 8.66478 36.6827 8.55811 36 8.55811C35.2747 8.55811 34.6453 8.67544 34.112 8.91011C33.5787 9.14478 33.1627 9.47544 32.864 9.90211C32.5867 10.3288 32.448 10.8301 32.448 11.4061C32.448 12.1314 32.6613 12.7181 33.088 13.1661C33.5147 13.5928 34.08 13.9448 34.784 14.2221C35.488 14.4781 36.2453 14.7234 37.056 14.9581C37.9093 15.2354 38.7413 15.5341 39.552 15.8541C40.3627 16.1741 41.0987 16.5794 41.76 17.0701C42.4427 17.5608 42.976 18.1688 43.36 18.8941C43.7653 19.6194 43.968 20.5261 43.968 21.6141C43.968 22.8728 43.6693 23.9501 43.072 24.8461C42.4747 25.7421 41.6107 26.4354 40.48 26.9261C39.3707 27.3954 38.0373 27.6301 36.48 27.6301ZM50.4795 27.5021C48.9648 27.5021 47.8128 27.0861 47.0235 26.2541C46.2342 25.4008 45.8395 24.1421 45.8395 22.4781V13.3581H44.0155V10.8941H44.6235C45.4128 10.8301 45.9782 10.5954 46.3195 10.1901C46.6608 9.78478 46.8635 9.16611 46.9275 8.33411L47.0555 6.99011H49.2315V10.5421H52.9755V13.4221H49.2315V22.0621C49.2315 22.8728 49.4022 23.4594 49.7435 23.8221C50.0848 24.1848 50.5435 24.3661 51.1195 24.3661C51.4182 24.3661 51.7275 24.3234 52.0475 24.2381C52.3888 24.1314 52.6982 23.9821 52.9755 23.7901V27.0861C52.5275 27.2354 52.0902 27.3421 51.6635 27.4061C51.2582 27.4701 50.8635 27.5021 50.4795 27.5021ZM58.8483 27.6301C57.1203 27.6301 55.8509 26.9901 55.0403 25.7101C54.2509 24.4088 53.8562 22.4141 53.8562 19.7261V10.5421H57.3123V19.5341C57.3123 21.3048 57.5149 22.5741 57.9202 23.3421C58.3469 24.1101 59.0189 24.4941 59.9363 24.4941C60.5336 24.4941 61.0563 24.3341 61.5043 24.0141C61.9736 23.6728 62.3683 23.1714 62.6883 22.5101C63.0083 21.8488 63.2429 21.0168 63.3923 20.0141C63.5629 19.0114 63.6483 17.8168 63.6483 16.4301V10.5421H67.1043V18.8621L67.1363 27.2141H64.0323L64.3523 20.4301H64.0963C63.9469 22.1581 63.6483 23.5554 63.2003 24.6221C62.7736 25.6674 62.1976 26.4354 61.4722 26.9261C60.7469 27.3954 59.8723 27.6301 58.8483 27.6301ZM74.1845 27.6301C73.0752 27.6301 72.0725 27.3208 71.1765 26.7021C70.3018 26.0621 69.5978 25.0914 69.0645 23.7901C68.5525 22.4888 68.2965 20.8354 68.2965 18.8301C68.2965 16.9101 68.5418 15.3101 69.0325 14.0301C69.5232 12.7288 70.1952 11.7581 71.0485 11.1181C71.9232 10.4568 72.9258 10.1261 74.0565 10.1261C75.0378 10.1261 75.8698 10.3608 76.5525 10.8301C77.2565 11.2781 77.8218 11.9821 78.2485 12.9421C78.6965 13.8808 79.0165 15.0648 79.2085 16.4941H79.4965C79.3685 15.5768 79.2512 14.7341 79.1445 13.9661C79.0592 13.1768 78.9952 12.4621 78.9525 11.8221C78.9098 11.1608 78.8885 10.5634 78.8885 10.0301V5.32611H82.3765L82.3125 20.0141L82.3765 27.2141H79.2405L79.4965 21.7741H79.2085C78.9738 23.1181 78.6325 24.2274 78.1845 25.1021C77.7365 25.9768 77.1818 26.6168 76.5205 27.0221C75.8592 27.4274 75.0805 27.6301 74.1845 27.6301ZM75.1125 24.7501C75.7312 24.7501 76.2752 24.5794 76.7445 24.2381C77.2138 23.8968 77.5978 23.4488 77.8965 22.8941C78.2165 22.3394 78.4512 21.7421 78.6005 21.1021C78.7712 20.4621 78.8565 19.8328 78.8565 19.2141V18.8621C78.8565 18.4141 78.8032 17.9341 78.6965 17.4221C78.6112 16.9101 78.4725 16.4088 78.2805 15.9181C78.0885 15.4061 77.8432 14.9474 77.5445 14.5421C77.2672 14.1154 76.9258 13.7848 76.5205 13.5501C76.1365 13.2941 75.6885 13.1661 75.1765 13.1661C74.4938 13.1661 73.8965 13.4008 73.3845 13.8701C72.8938 14.3181 72.5098 14.9794 72.2325 15.8541C71.9552 16.7288 71.8165 17.7848 71.8165 19.0221C71.8165 20.1741 71.9445 21.1874 72.2005 22.0621C72.4565 22.9154 72.8298 23.5768 73.3205 24.0461C73.8112 24.5154 74.4085 24.7501 75.1125 24.7501ZM89.188 31.9821C88.4627 31.9821 87.7267 31.9074 86.98 31.7581C86.2547 31.6088 85.572 31.3634 84.932 31.0221C84.3133 30.6808 83.7693 30.2541 83.3 29.7421L84.676 26.7661C85.2307 27.5128 85.9027 28.0354 86.692 28.3341C87.4813 28.6541 88.2707 28.8141 89.06 28.8141C90.2333 28.8141 91.1613 28.5474 91.844 28.0141C92.5267 27.4808 93.0173 26.7448 93.316 25.8061C93.636 24.8461 93.8067 23.7474 93.828 22.5101L94.052 19.1501H93.732C93.6253 20.7714 93.3373 22.0728 92.868 23.0541C92.3987 24.0354 91.8013 24.7501 91.076 25.1981C90.3507 25.6248 89.5293 25.8381 88.612 25.8381C87.5027 25.8381 86.5853 25.5394 85.86 24.9421C85.156 24.3448 84.6227 23.4808 84.26 22.3501C83.9187 21.1981 83.748 19.8221 83.748 18.2221V10.5421H87.204V17.5501C87.204 19.3208 87.4173 20.6328 87.844 21.4861C88.2707 22.3394 88.9427 22.7661 89.86 22.7661C90.4147 22.7661 90.9053 22.6168 91.332 22.3181C91.7587 22.0194 92.1213 21.5821 92.42 21.0061C92.74 20.4088 92.9747 19.6834 93.124 18.8301C93.2733 17.9768 93.348 16.9954 93.348 15.8861V10.5421H96.804V22.5101C96.804 23.2354 96.74 24.0354 96.612 24.9101C96.5053 25.7634 96.292 26.6061 95.972 27.4381C95.6733 28.2701 95.236 29.0274 94.66 29.7101C94.1053 30.4141 93.38 30.9688 92.484 31.3741C91.588 31.7794 90.4893 31.9821 89.188 31.9821ZM98.4525 27.2141V6.09411H105.364C106.538 6.09411 107.572 6.21144 108.468 6.44611C109.364 6.68078 110.122 7.03278 110.74 7.50211C111.38 7.95011 111.86 8.50478 112.18 9.16611C112.5 9.82744 112.66 10.5954 112.66 11.4701C112.66 12.3234 112.49 13.1021 112.148 13.8061C111.807 14.4888 111.274 15.0434 110.548 15.4701C109.844 15.8968 108.916 16.1528 107.764 16.2381V16.5261C109.663 16.6328 111.082 17.1341 112.02 18.0301C112.98 18.9048 113.46 20.1101 113.46 21.6461C113.46 22.8408 113.172 23.8541 112.596 24.6861C112.042 25.5181 111.22 26.1474 110.132 26.5741C109.066 27.0008 107.722 27.2141 106.1 27.2141H98.4525ZM101.908 24.3341H105.94C107.284 24.3341 108.287 24.0781 108.948 23.5661C109.631 23.0541 109.972 22.2754 109.972 21.2301C109.972 20.0568 109.556 19.1821 108.724 18.6061C107.914 18.0301 106.687 17.7421 105.044 17.7421H101.908V24.3341ZM101.908 15.1821H105.108C106.474 15.1821 107.487 14.9154 108.148 14.3821C108.831 13.8488 109.172 13.0594 109.172 12.0141C109.172 10.9901 108.842 10.2328 108.18 9.74211C107.519 9.23011 106.495 8.97411 105.108 8.97411H101.908V15.1821ZM119.383 27.6301C117.655 27.6301 116.386 26.9901 115.575 25.7101C114.786 24.4088 114.391 22.4141 114.391 19.7261V10.5421H117.847V19.5341C117.847 21.3048 118.05 22.5741 118.455 23.3421C118.882 24.1101 119.554 24.4941 120.471 24.4941C121.069 24.4941 121.591 24.3341 122.039 24.0141C122.509 23.6728 122.903 23.1714 123.223 22.5101C123.543 21.8488 123.778 21.0168 123.927 20.0141C124.098 19.0114 124.183 17.8168 124.183 16.4301V10.5421H127.639V18.8621L127.671 27.2141H124.567L124.887 20.4301H124.631C124.482 22.1581 124.183 23.5554 123.735 24.6221C123.309 25.6674 122.733 26.4354 122.007 26.9261C121.282 27.3954 120.407 27.6301 119.383 27.6301ZM134.719 27.6301C133.61 27.6301 132.607 27.3208 131.711 26.7021C130.837 26.0621 130.133 25.0914 129.599 23.7901C129.087 22.4888 128.831 20.8354 128.831 18.8301C128.831 16.9101 129.077 15.3101 129.567 14.0301C130.058 12.7288 130.73 11.7581 131.583 11.1181C132.458 10.4568 133.461 10.1261 134.591 10.1261C135.573 10.1261 136.405 10.3608 137.087 10.8301C137.791 11.2781 138.357 11.9821 138.783 12.9421C139.231 13.8808 139.551 15.0648 139.743 16.4941H140.031C139.903 15.5768 139.786 14.7341 139.679 13.9661C139.594 13.1768 139.53 12.4621 139.487 11.8221C139.445 11.1608 139.423 10.5634 139.423 10.0301V5.32611H142.911L142.847 20.0141L142.911 27.2141H139.775L140.031 21.7741H139.743C139.509 23.1181 139.167 24.2274 138.719 25.1021C138.271 25.9768 137.717 26.6168 137.055 27.0221C136.394 27.4274 135.615 27.6301 134.719 27.6301ZM135.647 24.7501C136.266 24.7501 136.81 24.5794 137.279 24.2381C137.749 23.8968 138.133 23.4488 138.431 22.8941C138.751 22.3394 138.986 21.7421 139.135 21.1021C139.306 20.4621 139.391 19.8328 139.391 19.2141V18.8621C139.391 18.4141 139.338 17.9341 139.231 17.4221C139.146 16.9101 139.007 16.4088 138.815 15.9181C138.623 15.4061 138.378 14.9474 138.079 14.5421C137.802 14.1154 137.461 13.7848 137.055 13.5501C136.671 13.2941 136.223 13.1661 135.711 13.1661C135.029 13.1661 134.431 13.4008 133.919 13.8701C133.429 14.3181 133.045 14.9794 132.767 15.8541C132.49 16.7288 132.351 17.7848 132.351 19.0221C132.351 20.1741 132.479 21.1874 132.735 22.0621C132.991 22.9154 133.365 23.5768 133.855 24.0461C134.346 24.5154 134.943 24.7501 135.647 24.7501ZM149.916 27.6301C148.806 27.6301 147.804 27.3208 146.908 26.7021C146.033 26.0621 145.329 25.0914 144.796 23.7901C144.284 22.4888 144.028 20.8354 144.028 18.8301C144.028 16.9101 144.273 15.3101 144.764 14.0301C145.254 12.7288 145.926 11.7581 146.78 11.1181C147.654 10.4568 148.657 10.1261 149.788 10.1261C150.769 10.1261 151.601 10.3608 152.284 10.8301C152.988 11.2781 153.553 11.9821 153.98 12.9421C154.428 13.8808 154.748 15.0648 154.94 16.4941H155.228C155.1 15.5768 154.982 14.7341 154.876 13.9661C154.79 13.1768 154.726 12.4621 154.684 11.8221C154.641 11.1608 154.62 10.5634 154.62 10.0301V5.32611H158.108L158.044 20.0141L158.108 27.2141H154.972L155.228 21.7741H154.94C154.705 23.1181 154.364 24.2274 153.916 25.1021C153.468 25.9768 152.913 26.6168 152.252 27.0221C151.59 27.4274 150.812 27.6301 149.916 27.6301ZM150.844 24.7501C151.462 24.7501 152.006 24.5794 152.476 24.2381C152.945 23.8968 153.329 23.4488 153.628 22.8941C153.948 22.3394 154.182 21.7421 154.332 21.1021C154.502 20.4621 154.588 19.8328 154.588 19.2141V18.8621C154.588 18.4141 154.534 17.9341 154.428 17.4221C154.342 16.9101 154.204 16.4088 154.012 15.9181C153.82 15.4061 153.574 14.9474 153.276 14.5421C152.998 14.1154 152.657 13.7848 152.252 13.5501C151.868 13.2941 151.42 13.1661 150.908 13.1661C150.225 13.1661 149.628 13.4008 149.116 13.8701C148.625 14.3181 148.241 14.9794 147.964 15.8541C147.686 16.7288 147.548 17.7848 147.548 19.0221C147.548 20.1741 147.676 21.1874 147.932 22.0621C148.188 22.9154 148.561 23.5768 149.052 24.0461C149.542 24.5154 150.14 24.7501 150.844 24.7501ZM164.919 31.9821C164.194 31.9821 163.458 31.9074 162.711 31.7581C161.986 31.6088 161.303 31.3634 160.663 31.0221C160.045 30.6808 159.501 30.2541 159.031 29.7421L160.407 26.7661C160.962 27.5128 161.634 28.0354 162.423 28.3341C163.213 28.6541 164.002 28.8141 164.791 28.8141C165.965 28.8141 166.893 28.5474 167.575 28.0141C168.258 27.4808 168.749 26.7448 169.047 25.8061C169.367 24.8461 169.538 23.7474 169.559 22.5101L169.783 19.1501H169.463C169.357 20.7714 169.069 22.0728 168.599 23.0541C168.13 24.0354 167.533 24.7501 166.807 25.1981C166.082 25.6248 165.261 25.8381 164.343 25.8381C163.234 25.8381 162.317 25.5394 161.591 24.9421C160.887 24.3448 160.354 23.4808 159.991 22.3501C159.65 21.1981 159.479 19.8221 159.479 18.2221V10.5421H162.935V17.5501C162.935 19.3208 163.149 20.6328 163.575 21.4861C164.002 22.3394 164.674 22.7661 165.591 22.7661C166.146 22.7661 166.637 22.6168 167.063 22.3181C167.49 22.0194 167.853 21.5821 168.151 21.0061C168.471 20.4088 168.706 19.6834 168.855 18.8301C169.005 17.9768 169.079 16.9954 169.079 15.8861V10.5421H172.535V22.5101C172.535 23.2354 172.471 24.0354 172.343 24.9101C172.237 25.7634 172.023 26.6061 171.703 27.4381C171.405 28.2701 170.967 29.0274 170.391 29.7101C169.837 30.4141 169.111 30.9688 168.215 31.3741C167.319 31.7794 166.221 31.9821 164.919 31.9821Z" fill="#795CC2"/>
<mask id="mask0_1666_6617" style="mask-type:luminance" maskUnits="userSpaceOnUse" x="26" y="3" width="149" height="32">
<path d="M175 3.21411H26V34.2141H175V3.21411Z" fill="white"/>
<path d="M36.48 27.6301C35.2 27.6301 34.0587 27.4594 33.056 27.1181C32.0747 26.7768 31.2533 26.2861 30.592 25.6461C29.952 25.0061 29.4933 24.2381 29.216 23.3421C28.9387 22.4248 28.8533 21.4008 28.96 20.2701L32.224 19.6621C32.16 20.8141 32.2987 21.7634 32.64 22.5101C33.0027 23.2568 33.5253 23.8114 34.208 24.1741C34.912 24.5368 35.712 24.7181 36.608 24.7181C37.4187 24.7181 38.112 24.6008 38.688 24.3661C39.2853 24.1314 39.744 23.8008 40.064 23.3741C40.384 22.9474 40.544 22.4141 40.544 21.7741C40.544 20.9634 40.32 20.3234 39.872 19.8541C39.424 19.3634 38.8373 18.9688 38.112 18.6701C37.3867 18.3714 36.608 18.0941 35.776 17.8381C34.9653 17.5821 34.1547 17.3048 33.344 17.0061C32.5547 16.7074 31.8293 16.3341 31.168 15.8861C30.528 15.4168 30.016 14.8408 29.632 14.1581C29.248 13.4754 29.056 12.6328 29.056 11.6301C29.056 10.4354 29.344 9.40078 29.92 8.52611C30.496 7.63011 31.3067 6.93678 32.352 6.44611C33.4187 5.93411 34.6773 5.67811 36.128 5.67811C37.6213 5.67811 38.912 5.94478 40 6.47811C41.1093 6.99011 41.9413 7.75811 42.496 8.78211C43.072 9.80611 43.296 11.0648 43.168 12.5581L39.936 13.0701C40 12.4088 39.9573 11.8008 39.808 11.2461C39.6587 10.6914 39.4133 10.2114 39.072 9.80611C38.7307 9.40078 38.304 9.09144 37.792 8.87811C37.28 8.66478 36.6827 8.55811 36 8.55811C35.2747 8.55811 34.6453 8.67544 34.112 8.91011C33.5787 9.14478 33.1627 9.47544 32.864 9.90211C32.5867 10.3288 32.448 10.8301 32.448 11.4061C32.448 12.1314 32.6613 12.7181 33.088 13.1661C33.5147 13.5928 34.08 13.9448 34.784 14.2221C35.488 14.4781 36.2453 14.7234 37.056 14.9581C37.9093 15.2354 38.7413 15.5341 39.552 15.8541C40.3627 16.1741 41.0987 16.5794 41.76 17.0701C42.4427 17.5608 42.976 18.1688 43.36 18.8941C43.7653 19.6194 43.968 20.5261 43.968 21.6141C43.968 22.8728 43.6693 23.9501 43.072 24.8461C42.4747 25.7421 41.6107 26.4354 40.48 26.9261C39.3707 27.3954 38.0373 27.6301 36.48 27.6301ZM50.4795 27.5021C48.9648 27.5021 47.8128 27.0861 47.0235 26.2541C46.2342 25.4008 45.8395 24.1421 45.8395 22.4781V13.3581H44.0155V10.8941H44.6235C45.4128 10.8301 45.9782 10.5954 46.3195 10.1901C46.6608 9.78478 46.8635 9.16611 46.9275 8.33411L47.0555 6.99011H49.2315V10.5421H52.9755V13.4221H49.2315V22.0621C49.2315 22.8728 49.4022 23.4594 49.7435 23.8221C50.0848 24.1848 50.5435 24.3661 51.1195 24.3661C51.4182 24.3661 51.7275 24.3234 52.0475 24.2381C52.3888 24.1314 52.6982 23.9821 52.9755 23.7901V27.0861C52.5275 27.2354 52.0902 27.3421 51.6635 27.4061C51.2582 27.4701 50.8635 27.5021 50.4795 27.5021ZM58.8483 27.6301C57.1203 27.6301 55.8509 26.9901 55.0403 25.7101C54.2509 24.4088 53.8562 22.4141 53.8562 19.7261V10.5421H57.3123V19.5341C57.3123 21.3048 57.5149 22.5741 57.9202 23.3421C58.3469 24.1101 59.0189 24.4941 59.9363 24.4941C60.5336 24.4941 61.0563 24.3341 61.5043 24.0141C61.9736 23.6728 62.3683 23.1714 62.6883 22.5101C63.0083 21.8488 63.2429 21.0168 63.3923 20.0141C63.5629 19.0114 63.6483 17.8168 63.6483 16.4301V10.5421H67.1043V18.8621L67.1363 27.2141H64.0323L64.3523 20.4301H64.0963C63.9469 22.1581 63.6483 23.5554 63.2003 24.6221C62.7736 25.6674 62.1976 26.4354 61.4722 26.9261C60.7469 27.3954 59.8723 27.6301 58.8483 27.6301ZM74.1845 27.6301C73.0752 27.6301 72.0725 27.3208 71.1765 26.7021C70.3018 26.0621 69.5978 25.0914 69.0645 23.7901C68.5525 22.4888 68.2965 20.8354 68.2965 18.8301C68.2965 16.9101 68.5418 15.3101 69.0325 14.0301C69.5232 12.7288 70.1952 11.7581 71.0485 11.1181C71.9232 10.4568 72.9258 10.1261 74.0565 10.1261C75.0378 10.1261 75.8698 10.3608 76.5525 10.8301C77.2565 11.2781 77.8218 11.9821 78.2485 12.9421C78.6965 13.8808 79.0165 15.0648 79.2085 16.4941H79.4965C79.3685 15.5768 79.2512 14.7341 79.1445 13.9661C79.0592 13.1768 78.9952 12.4621 78.9525 11.8221C78.9098 11.1608 78.8885 10.5634 78.8885 10.0301V5.32611H82.3765L82.3125 20.0141L82.3765 27.2141H79.2405L79.4965 21.7741H79.2085C78.9738 23.1181 78.6325 24.2274 78.1845 25.1021C77.7365 25.9768 77.1818 26.6168 76.5205 27.0221C75.8592 27.4274 75.0805 27.6301 74.1845 27.6301ZM75.1125 24.7501C75.7312 24.7501 76.2752 24.5794 76.7445 24.2381C77.2138 23.8968 77.5978 23.4488 77.8965 22.8941C78.2165 22.3394 78.4512 21.7421 78.6005 21.1021C78.7712 20.4621 78.8565 19.8328 78.8565 19.2141V18.8621C78.8565 18.4141 78.8032 17.9341 78.6965 17.4221C78.6112 16.9101 78.4725 16.4088 78.2805 15.9181C78.0885 15.4061 77.8432 14.9474 77.5445 14.5421C77.2672 14.1154 76.9258 13.7848 76.5205 13.5501C76.1365 13.2941 75.6885 13.1661 75.1765 13.1661C74.4938 13.1661 73.8965 13.4008 73.3845 13.8701C72.8938 14.3181 72.5098 14.9794 72.2325 15.8541C71.9552 16.7288 71.8165 17.7848 71.8165 19.0221C71.8165 20.1741 71.9445 21.1874 72.2005 22.0621C72.4565 22.9154 72.8298 23.5768 73.3205 24.0461C73.8112 24.5154 74.4085 24.7501 75.1125 24.7501ZM89.188 31.9821C88.4627 31.9821 87.7267 31.9074 86.98 31.7581C86.2547 31.6088 85.572 31.3634 84.932 31.0221C84.3133 30.6808 83.7693 30.2541 83.3 29.7421L84.676 26.7661C85.2307 27.5128 85.9027 28.0354 86.692 28.3341C87.4813 28.6541 88.2707 28.8141 89.06 28.8141C90.2333 28.8141 91.1613 28.5474 91.844 28.0141C92.5267 27.4808 93.0173 26.7448 93.316 25.8061C93.636 24.8461 93.8067 23.7474 93.828 22.5101L94.052 19.1501H93.732C93.6253 20.7714 93.3373 22.0728 92.868 23.0541C92.3987 24.0354 91.8013 24.7501 91.076 25.1981C90.3507 25.6248 89.5293 25.8381 88.612 25.8381C87.5027 25.8381 86.5853 25.5394 85.86 24.9421C85.156 24.3448 84.6227 23.4808 84.26 22.3501C83.9187 21.1981 83.748 19.8221 83.748 18.2221V10.5421H87.204V17.5501C87.204 19.3208 87.4173 20.6328 87.844 21.4861C88.2707 22.3394 88.9427 22.7661 89.86 22.7661C90.4147 22.7661 90.9053 22.6168 91.332 22.3181C91.7587 22.0194 92.1213 21.5821 92.42 21.0061C92.74 20.4088 92.9747 19.6834 93.124 18.8301C93.2733 17.9768 93.348 16.9954 93.348 15.8861V10.5421H96.804V22.5101C96.804 23.2354 96.74 24.0354 96.612 24.9101C96.5053 25.7634 96.292 26.6061 95.972 27.4381C95.6733 28.2701 95.236 29.0274 94.66 29.7101C94.1053 30.4141 93.38 30.9688 92.484 31.3741C91.588 31.7794 90.4893 31.9821 89.188 31.9821ZM98.4525 27.2141V6.09411H105.364C106.538 6.09411 107.572 6.21144 108.468 6.44611C109.364 6.68078 110.122 7.03278 110.74 7.50211C111.38 7.95011 111.86 8.50478 112.18 9.16611C112.5 9.82744 112.66 10.5954 112.66 11.4701C112.66 12.3234 112.49 13.1021 112.148 13.8061C111.807 14.4888 111.274 15.0434 110.548 15.4701C109.844 15.8968 108.916 16.1528 107.764 16.2381V16.5261C109.663 16.6328 111.082 17.1341 112.02 18.0301C112.98 18.9048 113.46 20.1101 113.46 21.6461C113.46 22.8408 113.172 23.8541 112.596 24.6861C112.042 25.5181 111.22 26.1474 110.132 26.5741C109.066 27.0008 107.722 27.2141 106.1 27.2141H98.4525ZM101.908 24.3341H105.94C107.284 24.3341 108.287 24.0781 108.948 23.5661C109.631 23.0541 109.972 22.2754 109.972 21.2301C109.972 20.0568 109.556 19.1821 108.724 18.6061C107.914 18.0301 106.687 17.7421 105.044 17.7421H101.908V24.3341ZM101.908 15.1821H105.108C106.474 15.1821 107.487 14.9154 108.148 14.3821C108.831 13.8488 109.172 13.0594 109.172 12.0141C109.172 10.9901 108.842 10.2328 108.18 9.74211C107.519 9.23011 106.495 8.97411 105.108 8.97411H101.908V15.1821ZM119.383 27.6301C117.655 27.6301 116.386 26.9901 115.575 25.7101C114.786 24.4088 114.391 22.4141 114.391 19.7261V10.5421H117.847V19.5341C117.847 21.3048 118.05 22.5741 118.455 23.3421C118.882 24.1101 119.554 24.4941 120.471 24.4941C121.069 24.4941 121.591 24.3341 122.039 24.0141C122.509 23.6728 122.903 23.1714 123.223 22.5101C123.543 21.8488 123.778 21.0168 123.927 20.0141C124.098 19.0114 124.183 17.8168 124.183 16.4301V10.5421H127.639V18.8621L127.671 27.2141H124.567L124.887 20.4301H124.631C124.482 22.1581 124.183 23.5554 123.735 24.6221C123.309 25.6674 122.733 26.4354 122.007 26.9261C121.282 27.3954 120.407 27.6301 119.383 27.6301ZM134.719 27.6301C133.61 27.6301 132.607 27.3208 131.711 26.7021C130.837 26.0621 130.133 25.0914 129.599 23.7901C129.087 22.4888 128.831 20.8354 128.831 18.8301C128.831 16.9101 129.077 15.3101 129.567 14.0301C130.058 12.7288 130.73 11.7581 131.583 11.1181C132.458 10.4568 133.461 10.1261 134.591 10.1261C135.573 10.1261 136.405 10.3608 137.087 10.8301C137.791 11.2781 138.357 11.9821 138.783 12.9421C139.231 13.8808 139.551 15.0648 139.743 16.4941H140.031C139.903 15.5768 139.786 14.7341 139.679 13.9661C139.594 13.1768 139.53 12.4621 139.487 11.8221C139.445 11.1608 139.423 10.5634 139.423 10.0301V5.32611H142.911L142.847 20.0141L142.911 27.2141H139.775L140.031 21.7741H139.743C139.509 23.1181 139.167 24.2274 138.719 25.1021C138.271 25.9768 137.717 26.6168 137.055 27.0221C136.394 27.4274 135.615 27.6301 134.719 27.6301ZM135.647 24.7501C136.266 24.7501 136.81 24.5794 137.279 24.2381C137.749 23.8968 138.133 23.4488 138.431 22.8941C138.751 22.3394 138.986 21.7421 139.135 21.1021C139.306 20.4621 139.391 19.8328 139.391 19.2141V18.8621C139.391 18.4141 139.338 17.9341 139.231 17.4221C139.146 16.9101 139.007 16.4088 138.815 15.9181C138.623 15.4061 138.378 14.9474 138.079 14.5421C137.802 14.1154 137.461 13.7848 137.055 13.5501C136.671 13.2941 136.223 13.1661 135.711 13.1661C135.029 13.1661 134.431 13.4008 133.919 13.8701C133.429 14.3181 133.045 14.9794 132.767 15.8541C132.49 16.7288 132.351 17.7848 132.351 19.0221C132.351 20.1741 132.479 21.1874 132.735 22.0621C132.991 22.9154 133.365 23.5768 133.855 24.0461C134.346 24.5154 134.943 24.7501 135.647 24.7501ZM149.916 27.6301C148.806 27.6301 147.804 27.3208 146.908 26.7021C146.033 26.0621 145.329 25.0914 144.796 23.7901C144.284 22.4888 144.028 20.8354 144.028 18.8301C144.028 16.9101 144.273 15.3101 144.764 14.0301C145.254 12.7288 145.926 11.7581 146.78 11.1181C147.654 10.4568 148.657 10.1261 149.788 10.1261C150.769 10.1261 151.601 10.3608 152.284 10.8301C152.988 11.2781 153.553 11.9821 153.98 12.9421C154.428 13.8808 154.748 15.0648 154.94 16.4941H155.228C155.1 15.5768 154.982 14.7341 154.876 13.9661C154.79 13.1768 154.726 12.4621 154.684 11.8221C154.641 11.1608 154.62 10.5634 154.62 10.0301V5.32611H158.108L158.044 20.0141L158.108 27.2141H154.972L155.228 21.7741H154.94C154.705 23.1181 154.364 24.2274 153.916 25.1021C153.468 25.9768 152.913 26.6168 152.252 27.0221C151.59 27.4274 150.812 27.6301 149.916 27.6301ZM150.844 24.7501C151.462 24.7501 152.006 24.5794 152.476 24.2381C152.945 23.8968 153.329 23.4488 153.628 22.8941C153.948 22.3394 154.182 21.7421 154.332 21.1021C154.502 20.4621 154.588 19.8328 154.588 19.2141V18.8621C154.588 18.4141 154.534 17.9341 154.428 17.4221C154.342 16.9101 154.204 16.4088 154.012 15.9181C153.82 15.4061 153.574 14.9474 153.276 14.5421C152.998 14.1154 152.657 13.7848 152.252 13.5501C151.868 13.2941 151.42 13.1661 150.908 13.1661C150.225 13.1661 149.628 13.4008 149.116 13.8701C148.625 14.3181 148.241 14.9794 147.964 15.8541C147.686 16.7288 147.548 17.7848 147.548 19.0221C147.548 20.1741 147.676 21.1874 147.932 22.0621C148.188 22.9154 148.561 23.5768 149.052 24.0461C149.542 24.5154 150.14 24.7501 150.844 24.7501ZM164.919 31.9821C164.194 31.9821 163.458 31.9074 162.711 31.7581C161.986 31.6088 161.303 31.3634 160.663 31.0221C160.045 30.6808 159.501 30.2541 159.031 29.7421L160.407 26.7661C160.962 27.5128 161.634 28.0354 162.423 28.3341C163.213 28.6541 164.002 28.8141 164.791 28.8141C165.965 28.8141 166.893 28.5474 167.575 28.0141C168.258 27.4808 168.749 26.7448 169.047 25.8061C169.367 24.8461 169.538 23.7474 169.559 22.5101L169.783 19.1501H169.463C169.357 20.7714 169.069 22.0728 168.599 23.0541C168.13 24.0354 167.533 24.7501 166.807 25.1981C166.082 25.6248 165.261 25.8381 164.343 25.8381C163.234 25.8381 162.317 25.5394 161.591 24.9421C160.887 24.3448 160.354 23.4808 159.991 22.3501C159.65 21.1981 159.479 19.8221 159.479 18.2221V10.5421H162.935V17.5501C162.935 19.3208 163.149 20.6328 163.575 21.4861C164.002 22.3394 164.674 22.7661 165.591 22.7661C166.146 22.7661 166.637 22.6168 167.063 22.3181C167.49 22.0194 167.853 21.5821 168.151 21.0061C168.471 20.4088 168.706 19.6834 168.855 18.8301C169.005 17.9768 169.079 16.9954 169.079 15.8861V10.5421H172.535V22.5101C172.535 23.2354 172.471 24.0354 172.343 24.9101C172.237 25.7634 172.023 26.6061 171.703 27.4381C171.405 28.2701 170.967 29.0274 170.391 29.7101C169.837 30.4141 169.111 30.9688 168.215 31.3741C167.319 31.7794 166.221 31.9821 164.919 31.9821Z" fill="black"/>
</mask>
<g mask="url(#mask0_1666_6617)">
<path d="M33.056 27.1181L32.3989 29.0071L32.4115 29.0114L33.056 27.1181ZM30.592 25.6461L29.1778 27.0603L29.1894 27.0719L29.2012 27.0833L30.592 25.6461ZM29.216 23.3421L27.3015 23.9209L27.3054 23.9335L29.216 23.3421ZM28.96 20.2701L28.5938 18.3039L27.1105 18.5802L26.9688 20.0823L28.96 20.2701ZM32.224 19.6621L34.2209 19.7731L34.3622 17.2294L31.8578 17.6959L32.224 19.6621ZM32.64 22.5101L30.8211 23.3416L30.8308 23.3629L30.841 23.3839L32.64 22.5101ZM34.208 24.1741L33.2697 25.9403L33.2809 25.9463L33.2921 25.9521L34.208 24.1741ZM38.688 24.3661L37.9567 22.5046L37.945 22.5092L37.9334 22.5139L38.688 24.3661ZM39.872 19.8541L38.395 21.2026L38.41 21.219L38.4253 21.2351L39.872 19.8541ZM35.776 17.8381L35.1737 19.7453L35.1808 19.7475L35.1878 19.7497L35.776 17.8381ZM33.344 17.0061L32.6362 18.8767L32.6444 18.8798L32.6526 18.8828L33.344 17.0061ZM31.168 15.8861L29.9853 17.4989L30.0154 17.521L30.0463 17.5419L31.168 15.8861ZM29.92 8.52611L31.5903 9.62609L31.5964 9.61689L31.6024 9.60763L29.92 8.52611ZM32.352 6.44611L33.2018 8.25658L33.2097 8.2529L33.2175 8.24916L32.352 6.44611ZM40 6.47811L39.1197 8.27395L39.1407 8.28424L39.1619 8.29403L40 6.47811ZM42.496 8.78211L40.7374 9.73468L40.745 9.74872L40.7528 9.76263L42.496 8.78211ZM43.168 12.5581L43.4809 14.5335L45.027 14.2886L45.1607 12.7289L43.168 12.5581ZM39.936 13.0701L37.9453 12.8775L37.6964 15.4498L40.2489 15.0455L39.936 13.0701ZM32.864 9.90211L31.2255 8.75519L31.2058 8.78333L31.1871 8.81213L32.864 9.90211ZM33.088 13.1661L31.6397 14.5454L31.6565 14.5631L31.6738 14.5803L33.088 13.1661ZM34.784 14.2221L34.051 16.0829L34.0756 16.0926L34.1005 16.1017L34.784 14.2221ZM37.056 14.9581L37.6742 13.056L37.6433 13.046L37.6121 13.037L37.056 14.9581ZM41.76 17.0701L40.5683 18.6763L40.5805 18.6853L40.5927 18.6941L41.76 17.0701ZM43.36 18.8941L41.5924 19.8299L41.603 19.8499L41.6141 19.8698L43.36 18.8941ZM40.48 26.9261L41.2593 28.768L41.2678 28.7645L41.2762 28.7608L40.48 26.9261ZM36.48 25.6301C35.375 25.6301 34.4576 25.4825 33.7005 25.2248L32.4115 29.0114C33.6598 29.4364 35.025 29.6301 36.48 29.6301V25.6301ZM33.713 25.2291C32.9707 24.9709 32.4099 24.6222 31.9828 24.2089L29.2012 27.0833C30.0968 27.9501 31.1785 28.5826 32.3989 29.0071L33.713 25.2291ZM32.0062 24.2319C31.6046 23.8303 31.3114 23.3479 31.1266 22.7507L27.3054 23.9335C27.6753 25.1283 28.2994 26.182 29.1778 27.0603L32.0062 24.2319ZM31.1304 22.7633C30.9406 22.1356 30.8644 21.3774 30.9512 20.458L26.9688 20.0823C26.8422 21.4242 26.9366 22.714 27.3015 23.9209L31.1304 22.7633ZM29.3262 22.2363L32.5902 21.6283L31.8578 17.6959L28.5938 18.3039L29.3262 22.2363ZM30.2271 19.5512C30.152 20.9035 30.3013 22.2048 30.8211 23.3416L34.4589 21.6786C34.296 21.3221 34.168 20.7248 34.2209 19.7731L30.2271 19.5512ZM30.841 23.3839C31.3743 24.4819 32.1846 25.3639 33.2697 25.9403L35.1463 22.4079C34.8661 22.259 34.631 22.0316 34.439 21.6363L30.841 23.3839ZM33.2921 25.9521C34.3147 26.4789 35.4356 26.7181 36.608 26.7181V22.7181C35.9884 22.7181 35.5093 22.5947 35.1239 22.3962L33.2921 25.9521ZM36.608 26.7181C37.6027 26.7181 38.5664 26.5753 39.4426 26.2183L37.9334 22.5139C37.6576 22.6263 37.2346 22.7181 36.608 22.7181V26.7181ZM39.4193 26.2276C40.2913 25.885 41.0799 25.353 41.664 24.5741L38.464 22.1741C38.4081 22.2486 38.2794 22.3778 37.9567 22.5046L39.4193 26.2276ZM41.664 24.5741C42.2924 23.7362 42.544 22.7578 42.544 21.7741H38.544C38.544 22.0704 38.4756 22.1587 38.464 22.1741L41.664 24.5741ZM42.544 21.7741C42.544 20.5837 42.205 19.4017 41.3187 18.4732L38.4253 21.2351C38.435 21.2452 38.544 21.3432 38.544 21.7741H42.544ZM41.349 18.5056C40.6696 17.7615 39.8226 17.2115 38.8735 16.8208L37.3505 20.5195C37.8521 20.726 38.1784 20.9654 38.395 21.2026L41.349 18.5056ZM38.8735 16.8208C38.0856 16.4963 37.2486 16.1987 36.3642 15.9266L35.1878 19.7497C35.9674 19.9895 36.6877 20.2466 37.3505 20.5195L38.8735 16.8208ZM36.3783 15.9309C35.598 15.6846 34.8171 15.4174 34.0354 15.1294L32.6526 18.8828C33.4923 19.1921 34.3326 19.4797 35.1737 19.7453L36.3783 15.9309ZM34.0518 15.1355C33.4001 14.889 32.8148 14.586 32.2897 14.2303L30.0463 17.5419C30.8438 18.0822 31.7092 18.5259 32.6362 18.8767L34.0518 15.1355ZM32.3507 14.2733C31.9373 13.9701 31.6176 13.6086 31.3752 13.1776L27.8888 15.1386C28.4144 16.0729 29.1187 16.8634 29.9853 17.4989L32.3507 14.2733ZM31.3752 13.1776C31.2003 12.8668 31.056 12.3834 31.056 11.6301H27.056C27.056 12.8821 27.2957 14.0841 27.8888 15.1386L31.3752 13.1776ZM31.056 11.6301C31.056 10.7698 31.2586 10.1299 31.5903 9.62609L28.2497 7.42613C27.4294 8.67164 27.056 10.1011 27.056 11.6301H31.056ZM31.6024 9.60763C31.9578 9.05465 32.4673 8.60137 33.2018 8.25658L31.5022 4.63564C30.1461 5.27218 29.0342 6.20557 28.2376 7.44459L31.6024 9.60763ZM33.2175 8.24916C33.96 7.89276 34.9105 7.67811 36.128 7.67811V3.67811C34.4441 3.67811 32.8774 3.97546 31.4865 4.64306L33.2175 8.24916ZM36.128 7.67811C37.3857 7.67811 38.362 7.90251 39.1197 8.27395L40.8803 4.68227C39.462 3.98704 37.857 3.67811 36.128 3.67811V7.67811ZM39.1619 8.29403C39.8998 8.63463 40.3989 9.10972 40.7374 9.73468L44.2546 7.82954C43.4838 6.4065 42.3188 5.3456 40.8381 4.66219L39.1619 8.29403ZM40.7528 9.76263C41.084 10.3514 41.2784 11.1841 41.1753 12.3873L45.1607 12.7289C45.3136 10.9455 45.06 9.26085 44.2392 7.80159L40.7528 9.76263ZM42.8551 10.5827L39.6231 11.0947L40.2489 15.0455L43.4809 14.5335L42.8551 10.5827ZM41.9267 13.2628C42.0103 12.3992 41.96 11.5462 41.7392 10.7262L37.8768 11.7661C37.9547 12.0554 37.9897 12.4184 37.9453 12.8775L41.9267 13.2628ZM41.7392 10.7262C41.5204 9.9132 41.1469 9.16517 40.6018 8.51784L37.5422 11.0944C37.6797 11.2577 37.797 11.4697 37.8768 11.7661L41.7392 10.7262ZM40.6018 8.51784C40.0454 7.85707 39.3534 7.36204 38.5612 7.03196L37.0228 10.7243C37.2546 10.8209 37.4159 10.9445 37.5422 11.0944L40.6018 8.51784ZM38.5612 7.03196C37.7562 6.69655 36.8876 6.55811 36 6.55811V10.5581C36.4778 10.5581 36.8038 10.633 37.0228 10.7243L38.5612 7.03196ZM36 6.55811C35.0632 6.55811 34.1478 6.70933 33.3065 7.07948L34.9175 10.7407C35.1429 10.6416 35.4861 10.5581 36 10.5581V6.55811ZM33.3065 7.07948C32.4791 7.44356 31.7583 7.99412 31.2255 8.75519L34.5025 11.049C34.5671 10.9568 34.6783 10.846 34.9175 10.7407L33.3065 7.07948ZM31.1871 8.81213C30.672 9.60466 30.448 10.4958 30.448 11.4061H34.448C34.448 11.1645 34.5014 11.0529 34.5409 10.9921L31.1871 8.81213ZM30.448 11.4061C30.448 12.5503 30.7985 13.6622 31.6397 14.5454L34.5363 11.7868C34.5241 11.7741 34.448 11.7126 34.448 11.4061H30.448ZM31.6738 14.5803C32.3371 15.2436 33.1544 15.7297 34.051 16.0829L35.517 12.3613C35.0056 12.1598 34.6923 11.942 34.5022 11.7519L31.6738 14.5803ZM34.1005 16.1017C34.8513 16.3747 35.6516 16.6337 36.4999 16.8792L37.6121 13.037C36.8391 12.8132 36.1247 12.5815 35.4675 12.3425L34.1005 16.1017ZM36.4378 16.8602C37.2532 17.1252 38.0464 17.41 38.8177 17.7144L40.2863 13.9938C39.4363 13.6583 38.5655 13.3457 37.6742 13.056L36.4378 16.8602ZM38.8177 17.7144C39.4749 17.9739 40.0556 18.2959 40.5683 18.6763L42.9517 15.4639C42.1417 14.863 41.2504 14.3744 40.2863 13.9938L38.8177 17.7144ZM40.5927 18.6941C41.0312 19.0093 41.3564 19.384 41.5924 19.8299L45.1276 17.9583C44.5956 16.9536 43.8541 16.1123 42.9273 15.4461L40.5927 18.6941ZM41.6141 19.8698C41.8091 20.2186 41.968 20.7652 41.968 21.6141H45.968C45.968 20.2871 45.7216 19.0203 45.1059 17.9185L41.6141 19.8698ZM41.968 21.6141C41.968 22.5461 41.7512 23.2217 41.4079 23.7367L44.7361 25.9555C45.5875 24.6785 45.968 23.1994 45.968 21.6141H41.968ZM41.4079 23.7367C41.0537 24.2681 40.5138 24.7312 39.6838 25.0914L41.2762 28.7608C42.7075 28.1396 43.8957 27.2162 44.7361 25.9555L41.4079 23.7367ZM39.7007 25.0842C38.8987 25.4235 37.8446 25.6301 36.48 25.6301V29.6301C38.2301 29.6301 39.8426 29.3674 41.2593 28.768L39.7007 25.0842ZM47.0235 26.2541L45.5553 27.6122L45.5639 27.6215L45.5726 27.6306L47.0235 26.2541ZM45.8395 13.3581H47.8395V11.3581H45.8395V13.3581ZM44.0155 13.3581H42.0155V15.3581H44.0155V13.3581ZM44.0155 10.8941V8.89411H42.0155V10.8941H44.0155ZM44.6235 10.8941V12.8941H44.7044L44.7851 12.8876L44.6235 10.8941ZM46.9275 8.33411L44.9365 8.14449L44.9348 8.16259L44.9334 8.18072L46.9275 8.33411ZM47.0555 6.99011V4.99011H45.2369L45.0645 6.80049L47.0555 6.99011ZM49.2315 6.99011H51.2315V4.99011H49.2315V6.99011ZM49.2315 10.5421H47.2315V12.5421H49.2315V10.5421ZM52.9755 10.5421H54.9755V8.54211H52.9755V10.5421ZM52.9755 13.4221V15.4221H54.9755V13.4221H52.9755ZM49.2315 13.4221V11.4221H47.2315V13.4221H49.2315ZM52.0475 24.2381L52.5628 26.1706L52.6037 26.1597L52.6441 26.1471L52.0475 24.2381ZM52.9755 23.7901H54.9755V19.973L51.8371 22.1457L52.9755 23.7901ZM52.9755 27.0861L53.608 28.9835L54.9755 28.5276V27.0861H52.9755ZM51.6635 27.4061L51.3668 25.4282L51.3592 25.4294L51.3516 25.4306L51.6635 27.4061ZM50.4795 25.5021C49.3296 25.5021 48.7759 25.1953 48.4744 24.8776L45.5726 27.6306C46.8498 28.9769 48.6001 29.5021 50.4795 29.5021V25.5021ZM48.4917 24.896C48.1671 24.5451 47.8395 23.8547 47.8395 22.4781H43.8395C43.8395 24.4295 44.3012 26.2564 45.5553 27.6122L48.4917 24.896ZM47.8395 22.4781V13.3581H43.8395V22.4781H47.8395ZM45.8395 11.3581H44.0155V15.3581H45.8395V11.3581ZM46.0155 13.3581V10.8941H42.0155V13.3581H46.0155ZM44.0155 12.8941H44.6235V8.89411H44.0155V12.8941ZM44.7851 12.8876C45.8457 12.8016 47.0262 12.4559 47.8493 11.4784L44.7897 8.90184C44.8549 8.82443 44.906 8.80912 44.8727 8.82293C44.83 8.84067 44.7062 8.88084 44.4619 8.90065L44.7851 12.8876ZM47.8493 11.4784C48.5754 10.6162 48.8426 9.51447 48.9216 8.4875L44.9334 8.18072C44.9104 8.47943 44.8667 8.67789 44.8269 8.79949C44.7877 8.91922 44.7622 8.93447 44.7897 8.90184L47.8493 11.4784ZM48.9185 8.52373L49.0465 7.17973L45.0645 6.80049L44.9365 8.14449L48.9185 8.52373ZM47.0555 8.99011H49.2315V4.99011H47.0555V8.99011ZM47.2315 6.99011V10.5421H51.2315V6.99011H47.2315ZM49.2315 12.5421H52.9755V8.54211H49.2315V12.5421ZM50.9755 10.5421V13.4221H54.9755V10.5421H50.9755ZM52.9755 11.4221H49.2315V15.4221H52.9755V11.4221ZM47.2315 13.4221V22.0621H51.2315V13.4221H47.2315ZM47.2315 22.0621C47.2315 23.0794 47.4333 24.2856 48.2871 25.1928L51.1999 22.4514C51.2896 22.5467 51.2966 22.609 51.2799 22.5515C51.2614 22.4878 51.2315 22.3361 51.2315 22.0621H47.2315ZM48.2871 25.1928C49.0665 26.021 50.0864 26.3661 51.1195 26.3661V22.3661C51.0417 22.3661 51.0383 22.3542 51.0788 22.3702C51.0984 22.3779 51.122 22.3898 51.1461 22.4063C51.1702 22.4226 51.1883 22.439 51.1999 22.4514L48.2871 25.1928ZM51.1195 26.3661C51.6099 26.3661 52.0928 26.2959 52.5628 26.1706L51.5322 22.3056C51.3622 22.351 51.2265 22.3661 51.1195 22.3661V26.3661ZM52.6441 26.1471C53.1667 25.9837 53.6606 25.7483 54.1139 25.4345L51.8371 22.1457C51.7357 22.2159 51.611 22.2791 51.451 22.3292L52.6441 26.1471ZM50.9755 23.7901V27.0861H54.9755V23.7901H50.9755ZM52.343 25.1887C51.9943 25.305 51.6693 25.3829 51.3668 25.4282L51.9602 29.384C52.511 29.3014 53.0607 29.1659 53.608 28.9835L52.343 25.1887ZM51.3516 25.4306C51.0424 25.4794 50.7522 25.5021 50.4795 25.5021V29.5021C50.9748 29.5021 51.4739 29.4608 51.9754 29.3816L51.3516 25.4306ZM55.0403 25.7101L53.3302 26.7473L53.3403 26.7639L53.3506 26.7802L55.0403 25.7101ZM53.8563 10.5421V8.54211H51.8563V10.5421H53.8563ZM57.3123 10.5421H59.3123V8.54211H57.3123V10.5421ZM57.9202 23.3421L56.1515 24.2756L56.1615 24.2946L56.1719 24.3134L57.9202 23.3421ZM61.5042 24.0141L62.6667 25.6416L62.6737 25.6366L62.6806 25.6316L61.5042 24.0141ZM63.3923 20.0141L61.4206 19.6785L61.4171 19.699L61.4141 19.7195L63.3923 20.0141ZM63.6483 10.5421V8.54211H61.6483V10.5421H63.6483ZM67.1043 10.5421H69.1043V8.54211H67.1043V10.5421ZM67.1043 18.8621H65.1042L65.1043 18.8698L67.1043 18.8621ZM67.1362 27.2141V29.2141H69.1439L69.1362 27.2064L67.1362 27.2141ZM64.0322 27.2141L62.0345 27.1199L61.9357 29.2141H64.0322V27.2141ZM64.3522 20.4301L66.35 20.5243L66.4488 18.4301H64.3522V20.4301ZM64.0963 20.4301V18.4301H62.2616L62.1037 20.2579L64.0963 20.4301ZM63.2002 24.6221L61.3563 23.8476L61.3524 23.857L61.3486 23.8663L63.2002 24.6221ZM61.4723 26.9261L62.5588 28.6053L62.5759 28.5941L62.5929 28.5827L61.4723 26.9261ZM58.8483 25.6301C57.6921 25.6301 57.117 25.2512 56.7299 24.64L53.3506 26.7802C54.5848 28.729 56.5484 29.6301 58.8483 29.6301V25.6301ZM56.7503 24.6729C56.2461 23.8418 55.8563 22.2917 55.8563 19.7261H51.8563C51.8563 22.5366 52.2557 24.9758 53.3302 26.7473L56.7503 24.6729ZM55.8563 19.7261V10.5421H51.8563V19.7261H55.8563ZM53.8563 12.5421H57.3123V8.54211H53.8563V12.5421ZM55.3123 10.5421V19.5341H59.3123V10.5421H55.3123ZM55.3123 19.5341C55.3123 21.3587 55.5045 23.0499 56.1515 24.2756L59.689 22.4086C59.5253 22.0984 59.3123 21.2508 59.3123 19.5341H55.3123ZM56.1719 24.3134C56.5382 24.9726 57.0577 25.5459 57.752 25.9426C58.4418 26.3368 59.1943 26.4941 59.9363 26.4941V22.4941C59.7609 22.4941 59.7187 22.4594 59.7365 22.4696C59.7414 22.4724 59.7411 22.4737 59.7336 22.4658C59.725 22.4568 59.7011 22.4295 59.6686 22.3708L56.1719 24.3134ZM59.9363 26.4941C60.9131 26.4941 61.8504 26.2247 62.6667 25.6416L60.3418 22.3866C60.2621 22.4435 60.1541 22.4941 59.9363 22.4941V26.4941ZM62.6806 25.6316C63.4777 25.0518 64.0625 24.2618 64.4886 23.3812L60.8879 21.639C60.674 22.081 60.4694 22.2937 60.3279 22.3966L62.6806 25.6316ZM64.4886 23.3812C64.923 22.4834 65.2017 21.4413 65.3704 20.3087L61.4141 19.7195C61.2841 20.5922 61.0935 21.2141 60.8879 21.639L64.4886 23.3812ZM65.3639 20.3497C65.5588 19.2045 65.6483 17.8918 65.6483 16.4301H61.6483C61.6483 17.7418 61.567 18.8184 61.4206 19.6785L65.3639 20.3497ZM65.6483 16.4301V10.5421H61.6483V16.4301H65.6483ZM63.6483 12.5421H67.1043V8.54211H63.6483V12.5421ZM65.1043 10.5421L65.1042 18.8621H69.1043V10.5421H65.1043ZM65.1043 18.8698L65.1363 27.2218L69.1362 27.2064L69.1042 18.8544L65.1043 18.8698ZM67.1362 25.2141H64.0322V29.2141H67.1362V25.2141ZM66.03 27.3083L66.35 20.5243L62.3545 20.3359L62.0345 27.1199L66.03 27.3083ZM64.3522 18.4301H64.0963V22.4301H64.3522V18.4301ZM62.1037 20.2579C61.9642 21.8713 61.6942 23.043 61.3563 23.8476L65.0442 25.3966C65.6023 24.0679 65.9296 22.4449 66.0888 20.6023L62.1037 20.2579ZM61.3486 23.8663C61.0284 24.6507 60.6669 25.0563 60.3516 25.2695L62.5929 28.5827C63.7283 27.8146 64.5188 26.6842 65.0519 25.3779L61.3486 23.8663ZM60.3857 25.247C60.04 25.4707 59.5593 25.6301 58.8483 25.6301V29.6301C60.1852 29.6301 61.4538 29.3202 62.5588 28.6053L60.3857 25.247ZM71.1765 26.7021L69.9955 28.3162L70.0176 28.3323L70.0401 28.3479L71.1765 26.7021ZM69.0645 23.7901L67.2034 24.5224L67.2085 24.5355L67.2139 24.5486L69.0645 23.7901ZM69.0325 14.0301L70.9 14.746L70.9039 14.7357L69.0325 14.0301ZM71.0485 11.1181L72.2485 12.7181L72.2547 12.7134L71.0485 11.1181ZM76.5525 10.8301L75.4194 12.4782L75.4487 12.4983L75.4787 12.5174L76.5525 10.8301ZM78.2485 12.9421L76.4209 13.7544L76.4319 13.7791L76.4435 13.8036L78.2485 12.9421ZM79.2085 16.4941L77.2263 16.7604L77.4592 18.4941H79.2085V16.4941ZM79.4965 16.4941V18.4941H81.7949L81.4773 16.2177L79.4965 16.4941ZM79.1445 13.9661L77.1561 14.1811L77.1593 14.2112L77.1635 14.2412L79.1445 13.9661ZM78.9525 11.8221L76.9566 11.9509L76.9569 11.9551L78.9525 11.8221ZM78.8885 5.32611V3.32611H76.8885V5.32611H78.8885ZM82.3765 5.32611L84.3765 5.33483L84.3852 3.32611H82.3765V5.32611ZM82.3125 20.0141L80.3125 20.0054V20.0186L80.3126 20.0319L82.3125 20.0141ZM82.3765 27.2141V29.2141H84.3944L84.3764 27.1963L82.3765 27.2141ZM79.2405 27.2141L77.2427 27.1201L77.1442 29.2141H79.2405V27.2141ZM79.4965 21.7741L81.4943 21.8681L81.5928 19.7741H79.4965V21.7741ZM79.2085 21.7741V19.7741H77.5275L77.2383 21.4301L79.2085 21.7741ZM77.8965 22.8941L76.1641 21.8947L76.1495 21.9201L76.1356 21.9459L77.8965 22.8941ZM78.6005 21.1021L76.668 20.5868L76.6599 20.6171L76.6528 20.6477L78.6005 21.1021ZM78.6965 17.4221L76.7237 17.7509L76.7303 17.7906L76.7385 17.83L78.6965 17.4221ZM78.2805 15.9181L76.4078 16.6204L76.4128 16.6337L76.418 16.6469L78.2805 15.9181ZM77.5445 14.5421L75.8676 15.6321L75.8996 15.6813L75.9344 15.7285L77.5445 14.5421ZM76.5205 13.5501L75.4111 15.2142L75.4637 15.2493L75.5184 15.281L76.5205 13.5501ZM73.3845 13.8701L74.733 15.3471L74.7359 15.3444L73.3845 13.8701ZM72.2005 22.0621L70.281 22.6239L70.2848 22.6368L72.2005 22.0621ZM74.1845 25.6301C73.473 25.6301 72.8682 25.4397 72.3129 25.0563L70.0401 28.3479C71.2768 29.2018 72.6774 29.6301 74.1845 29.6301V25.6301ZM72.3575 25.0881C71.8571 24.7219 71.3493 24.0912 70.9151 23.0317L67.2139 24.5486C67.8463 26.0917 68.7465 27.4023 69.9955 28.3162L72.3575 25.0881ZM70.9256 23.0579C70.536 22.0675 70.2965 20.6847 70.2965 18.8301H66.2965C66.2965 20.9862 66.569 22.91 67.2034 24.5224L70.9256 23.0579ZM70.2965 18.8301C70.2965 17.0641 70.5244 15.7258 70.9 14.746L67.165 13.3142C66.5593 14.8944 66.2965 16.7561 66.2965 18.8301H70.2965ZM70.9039 14.7357C71.3004 13.684 71.7791 13.0702 72.2485 12.7181L69.8485 9.51811C68.6112 10.4461 67.7459 11.7736 67.1611 13.3245L70.9039 14.7357ZM72.2547 12.7134C72.7706 12.3233 73.3467 12.1261 74.0565 12.1261V8.12611C72.505 8.12611 71.0757 8.59021 69.8423 9.52279L72.2547 12.7134ZM74.0565 12.1261C74.7096 12.1261 75.128 12.2778 75.4194 12.4782L77.6856 9.18203C76.6117 8.44374 75.3661 8.12611 74.0565 8.12611V12.1261ZM75.4787 12.5174C75.7743 12.7055 76.1126 13.0609 76.4209 13.7544L80.0761 12.1298C79.531 10.9033 78.7387 9.85069 77.6263 9.14279L75.4787 12.5174ZM76.4435 13.8036C76.7746 14.4973 77.0521 15.4639 77.2263 16.7604L81.1907 16.2278C80.9809 14.6657 80.6184 13.2643 80.0535 12.0807L76.4435 13.8036ZM79.2085 18.4941H79.4965V14.4941H79.2085V18.4941ZM81.4773 16.2177C81.3494 15.3007 81.2321 14.4585 81.1255 13.691L77.1635 14.2412C77.2702 15.0097 77.3876 15.8528 77.5157 16.7705L81.4773 16.2177ZM81.1329 13.7511C81.0499 12.983 80.9885 12.2962 80.9481 11.6891L76.9569 11.9551C77.0018 12.628 77.0685 13.3706 77.1561 14.1811L81.1329 13.7511ZM80.9483 11.6933C80.9078 11.0651 80.8885 10.5117 80.8885 10.0301H76.8885C76.8885 10.6152 76.9118 11.2565 76.9566 11.9509L80.9483 11.6933ZM80.8885 10.0301V5.32611H76.8885V10.0301H80.8885ZM78.8885 7.32611H82.3765V3.32611H78.8885V7.32611ZM80.3765 5.3174L80.3125 20.0054L84.3125 20.0228L84.3765 5.33483L80.3765 5.3174ZM80.3126 20.0319L80.3766 27.2319L84.3764 27.1963L84.3124 19.9963L80.3126 20.0319ZM82.3765 25.2141H79.2405V29.2141H82.3765V25.2141ZM81.2383 27.3081L81.4943 21.8681L77.4987 21.6801L77.2427 27.1201L81.2383 27.3081ZM79.4965 19.7741H79.2085V23.7741H79.4965V19.7741ZM77.2383 21.4301C77.0258 22.6471 76.7331 23.5486 76.4044 24.1904L79.9646 26.0139C80.5319 24.9063 80.9218 23.5891 81.1787 22.1181L77.2383 21.4301ZM76.4044 24.1904C76.0797 24.8243 75.75 25.1486 75.4754 25.3169L77.5656 28.7273C78.6136 28.085 79.3933 27.1292 79.9646 26.0139L76.4044 24.1904ZM75.4754 25.3169C75.1748 25.5011 74.7699 25.6301 74.1845 25.6301V29.6301C75.3911 29.6301 76.5435 29.3538 77.5656 28.7273L75.4754 25.3169ZM75.1125 26.7501C76.1242 26.7501 77.0865 26.4624 77.9208 25.8556L75.5682 22.6206C75.4639 22.6965 75.3381 22.7501 75.1125 22.7501V26.7501ZM77.9208 25.8556C78.653 25.3231 79.2289 24.6381 79.6574 23.8423L76.1356 21.9459C75.9667 22.2594 75.7747 22.4705 75.5682 22.6206L77.9208 25.8556ZM79.6289 23.8936C80.0496 23.1643 80.3554 22.3827 80.5482 21.5566L76.6528 20.6477C76.5469 21.1015 76.3834 21.5146 76.1641 21.8947L79.6289 23.8936ZM80.533 21.6174C80.7453 20.8211 80.8565 20.0186 80.8565 19.2141H76.8565C76.8565 19.647 76.797 20.1031 76.668 20.5868L80.533 21.6174ZM80.8565 19.2141V18.8621H76.8565V19.2141H80.8565ZM80.8565 18.8621C80.8565 18.2565 80.7846 17.6387 80.6545 17.0142L76.7385 17.83C76.8218 18.2295 76.8565 18.5717 76.8565 18.8621H80.8565ZM80.6693 17.0933C80.5608 16.4425 80.3848 15.8072 80.143 15.1893L76.418 16.6469C76.5602 17.0104 76.6615 17.3778 76.7237 17.7509L80.6693 17.0933ZM80.1532 15.2159C79.9019 14.5459 79.5717 13.9217 79.1546 13.3557L75.9344 15.7285C76.1147 15.9732 76.2751 16.2663 76.4078 16.6204L80.1532 15.2159ZM79.2214 13.4521C78.7878 12.785 78.2232 12.2249 77.5226 11.8193L75.5184 15.281C75.6285 15.3447 75.7466 15.4459 75.8676 15.6321L79.2214 13.4521ZM77.6299 11.886C76.8819 11.3874 76.0385 11.1661 75.1765 11.1661V15.1661C75.3385 15.1661 75.3911 15.2009 75.4111 15.2142L77.6299 11.886ZM75.1765 11.1661C73.9839 11.1661 72.9068 11.5949 72.0331 12.3958L74.7359 15.3444C74.8862 15.2067 75.0038 15.1661 75.1765 15.1661V11.1661ZM72.036 12.3931C71.2056 13.1513 70.6709 14.162 70.326 15.2496L74.139 16.4586C74.3488 15.7969 74.5821 15.4849 74.733 15.3471L72.036 12.3931ZM70.326 15.2496C69.9694 16.3745 69.8165 17.6462 69.8165 19.0221H73.8165C73.8165 17.9233 73.9409 17.0831 74.139 16.4586L70.326 15.2496ZM69.8165 19.0221C69.8165 20.3166 69.9597 21.5261 70.281 22.6239L74.12 21.5003C73.9293 20.8488 73.8165 20.0316 73.8165 19.0221H69.8165ZM70.2848 22.6368C70.6102 23.7212 71.1311 24.7196 71.9381 25.4914L74.7029 22.6008C74.5285 22.434 74.3028 22.1097 74.1161 21.4874L70.2848 22.6368ZM71.9381 25.4914C72.8158 26.331 73.9145 26.7501 75.1125 26.7501V22.7501C74.9025 22.7501 74.8065 22.6999 74.7029 22.6008L71.9381 25.4914ZM86.98 31.7581L86.5767 33.7171L86.5878 33.7193L86.98 31.7581ZM84.932 31.0221L83.9658 32.7733L83.9783 32.7801L83.9908 32.7868L84.932 31.0221ZM83.3 29.7421L81.4847 28.9028L80.9257 30.1117L81.8257 31.0936L83.3 29.7421ZM84.676 26.7661L86.2815 25.5735L84.2737 22.8707L82.8607 25.9268L84.676 26.7661ZM86.692 28.3341L87.4434 26.4806L87.4217 26.4718L87.3998 26.4635L86.692 28.3341ZM93.316 25.8061L91.4186 25.1737L91.4143 25.1867L91.4101 25.1997L93.316 25.8061ZM93.828 22.5101L91.8324 22.3771L91.8291 22.4263L91.8283 22.4756L93.828 22.5101ZM94.052 19.1501L96.0476 19.2831L96.1898 17.1501H94.052V19.1501ZM93.732 19.1501V17.1501H91.8593L91.7363 19.0188L93.732 19.1501ZM91.076 25.1981L92.09 26.922L92.1086 26.911L92.127 26.8997L91.076 25.1981ZM85.86 24.9421L84.566 26.4671L84.5772 26.4766L84.5886 26.486L85.86 24.9421ZM84.26 22.3501L82.3424 22.9183L82.3487 22.9397L82.3556 22.961L84.26 22.3501ZM83.748 10.5421V8.54211H81.748V10.5421H83.748ZM87.204 10.5421H89.204V8.54211H87.204V10.5421ZM92.42 21.0061L90.657 20.0617L90.6507 20.0735L90.6445 20.0855L92.42 21.0061ZM93.348 10.5421V8.54211H91.348V10.5421H93.348ZM96.804 10.5421H98.804V8.54211H96.804V10.5421ZM96.612 24.9101L94.6331 24.6205L94.63 24.6412L94.6274 24.662L96.612 24.9101ZM95.972 27.4381L94.1053 26.7202L94.0972 26.7412L94.0896 26.7624L95.972 27.4381ZM94.66 29.7101L93.1314 28.4204L93.1098 28.446L93.089 28.4724L94.66 29.7101ZM89.188 29.9821C88.6007 29.9821 87.9962 29.9217 87.3722 29.7969L86.5878 33.7193C87.4572 33.8932 88.3246 33.9821 89.188 33.9821V29.9821ZM87.3833 29.7992C86.8417 29.6877 86.3406 29.5067 85.8732 29.2574L83.9908 32.7868C84.8034 33.2202 85.6677 33.53 86.5767 33.7171L87.3833 29.7992ZM85.8982 29.271C85.4661 29.0326 85.0945 28.74 84.7743 28.3907L81.8257 31.0936C82.4442 31.7683 83.1606 32.329 83.9658 32.7733L85.8982 29.271ZM85.1153 30.5815L86.4913 27.6055L82.8607 25.9268L81.4847 28.9028L85.1153 30.5815ZM83.0705 27.9588C83.8292 28.9801 84.8008 29.7569 85.9842 30.2047L87.3998 26.4635C87.0045 26.314 86.6321 26.0455 86.2815 25.5735L83.0705 27.9588ZM85.9406 30.1876C86.9496 30.5966 87.9933 30.8141 89.06 30.8141V26.8141C88.548 26.8141 88.0131 26.7116 87.4434 26.4806L85.9406 30.1876ZM89.06 30.8141C90.5226 30.8141 91.9346 30.4813 93.0753 29.5902L90.6127 26.4381C90.3881 26.6136 89.9441 26.8141 89.06 26.8141V30.8141ZM93.0753 29.5902C94.1175 28.7759 94.8184 27.6805 95.2219 26.4125L91.4101 25.1997C91.2163 25.809 90.9358 26.1856 90.6127 26.4381L93.0753 29.5902ZM95.2134 26.4386C95.6102 25.2482 95.8036 23.9417 95.8277 22.5446L91.8283 22.4756C91.8097 23.5532 91.6618 24.444 91.4186 25.1737L95.2134 26.4386ZM95.8236 22.6431L96.0476 19.2831L92.0564 19.0171L91.8324 22.3771L95.8236 22.6431ZM94.052 17.1501H93.732V21.1501H94.052V17.1501ZM91.7363 19.0188C91.6389 20.4998 91.3831 21.5234 91.0637 22.1912L94.6723 23.917C95.2916 22.6221 95.6118 21.0431 95.7277 19.2814L91.7363 19.0188ZM91.0637 22.1912C90.7146 22.9212 90.345 23.2989 90.025 23.4965L92.127 26.8997C93.2577 26.2013 94.0827 25.1497 94.6723 23.917L91.0637 22.1912ZM90.062 23.4742C89.6713 23.704 89.2059 23.8381 88.612 23.8381V27.8381C89.8528 27.8381 91.03 27.5455 92.09 26.922L90.062 23.4742ZM88.612 23.8381C87.8789 23.8381 87.4364 23.6494 87.1314 23.3983L84.5886 26.486C85.7343 27.4295 87.1264 27.8381 88.612 27.8381V23.8381ZM87.154 23.4171C86.8057 23.1216 86.4452 22.6145 86.1644 21.7393L82.3556 22.961C82.8002 24.3471 83.5063 25.5679 84.566 26.4671L87.154 23.4171ZM86.1776 21.7819C85.9056 20.8639 85.748 19.6893 85.748 18.2221H81.748C81.748 19.955 81.9318 21.5323 82.3424 22.9183L86.1776 21.7819ZM85.748 18.2221V10.5421H81.748V18.2221H85.748ZM83.748 12.5421H87.204V8.54211H83.748V12.5421ZM85.204 10.5421V17.5501H89.204V10.5421H85.204ZM85.204 17.5501C85.204 19.409 85.4161 21.1024 86.0551 22.3805L89.6329 20.5917C89.4186 20.1631 89.204 19.2326 89.204 17.5501H85.204ZM86.0551 22.3805C86.3985 23.0672 86.8975 23.691 87.596 24.1345C88.299 24.5809 89.0808 24.7661 89.86 24.7661V20.7661C89.786 20.7661 89.748 20.7576 89.7366 20.7545C89.727 20.7519 89.7312 20.7521 89.74 20.7577C89.7665 20.7745 89.7162 20.7583 89.6329 20.5917L86.0551 22.3805ZM89.86 24.7661C90.7968 24.7661 91.6937 24.5062 92.4789 23.9566L90.1851 20.6796C90.1169 20.7273 90.0325 20.7661 89.86 20.7661V24.7661ZM92.4789 23.9566C93.2271 23.4328 93.7841 22.7201 94.1955 21.9267L90.6445 20.0855C90.4585 20.4441 90.2902 20.606 90.1851 20.6796L92.4789 23.9566ZM94.183 21.9506C94.627 21.1218 94.9177 20.1824 95.0941 19.1749L91.1539 18.4853C91.0316 19.1844 90.853 19.6958 90.657 20.0617L94.183 21.9506ZM95.0941 19.1749C95.2679 18.1813 95.348 17.0807 95.348 15.8861H91.348C91.348 16.9102 91.2787 17.7723 91.1539 18.4853L95.0941 19.1749ZM95.348 15.8861V10.5421H91.348V15.8861H95.348ZM93.348 12.5421H96.804V8.54211H93.348V12.5421ZM94.804 10.5421V22.5101H98.804V10.5421H94.804ZM94.804 22.5101C94.804 23.1203 94.75 23.8218 94.6331 24.6205L98.5909 25.1997C98.73 24.2491 98.804 23.3506 98.804 22.5101H94.804ZM94.6274 24.662C94.5416 25.3488 94.3693 26.0339 94.1053 26.7202L97.8387 28.1561C98.2147 27.1783 98.4691 26.1781 98.5966 25.1582L94.6274 24.662ZM94.0896 26.7624C93.8722 27.3679 93.5555 27.9177 93.1314 28.4204L96.1886 30.9999C96.9165 30.1371 97.4744 29.1723 97.8544 28.1138L94.0896 26.7624ZM93.089 28.4724C92.7516 28.9007 92.2925 29.2656 91.6597 29.5519L93.3083 33.1963C94.4675 32.6719 95.4591 31.9275 96.231 30.9479L93.089 28.4724ZM91.6597 29.5519C91.0921 29.8087 90.2926 29.9821 89.188 29.9821V33.9821C90.6861 33.9821 92.0839 33.7502 93.3083 33.1963L91.6597 29.5519ZM98.4525 27.2141H96.4525V29.2141H98.4525V27.2141ZM98.4525 6.09411V4.09411H96.4525V6.09411H98.4525ZM110.74 7.50211L109.532 9.09549L109.562 9.11862L109.594 9.14057L110.74 7.50211ZM112.148 13.8061L113.937 14.7005L113.943 14.6896L113.948 14.6787L112.148 13.8061ZM110.549 15.4701L109.534 13.7462L109.523 13.7529L109.512 13.7597L110.549 15.4701ZM107.764 16.2381L107.617 14.2436L105.764 14.3808V16.2381H107.764ZM107.764 16.5261H105.764V18.4169L107.652 18.523L107.764 16.5261ZM112.021 18.0301L110.64 19.4768L110.656 19.4929L110.674 19.5085L112.021 18.0301ZM112.596 24.6861L110.952 23.5477L110.942 23.5621L110.932 23.5767L112.596 24.6861ZM110.132 26.5741L109.402 24.7121L109.39 24.7172L110.132 26.5741ZM101.909 24.3341H99.9085V26.3341H101.909V24.3341ZM108.949 23.5661L107.748 21.9661L107.736 21.9753L107.724 21.9847L108.949 23.5661ZM108.724 18.6061L107.566 20.2365L107.576 20.2435L107.586 20.2505L108.724 18.6061ZM101.909 17.7421V15.7421H99.9085V17.7421H101.909ZM101.909 15.1821H99.9085V17.1821H101.909V15.1821ZM108.148 14.3821L106.917 12.8061L106.905 12.8156L106.893 12.8253L108.148 14.3821ZM108.18 9.74211L106.956 11.3236L106.972 11.3361L106.989 11.3483L108.18 9.74211ZM101.909 8.97411V6.97411H99.9085V8.97411H101.909ZM100.452 27.2141V6.09411H96.4525V27.2141H100.452ZM98.4525 8.09411H105.364V4.09411H98.4525V8.09411ZM105.364 8.09411C106.41 8.09411 107.268 8.19923 107.962 8.38085L108.975 4.51137C107.877 4.22366 106.666 4.09411 105.364 4.09411V8.09411ZM107.962 8.38085C108.652 8.56153 109.159 8.81243 109.532 9.09549L111.949 5.90873C111.085 5.25312 110.077 4.80002 108.975 4.51137L107.962 8.38085ZM109.594 9.14057C109.972 9.40559 110.218 9.70278 110.38 10.0372L113.981 8.29499C113.503 7.30677 112.789 6.49463 111.887 5.86365L109.594 9.14057ZM110.38 10.0372C110.546 10.38 110.66 10.8403 110.66 11.4701H114.66C114.66 10.3506 114.455 9.27487 113.981 8.29499L110.38 10.0372ZM110.66 11.4701C110.66 12.049 110.547 12.5255 110.349 12.9336L113.948 14.6787C114.433 13.6787 114.66 12.5979 114.66 11.4701H110.66ZM110.36 12.9117C110.209 13.2138 109.962 13.4946 109.534 13.7462L111.563 17.194C112.585 16.5923 113.406 15.7637 113.937 14.7005L110.36 12.9117ZM109.512 13.7597C109.164 13.9705 108.573 14.1727 107.617 14.2436L107.912 18.2326C109.26 18.1328 110.525 17.823 111.585 17.1805L109.512 13.7597ZM105.764 16.2381V16.5261H109.764V16.2381H105.764ZM107.652 18.523C109.292 18.6151 110.174 19.0326 110.64 19.4768L113.401 16.5834C111.99 15.2357 110.035 14.6505 107.877 14.5293L107.652 18.523ZM110.674 19.5085C111.141 19.9347 111.46 20.5606 111.46 21.6461H115.46C115.46 19.6596 114.82 17.8749 113.367 16.5517L110.674 19.5085ZM111.46 21.6461C111.46 22.5092 111.257 23.1071 110.952 23.5477L114.241 25.8245C115.088 24.6011 115.46 23.1723 115.46 21.6461H111.46ZM110.932 23.5767C110.641 24.0136 110.175 24.4089 109.402 24.7121L110.863 28.4361C112.266 27.8859 113.443 27.0226 114.261 25.7955L110.932 23.5767ZM109.39 24.7172C108.635 25.019 107.564 25.2141 106.1 25.2141V29.2141C107.88 29.2141 109.497 28.9825 110.875 28.4311L109.39 24.7172ZM106.1 25.2141H98.4525V29.2141H106.1V25.2141ZM101.909 26.3341H105.94V22.3341H101.909V26.3341ZM105.94 26.3341C107.478 26.3341 109.005 26.0519 110.173 25.1476L107.724 21.9847C107.57 22.1044 107.091 22.3341 105.94 22.3341V26.3341ZM110.148 25.1661C111.449 24.1906 111.972 22.7468 111.972 21.2301H107.972C107.972 21.8041 107.813 21.9176 107.748 21.9661L110.148 25.1661ZM111.972 21.2301C111.972 19.5212 111.327 17.9751 109.863 16.9617L107.586 20.2505C107.786 20.3891 107.972 20.5924 107.972 21.2301H111.972ZM109.883 16.9757C108.577 16.0481 106.857 15.7421 105.044 15.7421V19.7421C106.518 19.7421 107.25 20.0121 107.566 20.2365L109.883 16.9757ZM105.044 15.7421H101.909V19.7421H105.044V15.7421ZM99.9085 17.7421V24.3341H103.909V17.7421H99.9085ZM101.909 17.1821H105.108V13.1821H101.909V17.1821ZM105.108 17.1821C106.672 17.1821 108.228 16.8876 109.404 15.9389L106.893 12.8253C106.747 12.9433 106.276 13.1821 105.108 13.1821V17.1821ZM109.38 15.9582C110.649 14.9663 111.173 13.5334 111.173 12.0141H107.173C107.173 12.5855 107.013 12.7312 106.917 12.8061L109.38 15.9582ZM111.173 12.0141C111.173 10.5286 110.666 9.0956 109.372 8.13591L106.989 11.3483C107.018 11.37 107.173 11.4516 107.173 12.0141H111.173ZM109.405 8.16067C108.228 7.24983 106.671 6.97411 105.108 6.97411V10.9741C106.319 10.9741 106.81 11.2104 106.956 11.3236L109.405 8.16067ZM105.108 6.97411H101.909V10.9741H105.108V6.97411ZM99.9085 8.97411V15.1821H103.909V8.97411H99.9085ZM115.575 25.7101L113.865 26.7473L113.875 26.7639L113.886 26.7802L115.575 25.7101ZM114.391 10.5421V8.54211H112.391V10.5421H114.391ZM117.847 10.5421H119.847V8.54211H117.847V10.5421ZM118.455 23.3421L116.686 24.2756L116.697 24.2946L116.707 24.3134L118.455 23.3421ZM122.039 24.0141L123.202 25.6416L123.209 25.6366L123.216 25.6316L122.039 24.0141ZM123.927 20.0141L121.956 19.6785L121.952 19.699L121.949 19.7195L123.927 20.0141ZM124.183 10.5421V8.54211H122.183V10.5421H124.183ZM127.639 10.5421H129.639V8.54211H127.639V10.5421ZM127.639 18.8621H125.639V18.8698L127.639 18.8621ZM127.671 27.2141V29.2141H129.679L129.671 27.2064L127.671 27.2141ZM124.567 27.2141L122.569 27.1199L122.471 29.2141H124.567V27.2141ZM124.887 20.4301L126.885 20.5243L126.984 18.4301H124.887V20.4301ZM124.631 20.4301V18.4301H122.797L122.639 20.2579L124.631 20.4301ZM123.735 24.6221L121.891 23.8476L121.887 23.857L121.884 23.8663L123.735 24.6221ZM122.007 26.9261L123.094 28.6053L123.111 28.5941L123.128 28.5827L122.007 26.9261ZM119.383 25.6301C118.227 25.6301 117.652 25.2512 117.265 24.64L113.886 26.7802C115.12 28.729 117.083 29.6301 119.383 29.6301V25.6301ZM117.285 24.6729C116.781 23.8418 116.391 22.2917 116.391 19.7261H112.391C112.391 22.5366 112.791 24.9758 113.865 26.7473L117.285 24.6729ZM116.391 19.7261V10.5421H112.391V19.7261H116.391ZM114.391 12.5421H117.847V8.54211H114.391V12.5421ZM115.847 10.5421V19.5341H119.847V10.5421H115.847ZM115.847 19.5341C115.847 21.3587 116.04 23.0499 116.686 24.2756L120.224 22.4086C120.06 22.0984 119.847 21.2508 119.847 19.5341H115.847ZM116.707 24.3134C117.073 24.9726 117.593 25.5459 118.287 25.9426C118.977 26.3368 119.729 26.4941 120.471 26.4941V22.4941C120.296 22.4941 120.254 22.4594 120.272 22.4696C120.276 22.4724 120.276 22.4737 120.269 22.4658C120.26 22.4568 120.236 22.4295 120.204 22.3708L116.707 24.3134ZM120.471 26.4941C121.448 26.4941 122.385 26.2247 123.202 25.6416L120.877 22.3866C120.797 22.4435 120.689 22.4941 120.471 22.4941V26.4941ZM123.216 25.6316C124.013 25.0518 124.597 24.2618 125.024 23.3812L121.423 21.639C121.209 22.081 121.004 22.2937 120.863 22.3966L123.216 25.6316ZM125.024 23.3812C125.458 22.4834 125.737 21.4413 125.905 20.3087L121.949 19.7195C121.819 20.5922 121.629 21.2141 121.423 21.639L125.024 23.3812ZM125.899 20.3497C126.094 19.2045 126.183 17.8918 126.183 16.4301H122.183C122.183 17.7418 122.102 18.8184 121.956 19.6785L125.899 20.3497ZM126.183 16.4301V10.5421H122.183V16.4301H126.183ZM124.183 12.5421H127.639V8.54211H124.183V12.5421ZM125.639 10.5421V18.8621H129.639V10.5421H125.639ZM125.639 18.8698L125.671 27.2218L129.671 27.2064L129.639 18.8544L125.639 18.8698ZM127.671 25.2141H124.567V29.2141H127.671V25.2141ZM126.565 27.3083L126.885 20.5243L122.889 20.3359L122.569 27.1199L126.565 27.3083ZM124.887 18.4301H124.631V22.4301H124.887V18.4301ZM122.639 20.2579C122.499 21.8713 122.229 23.043 121.891 23.8476L125.579 25.3966C126.137 24.0679 126.465 22.4449 126.624 20.6023L122.639 20.2579ZM121.884 23.8663C121.563 24.6507 121.202 25.0563 120.887 25.2695L123.128 28.5827C124.263 27.8146 125.054 26.6842 125.587 25.3779L121.884 23.8663ZM120.921 25.247C120.575 25.4707 120.094 25.6301 119.383 25.6301V29.6301C120.72 29.6301 121.989 29.3202 123.094 28.6053L120.921 25.247ZM131.712 26.7021L130.53 28.3162L130.553 28.3323L130.575 28.3479L131.712 26.7021ZM129.6 23.7901L127.738 24.5224L127.744 24.5355L127.749 24.5486L129.6 23.7901ZM129.567 14.0301L131.435 14.746L131.439 14.7357L129.567 14.0301ZM131.583 11.1181L132.784 12.7181L132.79 12.7134L131.583 11.1181ZM137.088 10.8301L135.954 12.4782L135.984 12.4983L136.014 12.5174L137.088 10.8301ZM138.784 12.9421L136.956 13.7544L136.967 13.7791L136.979 13.8036L138.784 12.9421ZM139.743 16.4941L137.761 16.7604L137.994 18.4941H139.743V16.4941ZM140.032 16.4941V18.4941H142.33L142.012 16.2177L140.032 16.4941ZM139.679 13.9661L137.691 14.1811L137.694 14.2112L137.699 14.2412L139.679 13.9661ZM139.488 11.8221L137.492 11.9509V11.9551L139.488 11.8221ZM139.424 5.32611V3.32611H137.424V5.32611H139.424ZM142.911 5.32611L144.911 5.33483L144.92 3.32611H142.911V5.32611ZM142.848 20.0141L140.848 20.0054L140.847 20.0186L140.848 20.0319L142.848 20.0141ZM142.911 27.2141V29.2141H144.929L144.911 27.1963L142.911 27.2141ZM139.775 27.2141L137.778 27.1201L137.679 29.2141H139.775V27.2141ZM140.032 21.7741L142.029 21.8681L142.128 19.7741H140.032V21.7741ZM139.743 21.7741V19.7741H138.062L137.773 21.4301L139.743 21.7741ZM138.432 22.8941L136.699 21.8947L136.684 21.9201L136.671 21.9459L138.432 22.8941ZM139.135 21.1021L137.203 20.5868L137.195 20.6171L137.188 20.6477L139.135 21.1021ZM139.231 17.4221L137.259 17.7509L137.265 17.7906L137.274 17.83L139.231 17.4221ZM138.815 15.9181L136.943 16.6204L136.948 16.6337L136.953 16.6469L138.815 15.9181ZM138.079 14.5421L136.403 15.6321L136.435 15.6813L136.469 15.7285L138.079 14.5421ZM137.055 13.5501L135.946 15.2142L135.999 15.2493L136.053 15.281L137.055 13.5501ZM133.92 13.8701L135.268 15.3471L135.271 15.3444L133.92 13.8701ZM132.735 22.0621L130.816 22.6239L130.82 22.6368L132.735 22.0621ZM134.719 25.6301C134.008 25.6301 133.403 25.4397 132.848 25.0563L130.575 28.3479C131.812 29.2018 133.212 29.6301 134.719 29.6301V25.6301ZM132.893 25.0881C132.392 24.7219 131.884 24.0912 131.45 23.0317L127.749 24.5486C128.381 26.0917 129.282 27.4023 130.53 28.3162L132.893 25.0881ZM131.461 23.0579C131.071 22.0675 130.831 20.6847 130.831 18.8301H126.831C126.831 20.9862 127.104 22.91 127.738 24.5224L131.461 23.0579ZM130.831 18.8301C130.831 17.0641 131.059 15.7258 131.435 14.746L127.7 13.3142C127.094 14.8944 126.831 16.7561 126.831 18.8301H130.831ZM131.439 14.7357C131.835 13.684 132.314 13.0702 132.784 12.7181L130.383 9.51811C129.146 10.4461 128.281 11.7736 127.696 13.3245L131.439 14.7357ZM132.79 12.7134C133.306 12.3233 133.882 12.1261 134.591 12.1261V8.12611C133.04 8.12611 131.611 8.59021 130.377 9.52279L132.79 12.7134ZM134.591 12.1261C135.245 12.1261 135.663 12.2778 135.954 12.4782L138.221 9.18203C137.147 8.44374 135.901 8.12611 134.591 8.12611V12.1261ZM136.014 12.5174C136.309 12.7055 136.648 13.0609 136.956 13.7544L140.611 12.1298C140.066 10.9033 139.274 9.85069 138.161 9.14279L136.014 12.5174ZM136.979 13.8036C137.31 14.4973 137.587 15.4639 137.761 16.7604L141.726 16.2278C141.516 14.6657 141.153 13.2643 140.588 12.0807L136.979 13.8036ZM139.743 18.4941H140.032V14.4941H139.743V18.4941ZM142.012 16.2177C141.884 15.3007 141.767 14.4585 141.66 13.691L137.699 14.2412C137.805 15.0097 137.923 15.8528 138.051 16.7705L142.012 16.2177ZM141.668 13.7511C141.585 12.983 141.524 12.2962 141.483 11.6891L137.492 11.9551C137.537 12.628 137.603 13.3706 137.691 14.1811L141.668 13.7511ZM141.483 11.6933C141.443 11.0651 141.424 10.5117 141.424 10.0301H137.424C137.424 10.6152 137.447 11.2565 137.492 11.9509L141.483 11.6933ZM141.424 10.0301V5.32611H137.424V10.0301H141.424ZM139.424 7.32611H142.911V3.32611H139.424V7.32611ZM140.912 5.3174L140.848 20.0054L144.847 20.0228L144.911 5.33483L140.912 5.3174ZM140.848 20.0319L140.912 27.2319L144.911 27.1963L144.847 19.9963L140.848 20.0319ZM142.911 25.2141H139.775V29.2141H142.911V25.2141ZM141.773 27.3081L142.029 21.8681L138.034 21.6801L137.778 27.1201L141.773 27.3081ZM140.032 19.7741H139.743V23.7741H140.032V19.7741ZM137.773 21.4301C137.561 22.6471 137.268 23.5486 136.939 24.1904L140.5 26.0139C141.067 24.9063 141.457 23.5891 141.714 22.1181L137.773 21.4301ZM136.939 24.1904C136.615 24.8243 136.285 25.1486 136.01 25.3169L138.101 28.7273C139.149 28.085 139.928 27.1292 140.5 26.0139L136.939 24.1904ZM136.01 25.3169C135.71 25.5011 135.305 25.6301 134.719 25.6301V29.6301C135.926 29.6301 137.079 29.3538 138.101 28.7273L136.01 25.3169ZM135.647 26.7501C136.659 26.7501 137.621 26.4624 138.456 25.8556L136.103 22.6206C135.999 22.6965 135.873 22.7501 135.647 22.7501V26.7501ZM138.456 25.8556C139.188 25.3231 139.764 24.6381 140.192 23.8423L136.671 21.9459C136.502 22.2594 136.31 22.4705 136.103 22.6206L138.456 25.8556ZM140.164 23.8936C140.585 23.1643 140.89 22.3827 141.083 21.5566L137.188 20.6477C137.082 21.1015 136.918 21.5146 136.699 21.8947L140.164 23.8936ZM141.068 21.6174C141.28 20.8211 141.392 20.0186 141.392 19.2141H137.392C137.392 19.647 137.332 20.1031 137.203 20.5868L141.068 21.6174ZM141.392 19.2141V18.8621H137.392V19.2141H141.392ZM141.392 18.8621C141.392 18.2565 141.32 17.6387 141.189 17.0142L137.274 17.83C137.357 18.2295 137.392 18.5717 137.392 18.8621H141.392ZM141.204 17.0933C141.096 16.4425 140.92 15.8072 140.678 15.1893L136.953 16.6469C137.095 17.0104 137.197 17.3778 137.259 17.7509L141.204 17.0933ZM140.688 15.2159C140.437 14.5459 140.107 13.9217 139.69 13.3557L136.469 15.7285C136.65 15.9732 136.81 16.2663 136.943 16.6204L140.688 15.2159ZM139.756 13.4521C139.323 12.785 138.758 12.2249 138.058 11.8193L136.053 15.281C136.164 15.3447 136.282 15.4459 136.403 15.6321L139.756 13.4521ZM138.165 11.886C137.417 11.3874 136.573 11.1661 135.712 11.1661V15.1661C135.874 15.1661 135.926 15.2009 135.946 15.2142L138.165 11.886ZM135.712 11.1661C134.519 11.1661 133.442 11.5949 132.568 12.3958L135.271 15.3444C135.421 15.2067 135.539 15.1661 135.712 15.1661V11.1661ZM132.571 12.3931C131.741 13.1513 131.206 14.162 130.861 15.2496L134.674 16.4586C134.884 15.7969 135.117 15.4849 135.268 15.3471L132.571 12.3931ZM130.861 15.2496C130.504 16.3745 130.352 17.6462 130.352 19.0221H134.352C134.352 17.9233 134.476 17.0831 134.674 16.4586L130.861 15.2496ZM130.352 19.0221C130.352 20.3166 130.495 21.5261 130.816 22.6239L134.655 21.5003C134.464 20.8488 134.352 20.0316 134.352 19.0221H130.352ZM130.82 22.6368C131.145 23.7212 131.666 24.7196 132.473 25.4914L135.238 22.6008C135.064 22.434 134.838 22.1097 134.651 21.4874L130.82 22.6368ZM132.473 25.4914C133.351 26.331 134.449 26.7501 135.647 26.7501V22.7501C135.438 22.7501 135.341 22.6999 135.238 22.6008L132.473 25.4914ZM146.908 26.7021L145.727 28.3162L145.749 28.3323L145.771 28.3479L146.908 26.7021ZM144.796 23.7901L142.935 24.5224L142.94 24.5355L142.945 24.5486L144.796 23.7901ZM144.764 14.0301L146.631 14.746L146.635 14.7357L144.764 14.0301ZM146.78 11.1181L147.98 12.7181L147.986 12.7134L146.78 11.1181ZM152.284 10.8301L151.151 12.4782L151.18 12.4983L151.21 12.5174L152.284 10.8301ZM153.98 12.9421L152.152 13.7544L152.163 13.7791L152.175 13.8036L153.98 12.9421ZM154.94 16.4941L152.958 16.7604L153.19 18.4941H154.94V16.4941ZM155.228 16.4941V18.4941H157.526L157.209 16.2177L155.228 16.4941ZM154.876 13.9661L152.887 14.1811L152.891 14.2112L152.895 14.2412L154.876 13.9661ZM154.684 11.8221L152.688 11.9509V11.9551L154.684 11.8221ZM154.62 5.32611V3.32611H152.62V5.32611H154.62ZM158.108 5.32611L160.108 5.33483L160.116 3.32611H158.108V5.32611ZM158.044 20.0141L156.044 20.0054V20.0186V20.0319L158.044 20.0141ZM158.108 27.2141V29.2141H160.126L160.108 27.1963L158.108 27.2141ZM154.972 27.2141L152.974 27.1201L152.875 29.2141H154.972V27.2141ZM155.228 21.7741L157.226 21.8681L157.324 19.7741H155.228V21.7741ZM154.94 21.7741V19.7741H153.259L152.97 21.4301L154.94 21.7741ZM153.628 22.8941L151.895 21.8947L151.881 21.9201L151.867 21.9459L153.628 22.8941ZM154.332 21.1021L152.399 20.5868L152.391 20.6171L152.384 20.6477L154.332 21.1021ZM154.428 17.4221L152.455 17.7509L152.462 17.7906L152.47 17.83L154.428 17.4221ZM154.012 15.9181L152.139 16.6204L152.144 16.6337L152.149 16.6469L154.012 15.9181ZM153.276 14.5421L151.599 15.6321L151.631 15.6813L151.666 15.7285L153.276 14.5421ZM152.252 13.5501L151.142 15.2142L151.195 15.2493L151.25 15.281L152.252 13.5501ZM149.116 13.8701L150.464 15.3471L150.467 15.3444L149.116 13.8701ZM147.932 22.0621L146.012 22.6239L146.016 22.6368L147.932 22.0621ZM149.916 25.6301C149.204 25.6301 148.599 25.4397 148.044 25.0563L145.771 28.3479C147.008 29.2018 148.409 29.6301 149.916 29.6301V25.6301ZM148.089 25.0881C147.588 24.7219 147.081 24.0912 146.646 23.0317L142.945 24.5486C143.578 26.0917 144.478 27.4023 145.727 28.3162L148.089 25.0881ZM146.657 23.0579C146.267 22.0675 146.028 20.6847 146.028 18.8301H142.028C142.028 20.9862 142.3 22.91 142.935 24.5224L146.657 23.0579ZM146.028 18.8301C146.028 17.0641 146.256 15.7258 146.631 14.746L142.896 13.3142C142.291 14.8944 142.028 16.7561 142.028 18.8301H146.028ZM146.635 14.7357C147.032 13.684 147.51 13.0702 147.98 12.7181L145.58 9.51811C144.342 10.4461 143.477 11.7736 142.892 13.3245L146.635 14.7357ZM147.986 12.7134C148.502 12.3233 149.078 12.1261 149.788 12.1261V8.12611C148.236 8.12611 146.807 8.59021 145.574 9.52279L147.986 12.7134ZM149.788 12.1261C150.441 12.1261 150.859 12.2778 151.151 12.4782L153.417 9.18203C152.343 8.44374 151.097 8.12611 149.788 8.12611V12.1261ZM151.21 12.5174C151.506 12.7055 151.844 13.0609 152.152 13.7544L155.807 12.1298C155.262 10.9033 154.47 9.85069 153.357 9.14279L151.21 12.5174ZM152.175 13.8036C152.506 14.4973 152.783 15.4639 152.958 16.7604L156.922 16.2278C156.712 14.6657 156.35 13.2643 155.785 12.0807L152.175 13.8036ZM154.94 18.4941H155.228V14.4941H154.94V18.4941ZM157.209 16.2177C157.081 15.3007 156.963 14.4585 156.857 13.691L152.895 14.2412C153.002 15.0097 153.119 15.8528 153.247 16.7705L157.209 16.2177ZM156.864 13.7511C156.781 12.983 156.72 12.2962 156.679 11.6891L152.688 11.9551C152.733 12.628 152.8 13.3706 152.887 14.1811L156.864 13.7511ZM156.68 11.6933C156.639 11.0651 156.62 10.5117 156.62 10.0301H152.62C152.62 10.6152 152.643 11.2565 152.688 11.9509L156.68 11.6933ZM156.62 10.0301V5.32611H152.62V10.0301H156.62ZM154.62 7.32611H158.108V3.32611H154.62V7.32611ZM156.108 5.3174L156.044 20.0054L160.044 20.0228L160.108 5.33483L156.108 5.3174ZM156.044 20.0319L156.108 27.2319L160.108 27.1963L160.044 19.9963L156.044 20.0319ZM158.108 25.2141H154.972V29.2141H158.108V25.2141ZM156.97 27.3081L157.226 21.8681L153.23 21.6801L152.974 27.1201L156.97 27.3081ZM155.228 19.7741H154.94V23.7741H155.228V19.7741ZM152.97 21.4301C152.757 22.6471 152.464 23.5486 152.136 24.1904L155.696 26.0139C156.263 24.9063 156.653 23.5891 156.91 22.1181L152.97 21.4301ZM152.136 24.1904C151.811 24.8243 151.481 25.1486 151.207 25.3169L153.297 28.7273C154.345 28.085 155.125 27.1292 155.696 26.0139L152.136 24.1904ZM151.207 25.3169C150.906 25.5011 150.501 25.6301 149.916 25.6301V29.6301C151.122 29.6301 152.275 29.3538 153.297 28.7273L151.207 25.3169ZM150.844 26.7501C151.855 26.7501 152.818 26.4624 153.652 25.8556L151.299 22.6206C151.195 22.6965 151.069 22.7501 150.844 22.7501V26.7501ZM153.652 25.8556C154.384 25.3231 154.96 24.6381 155.389 23.8423L151.867 21.9459C151.698 22.2594 151.506 22.4705 151.299 22.6206L153.652 25.8556ZM155.36 23.8936C155.781 23.1643 156.087 22.3827 156.279 21.5566L152.384 20.6477C152.278 21.1015 152.115 21.5146 151.895 21.8947L155.36 23.8936ZM156.264 21.6174C156.477 20.8211 156.588 20.0186 156.588 19.2141H152.588C152.588 19.647 152.528 20.1031 152.399 20.5868L156.264 21.6174ZM156.588 19.2141V18.8621H152.588V19.2141H156.588ZM156.588 18.8621C156.588 18.2565 156.516 17.6387 156.386 17.0142L152.47 17.83C152.553 18.2295 152.588 18.5717 152.588 18.8621H156.588ZM156.401 17.0933C156.292 16.4425 156.116 15.8072 155.874 15.1893L152.149 16.6469C152.291 17.0104 152.393 17.3778 152.455 17.7509L156.401 17.0933ZM155.884 15.2159C155.633 14.5459 155.303 13.9217 154.886 13.3557L151.666 15.7285C151.846 15.9732 152.006 16.2663 152.139 16.6204L155.884 15.2159ZM154.953 13.4521C154.519 12.785 153.954 12.2249 153.254 11.8193L151.25 15.281C151.36 15.3447 151.478 15.4459 151.599 15.6321L154.953 13.4521ZM153.361 11.886C152.613 11.3874 151.77 11.1661 150.908 11.1661V15.1661C151.07 15.1661 151.122 15.2009 151.142 15.2142L153.361 11.886ZM150.908 11.1661C149.715 11.1661 148.638 11.5949 147.764 12.3958L150.467 15.3444C150.617 15.2067 150.735 15.1661 150.908 15.1661V11.1661ZM147.767 12.3931C146.937 13.1513 146.402 14.162 146.057 15.2496L149.87 16.4586C150.08 15.7969 150.313 15.4849 150.464 15.3471L147.767 12.3931ZM146.057 15.2496C145.701 16.3745 145.548 17.6462 145.548 19.0221H149.548C149.548 17.9233 149.672 17.0831 149.87 16.4586L146.057 15.2496ZM145.548 19.0221C145.548 20.3166 145.691 21.5261 146.012 22.6239L149.851 21.5003C149.661 20.8488 149.548 20.0316 149.548 19.0221H145.548ZM146.016 22.6368C146.341 23.7212 146.862 24.7196 147.669 25.4914L150.434 22.6008C150.26 22.434 150.034 22.1097 149.847 21.4874L146.016 22.6368ZM147.669 25.4914C148.547 26.331 149.646 26.7501 150.844 26.7501V22.7501C150.634 22.7501 150.538 22.6999 150.434 22.6008L147.669 25.4914ZM162.711 31.7581L162.308 33.7171L162.319 33.7193L162.711 31.7581ZM160.663 31.0221L159.697 32.7733L159.71 32.7801L159.722 32.7868L160.663 31.0221ZM159.031 29.7421L157.216 28.9028L156.657 30.1117L157.557 31.0936L159.031 29.7421ZM160.407 26.7661L162.013 25.5735L160.005 22.8707L158.592 25.9268L160.407 26.7661ZM162.423 28.3341L163.175 26.4806L163.153 26.4718L163.131 26.4635L162.423 28.3341ZM169.047 25.8061L167.15 25.1737L167.146 25.1867L167.141 25.1997L169.047 25.8061ZM169.559 22.5101L167.564 22.3771L167.56 22.4263V22.4756L169.559 22.5101ZM169.783 19.1501L171.779 19.2831L171.921 17.1501H169.783V19.1501ZM169.463 19.1501V17.1501H167.59L167.468 19.0188L169.463 19.1501ZM166.807 25.1981L167.821 26.922L167.84 26.911L167.858 26.8997L166.807 25.1981ZM161.591 24.9421L160.297 26.4671L160.309 26.4766L160.32 26.486L161.591 24.9421ZM159.991 22.3501L158.074 22.9183L158.08 22.9397L158.087 22.961L159.991 22.3501ZM159.479 10.5421V8.54211H157.479V10.5421H159.479ZM162.935 10.5421H164.935V8.54211H162.935V10.5421ZM168.151 21.0061L166.388 20.0617L166.382 20.0735L166.376 20.0855L168.151 21.0061ZM169.079 10.5421V8.54211H167.079V10.5421H169.079ZM172.535 10.5421H174.535V8.54211H172.535V10.5421ZM172.343 24.9101L170.364 24.6205L170.361 24.6412L170.359 24.662L172.343 24.9101ZM171.703 27.4381L169.837 26.7202L169.828 26.7412L169.821 26.7624L171.703 27.4381ZM170.391 29.7101L168.863 28.4204L168.841 28.446L168.82 28.4724L170.391 29.7101ZM164.919 29.9821C164.332 29.9821 163.727 29.9217 163.103 29.7969L162.319 33.7193C163.188 33.8932 164.056 33.9821 164.919 33.9821V29.9821ZM163.115 29.7992C162.573 29.6877 162.072 29.5067 161.604 29.2574L159.722 32.7868C160.535 33.2202 161.399 33.53 162.308 33.7171L163.115 29.7992ZM161.629 29.271C161.197 29.0326 160.826 28.74 160.506 28.3907L157.557 31.0936C158.175 31.7683 158.892 32.329 159.697 32.7733L161.629 29.271ZM160.847 30.5815L162.223 27.6055L158.592 25.9268L157.216 28.9028L160.847 30.5815ZM158.802 27.9588C159.56 28.9801 160.532 29.7569 161.715 30.2047L163.131 26.4635C162.736 26.314 162.363 26.0455 162.013 25.5735L158.802 27.9588ZM161.672 30.1876C162.681 30.5966 163.725 30.8141 164.791 30.8141V26.8141C164.279 26.8141 163.744 26.7116 163.175 26.4806L161.672 30.1876ZM164.791 30.8141C166.254 30.8141 167.666 30.4813 168.807 29.5902L166.344 26.4381C166.119 26.6136 165.675 26.8141 164.791 26.8141V30.8141ZM168.807 29.5902C169.849 28.7759 170.55 27.6805 170.953 26.4125L167.141 25.1997C166.948 25.809 166.667 26.1856 166.344 26.4381L168.807 29.5902ZM170.945 26.4386C171.341 25.2482 171.535 23.9417 171.559 22.5446L167.56 22.4756C167.541 23.5532 167.393 24.444 167.15 25.1737L170.945 26.4386ZM171.555 22.6431L171.779 19.2831L167.788 19.0171L167.564 22.3771L171.555 22.6431ZM169.783 17.1501H169.463V21.1501H169.783V17.1501ZM167.468 19.0188C167.37 20.4998 167.114 21.5234 166.795 22.1912L170.404 23.917C171.023 22.6221 171.343 21.0431 171.459 19.2814L167.468 19.0188ZM166.795 22.1912C166.446 22.9212 166.076 23.2989 165.756 23.4965L167.858 26.8997C168.989 26.2013 169.814 25.1497 170.404 23.917L166.795 22.1912ZM165.793 23.4742C165.403 23.704 164.937 23.8381 164.343 23.8381V27.8381C165.584 27.8381 166.761 27.5455 167.821 26.922L165.793 23.4742ZM164.343 23.8381C163.61 23.8381 163.168 23.6494 162.863 23.3983L160.32 26.486C161.466 27.4295 162.858 27.8381 164.343 27.8381V23.8381ZM162.885 23.4171C162.537 23.1216 162.176 22.6145 161.896 21.7393L158.087 22.961C158.531 24.3471 159.238 25.5679 160.297 26.4671L162.885 23.4171ZM161.909 21.7819C161.637 20.8639 161.479 19.6893 161.479 18.2221H157.479C157.479 19.955 157.663 21.5323 158.074 22.9183L161.909 21.7819ZM161.479 18.2221V10.5421H157.479V18.2221H161.479ZM159.479 12.5421H162.935V8.54211H159.479V12.5421ZM160.935 10.5421V17.5501H164.935V10.5421H160.935ZM160.935 17.5501C160.935 19.409 161.147 21.1024 161.786 22.3805L165.364 20.5917C165.15 20.1631 164.935 19.2326 164.935 17.5501H160.935ZM161.786 22.3805C162.13 23.0672 162.629 23.691 163.327 24.1345C164.03 24.5809 164.812 24.7661 165.591 24.7661V20.7661C165.517 20.7661 165.479 20.7576 165.468 20.7545C165.458 20.7519 165.462 20.7521 165.471 20.7577C165.498 20.7745 165.447 20.7583 165.364 20.5917L161.786 22.3805ZM165.591 24.7661C166.528 24.7661 167.425 24.5062 168.21 23.9566L165.916 20.6796C165.848 20.7273 165.764 20.7661 165.591 20.7661V24.7661ZM168.21 23.9566C168.958 23.4328 169.515 22.7201 169.927 21.9267L166.376 20.0855C166.19 20.4441 166.021 20.606 165.916 20.6796L168.21 23.9566ZM169.914 21.9506C170.358 21.1218 170.649 20.1824 170.825 19.1749L166.885 18.4853C166.763 19.1844 166.584 19.6958 166.388 20.0617L169.914 21.9506ZM170.825 19.1749C170.999 18.1813 171.079 17.0807 171.079 15.8861H167.079C167.079 16.9102 167.01 17.7723 166.885 18.4853L170.825 19.1749ZM171.079 15.8861V10.5421H167.079V15.8861H171.079ZM169.079 12.5421H172.535V8.54211H169.079V12.5421ZM170.535 10.5421V22.5101H174.535V10.5421H170.535ZM170.535 22.5101C170.535 23.1203 170.481 23.8218 170.364 24.6205L174.322 25.1997C174.461 24.2491 174.535 23.3506 174.535 22.5101H170.535ZM170.359 24.662C170.273 25.3488 170.101 26.0339 169.837 26.7202L173.57 28.1561C173.946 27.1783 174.2 26.1781 174.328 25.1582L170.359 24.662ZM169.821 26.7624C169.604 27.3679 169.287 27.9177 168.863 28.4204L171.92 30.9999C172.648 30.1371 173.206 29.1723 173.586 28.1138L169.821 26.7624ZM168.82 28.4724C168.483 28.9007 168.024 29.2656 167.391 29.5519L169.04 33.1963C170.199 32.6719 171.19 31.9275 171.962 30.9479L168.82 28.4724ZM167.391 29.5519C166.823 29.8087 166.024 29.9821 164.919 29.9821V33.9821C166.417 33.9821 167.815 33.7502 169.04 33.1963L167.391 29.5519Z" fill="white"/>
</g>
<path d="M13.8087 24.8489L13.8138 24.8482L17.3942 24.3366C17.7868 24.2805 18.1939 24.1266 18.536 23.9546C18.8804 23.7815 19.2403 23.5491 19.5183 23.28L19.5301 23.2685L28.9034 13.8938C29.7696 13.0276 30.5612 11.9463 30.6903 10.6314C30.8245 9.26411 30.2215 7.92095 28.9034 6.60267C27.5854 5.28441 26.2423 4.68127 24.875 4.81551C23.5602 4.94459 22.479 5.73645 21.6129 6.60267L12.2396 15.9774C11.9629 16.2541 11.7273 16.6169 11.5536 16.9626C11.3803 17.3075 11.2272 17.7175 11.1715 18.1149L11.1712 18.1166L10.6607 21.6906L10.6604 21.6926C10.5264 22.6094 10.7768 23.49 11.3979 24.1087C12.0177 24.726 12.8975 24.9743 13.8087 24.8489Z" fill="white" stroke="white" stroke-width="2" stroke-miterlimit="10" stroke-linecap="round" stroke-linejoin="round"/>
<path d="M11.3273 21.5876L14.3995 20.2141L13.8958 23.5414L15.2693 26.6136L11.942 26.1099L8.8698 27.4834L9.37349 24.156L8 21.0839L11.3273 21.5876Z" stroke="#F56A56" stroke-linecap="round" stroke-linejoin="round"/>
<path d="M22.32 7.30972L12.9466 16.6844C12.5898 17.0413 12.2329 17.7433 12.1615 18.2548L11.65 21.8358C11.4597 23.1325 12.3756 24.0367 13.6722 23.8582L17.2527 23.3467C17.7522 23.2753 18.4541 22.9184 18.8228 22.5615L28.1962 13.1868C29.8139 11.5688 30.5752 9.68909 28.1962 7.30972C25.8172 4.93036 23.9377 5.69175 22.32 7.30972Z" fill="white" stroke="#F56A56" stroke-width="1.5" stroke-miterlimit="10" stroke-linecap="round" stroke-linejoin="round"/>
<path d="M21.9585 8.38086C22.6592 10.8805 24.615 12.8363 27.1251 13.5475" stroke="#F56A56" stroke-width="1.5" stroke-miterlimit="10" stroke-linecap="round" stroke-linejoin="round"/>
<path d="M17.0748 2.899L18.3213 1.00003L19.246 3.07481L21.145 4.32131L19.0702 5.24604L17.8237 7.14501L16.899 5.07023L15 3.82373L17.0748 2.899Z" stroke="#F56A56" stroke-linecap="round" stroke-linejoin="round"/>
<path d="M179.429 21.8723C179.668 21.7385 179.815 21.4847 179.813 21.2105C179.81 20.9362 179.658 20.6853 179.416 20.556L177.64 19.6068L176.658 17.8484C176.524 17.6089 176.271 17.4616 175.996 17.4641C175.722 17.4667 175.471 17.6187 175.342 17.8606L174.393 19.6369L172.634 20.619C172.395 20.7527 172.247 21.0065 172.25 21.2808C172.253 21.555 172.405 21.806 172.646 21.9353L174.423 22.8845L175.405 24.6428C175.539 24.8823 175.792 25.0297 176.067 25.0271C176.341 25.0246 176.592 24.8725 176.721 24.6306L177.67 22.8543L179.429 21.8723Z" fill="white" stroke="white" stroke-width="1.5" stroke-linecap="round" stroke-linejoin="round"/>
<path d="M176 20.2141V22.7974C176 24.6466 175.788 26.1781 175.334 27.4223" stroke="#F56A56" stroke-width="1.5" stroke-linecap="round" stroke-linejoin="round"/>
<path d="M177.093 20.1645L179.063 21.2175L177.113 22.3068L176.06 24.2771L174.97 22.3267L173 21.2738L174.95 20.1844L176.003 18.2141L177.093 20.1645Z" fill="white" stroke="#F56A56" stroke-linecap="round" stroke-linejoin="round"/>
</svg>
