<svg width="31" height="30" viewBox="0 0 31 30" fill="none" xmlns="http://www.w3.org/2000/svg">
<path d="M22.9999 20.9376C22.7999 20.9376 22.6124 20.8751 22.4374 20.7501C22.0249 20.4376 21.9374 19.8501 22.2499 19.4376C24.2124 16.8251 24.2124 13.1751 22.2499 10.5626C21.9374 10.1501 22.0249 9.5626 22.4374 9.2501C22.8499 8.9376 23.4374 9.0251 23.7499 9.4376C26.1999 12.7126 26.1999 17.2876 23.7499 20.5626C23.5624 20.8126 23.2874 20.9376 22.9999 20.9376Z" fill="#5E41A7"/>
<path d="M25.2875 24.0626C25.0875 24.0626 24.9 24.0001 24.725 23.8751C24.3125 23.5626 24.225 22.9751 24.5375 22.5626C27.875 18.1126 27.875 11.8876 24.5375 7.4376C24.225 7.0251 24.3125 6.4376 24.725 6.1251C25.1375 5.8126 25.725 5.9001 26.0375 6.3126C29.875 11.4251 29.875 18.5751 26.0375 23.6876C25.8625 23.9376 25.575 24.0626 25.2875 24.0626Z" fill="#5E41A7"/>
<path d="M18.025 4.7249C16.625 3.9499 14.8375 4.1499 13.0125 5.2874L9.3625 7.5749C9.1125 7.7249 8.825 7.8124 8.5375 7.8124H7.375H6.75C3.725 7.8124 2.0625 9.4749 2.0625 12.4999V17.4999C2.0625 20.5249 3.725 22.1874 6.75 22.1874H7.375H8.5375C8.825 22.1874 9.1125 22.2749 9.3625 22.4249L13.0125 24.7124C14.1125 25.3999 15.1875 25.7374 16.1875 25.7374C16.8375 25.7374 17.4625 25.5874 18.025 25.2749C19.4125 24.4999 20.1875 22.8874 20.1875 20.7374V9.2624C20.1875 7.1124 19.4125 5.4999 18.025 4.7249Z" fill="#5E41A7"/>
</svg>
