<svg width="24" height="24" viewBox="0 0 24 24" fill="none" xmlns="http://www.w3.org/2000/svg">
<path d="M16.5 22.25H7.5C5.93662 22.25 5.18122 21.8265 4.7862 21.3045C4.36737 20.751 4.25 19.9609 4.25 19V10.22C4.25 10.0861 4.36614 9.96997 4.5 9.96997C4.63386 9.96997 4.75 10.0861 4.75 10.22V19C4.75 19.4427 4.76845 19.8412 4.83708 20.1838C4.90671 20.5314 5.03424 20.8546 5.2765 21.1168C5.75697 21.6368 6.53193 21.75 7.5 21.75H16.5C17.4681 21.75 18.243 21.6368 18.7235 21.1168C18.9658 20.8546 19.0933 20.5314 19.1629 20.1838C19.2316 19.8412 19.25 19.4427 19.25 19V10.22C19.25 10.0861 19.3661 9.96997 19.5 9.96997C19.6339 9.96997 19.75 10.0861 19.75 10.22V19C19.75 19.9609 19.6326 20.751 19.2138 21.3045C18.8188 21.8265 18.0634 22.25 16.5 22.25Z" fill="#292D32" stroke="white"/>
<path d="M19 10.25H5C3.87908 10.25 3.08544 9.94333 2.57105 9.42895C2.05667 8.91456 1.75 8.12092 1.75 7V5C1.75 3.87908 2.05667 3.08544 2.57105 2.57105C3.08544 2.05667 3.87908 1.75 5 1.75H19C20.1209 1.75 20.9146 2.05667 21.4289 2.57105C21.9433 3.08544 22.25 3.87908 22.25 5V7C22.25 8.12092 21.9433 8.91456 21.4289 9.42895C20.9146 9.94333 20.1209 10.25 19 10.25ZM5 2.25C4.15353 2.25 3.43049 2.4274 2.92895 2.92895C2.4274 3.43049 2.25 4.15353 2.25 5V7C2.25 7.84647 2.4274 8.56951 2.92895 9.07105C3.43049 9.5726 4.15353 9.75 5 9.75H19C19.8465 9.75 20.5695 9.5726 21.0711 9.07105C21.5726 8.56951 21.75 7.84647 21.75 7V5C21.75 4.15353 21.5726 3.43049 21.0711 2.92895C20.5695 2.4274 19.8465 2.25 19 2.25H5Z" fill="#292D32" stroke="white"/>
<path d="M13.8201 14.25H10.1801C10.0462 14.25 9.93005 14.1339 9.93005 14C9.93005 13.8661 10.0462 13.75 10.1801 13.75H13.8201C13.9539 13.75 14.0701 13.8661 14.0701 14C14.0701 14.1339 13.9539 14.25 13.8201 14.25Z" fill="#292D32" stroke="white"/>
</svg>
