<svg width="96" height="92" viewBox="0 0 96 92" fill="none" xmlns="http://www.w3.org/2000/svg">
<g filter="url(#filter0_f_2291_5900)">
<rect x="24" y="24" width="48" height="44" rx="22" fill="#D0C3F2"/>
</g>
<rect x="26" y="18" width="44" height="44" rx="22" fill="#D0C3F2" stroke="#301E5C" stroke-width="4"/>
<path d="M45.0194 43.064C44.9261 42.2053 44.9728 41.496 45.1594 40.936C45.3461 40.376 45.6074 39.9093 45.9434 39.536C46.2794 39.1627 46.6434 38.8453 47.0354 38.584C47.4461 38.304 47.8288 38.0333 48.1834 37.772C48.5568 37.5107 48.8554 37.212 49.0794 36.876C49.3221 36.5213 49.4434 36.0827 49.4434 35.56C49.4434 34.8507 49.2194 34.328 48.7714 33.992C48.3421 33.656 47.7728 33.488 47.0634 33.488C46.6341 33.488 46.1768 33.544 45.6914 33.656C45.2248 33.768 44.7581 33.9267 44.2914 34.132C43.8248 34.3373 43.3674 34.58 42.9194 34.86L42.6954 31.416C43.1994 31.1173 43.7221 30.8747 44.2634 30.688C44.8048 30.5013 45.3554 30.3613 45.9154 30.268C46.4754 30.156 47.0168 30.1 47.5394 30.1C48.3234 30.1 49.0701 30.2027 49.7794 30.408C50.4888 30.6133 51.1048 30.9307 51.6274 31.36C52.1688 31.7707 52.5981 32.284 52.9154 32.9C53.2328 33.516 53.3914 34.2533 53.3914 35.112C53.3914 35.896 53.2608 36.5493 52.9994 37.072C52.7381 37.5947 52.4021 38.0427 51.9914 38.416C51.5994 38.7893 51.1794 39.1253 50.7314 39.424C50.2834 39.7227 49.8634 40.0307 49.4714 40.348C49.0794 40.6653 48.7621 41.0387 48.5194 41.468C48.2954 41.8973 48.2021 42.4293 48.2394 43.064H45.0194ZM46.8114 49.364C45.9341 49.364 45.2714 49.1773 44.8234 48.804C44.3941 48.4307 44.1794 47.852 44.1794 47.068C44.1794 46.2653 44.3941 45.6773 44.8234 45.304C45.2714 44.9307 45.9341 44.744 46.8114 44.744C47.7074 44.744 48.3701 44.9307 48.7994 45.304C49.2474 45.6773 49.4714 46.2653 49.4714 47.068C49.4714 48.5987 48.5848 49.364 46.8114 49.364Z" fill="#301E5C"/>
<defs>
<filter id="filter0_f_2291_5900" x="0" y="0" width="96" height="92" filterUnits="userSpaceOnUse" color-interpolation-filters="sRGB">
<feFlood flood-opacity="0" result="BackgroundImageFix"/>
<feBlend mode="normal" in="SourceGraphic" in2="BackgroundImageFix" result="shape"/>
<feGaussianBlur stdDeviation="12" result="effect1_foregroundBlur_2291_5900"/>
</filter>
</defs>
</svg>
