<svg width="25" height="25" viewBox="0 0 25 25" fill="none" xmlns="http://www.w3.org/2000/svg">
<path d="M12.75 23.25C6.82 23.25 2 18.43 2 12.5C2 6.57 6.82 1.75 12.75 1.75C18.68 1.75 23.5 6.57 23.5 12.5C23.5 18.43 18.68 23.25 12.75 23.25ZM12.75 3.25C7.65 3.25 3.5 7.4 3.5 12.5C3.5 17.6 7.65 21.75 12.75 21.75C17.85 21.75 22 17.6 22 12.5C22 7.4 17.85 3.25 12.75 3.25Z" fill="#5E41A7"/>
<path d="M11.3299 16.0801C11.1299 16.0801 10.9399 16.0001 10.7999 15.8601L7.96994 13.0301C7.67994 12.7401 7.67994 12.2601 7.96994 11.9701C8.25994 11.6801 8.73994 11.6801 9.02994 11.9701L11.3299 14.2701L16.4699 9.1301C16.7599 8.8401 17.2399 8.8401 17.5299 9.1301C17.8199 9.4201 17.8199 9.9001 17.5299 10.1901L11.8599 15.8601C11.7199 16.0001 11.5299 16.0801 11.3299 16.0801Z" fill="#5E41A7"/>
</svg>
