<svg width="31" height="30" viewBox="0 0 31 30" fill="none" xmlns="http://www.w3.org/2000/svg">
<path d="M26.75 27.5H4.25C3.7375 27.5 3.3125 27.075 3.3125 26.5625C3.3125 26.05 3.7375 25.625 4.25 25.625H26.75C27.2625 25.625 27.6875 26.05 27.6875 26.5625C27.6875 27.075 27.2625 27.5 26.75 27.5Z" fill="#5E41A7"/>
<path d="M24.2752 4.35007C21.8502 1.92507 19.4752 1.86257 16.9877 4.35007L15.4752 5.86257C15.3502 5.98757 15.3002 6.18757 15.3502 6.36257C16.3002 9.67508 18.9502 12.3251 22.2627 13.2751C22.3127 13.2876 22.3627 13.3001 22.4127 13.3001C22.5502 13.3001 22.6752 13.2501 22.7752 13.1501L24.2752 11.6376C25.5127 10.4126 26.1127 9.22507 26.1127 8.02507C26.1252 6.78757 25.5252 5.58757 24.2752 4.35007Z" fill="#5E41A7"/>
<path d="M20.0124 14.4125C19.6499 14.2375 19.2999 14.0625 18.9624 13.8625C18.6874 13.7 18.4249 13.525 18.1624 13.3375C17.9499 13.2 17.6999 13 17.4624 12.8C17.4374 12.7875 17.3499 12.7125 17.2499 12.6125C16.8374 12.2625 16.3749 11.8125 15.9624 11.3125C15.9249 11.2875 15.8624 11.2 15.7749 11.0875C15.6499 10.9375 15.4374 10.6875 15.2499 10.4C15.0999 10.2125 14.9249 9.9375 14.7624 9.6625C14.5624 9.325 14.3874 8.9875 14.2124 8.6375C14.1576 8.52002 14.1064 8.40378 14.0582 8.28914C13.9169 7.95314 13.4811 7.85627 13.2234 8.11403L5.92491 15.4125C5.76241 15.575 5.61241 15.8875 5.57491 16.1L4.89991 20.8875C4.77491 21.7375 5.01241 22.5375 5.53741 23.075C5.98741 23.5125 6.61241 23.75 7.28741 23.75C7.43741 23.75 7.58741 23.7375 7.73741 23.7125L12.5374 23.0375C12.7624 23 13.0749 22.85 13.2249 22.6875L20.5162 15.3962C20.7758 15.1366 20.6774 14.6924 20.3386 14.5513C20.2323 14.507 20.124 14.4609 20.0124 14.4125Z" fill="#5E41A7"/>
</svg>
