<svg width="36" height="40" viewBox="0 0 36 40" fill="none" xmlns="http://www.w3.org/2000/svg">
<path d="M14.2673 7.2869H12.3387C4.83874 7.2869 1.83875 10.4182 1.83875 18.2465V27.6404C1.83875 35.4687 4.83874 38.6 12.3387 38.6L21.0472 38.6C26.3998 38.6 29.4604 37.0052 30.7742 33.2463C31.3013 31.7382 31.5472 29.8819 31.5472 27.6404V24.5091" stroke="white" stroke-width="2" stroke-linecap="round" stroke-linejoin="round"/>
<path d="M11.7027 26.1736L15.2704 24.5088L14.6855 28.5419L16.2805 32.2658L12.4165 31.6552L8.84883 33.3201L9.43377 29.287L7.83875 25.5631L11.7027 26.1736Z" fill="#301E5C" stroke="white" stroke-width="1.5" stroke-linecap="round" stroke-linejoin="round"/>
<path d="M24.7587 9.11977L13.8735 20.4831C13.4591 20.9157 13.0447 21.7665 12.9618 22.3866L12.3678 26.7271C12.1468 28.2989 13.2105 29.3949 14.7162 29.1786L18.8741 28.5585C19.4543 28.472 20.2693 28.0394 20.6975 27.6067L31.5827 16.2435C33.4614 14.2823 34.3454 12.0039 31.5827 9.11977C28.82 6.23569 26.6374 7.15859 24.7587 9.11977Z" fill="#301E5C" stroke="white" stroke-width="2" stroke-miterlimit="10" stroke-linecap="round" stroke-linejoin="round"/>
<path d="M24.3387 10.4181C25.1525 13.448 27.4238 15.8187 30.3387 16.6807" stroke="white" stroke-width="2" stroke-miterlimit="10" stroke-linecap="round" stroke-linejoin="round"/>
<path d="M18.6675 3.77346L20.115 1.47168L21.1889 3.98657L23.3942 5.49747L20.9847 6.61835L19.5372 8.92014L18.4633 6.40525L16.2581 4.89435L18.6675 3.77346Z" stroke="white" stroke-width="1.5" stroke-linecap="round" stroke-linejoin="round"/>
<path d="M32.6237 24.4419L34.9118 25.7181L32.6468 27.0386L31.4241 29.4268L30.159 27.0627L27.8709 25.7864L30.1359 24.466L31.3586 22.0777L32.6237 24.4419Z" fill="#301E5C" stroke="white" stroke-width="1.5" stroke-linecap="round" stroke-linejoin="round"/>
</svg>
